<svg xmlns="http://www.w3.org/2000/svg" width="172.753" height="138.466" viewBox="0 0 172.753 138.466">
  <path id="Tracé_2716" data-name="Tracé 2716" d="M53.822,18.259c-.941,1.923-1.765,3.916-2.851,5.755A42.128,42.128,0,0,1,45.1,31.487c-1.5,1.579-2.912,3.244-4.493,4.732-2.485,2.342-5.058,4.591-7.636,6.833q-3.589,3.124-7.271,6.141c-1.768,1.454-3.576,2.862-5.4,4.244q-4.859,3.687-9.764,7.312c-3.02,2.228-6.024,4.483-9.122,6.6C-3.464,70.68-8.356,74-13.357,77.147c-4.921,3.092-9.935,6.043-15,8.9-5.194,2.927-10.476,5.7-15.76,8.458-2.151,1.124-4.394,2.082-6.632,3.027a15.108,15.108,0,0,1-2.584.593A2.771,2.771,0,0,0-54.9,95.858c-.892-.577-1.944-.858-2.782-1.425a22.329,22.329,0,0,1-5.268-4.417c-4.59-5.812-9-11.764-13.009-17.987Q-82.3,62.187-88.34,52.15q-4.911-8.136-9.488-16.472c-4.271-7.761-8.322-15.637-11.93-23.736a146.656,146.656,0,0,1-7.463-19.8,40.117,40.117,0,0,1-1.5-6.4c-.214-1.928-.469-3.944.4-5.868a3.411,3.411,0,0,1,2.745-2.161c1.438-.241,2.867-.553,4.278-.921a5.315,5.315,0,0,1,3.724.449c3.974,1.814,6.913,4.814,9.751,8.015A90.522,90.522,0,0,1-88.647-2.181,142.317,142.317,0,0,1-79.67,14.7c2.144,4.812,4.35,9.609,6.217,14.531,2.785,7.347,5.293,14.8,7.921,22.2a2.017,2.017,0,0,0,.642,1,9.394,9.394,0,0,0-.007-1.2c-.354-2.726-.713-5.451-1.1-8.174-.334-2.357-.726-4.706-1.05-7.064-.238-1.727-.388-3.466-.614-5.194-.234-1.769-.536-3.53-.767-5.3s-.4-3.559-.619-5.335c-.238-1.955-.5-3.909-.742-5.862-.122-.956-.269-1.907-.354-2.866-.206-2.288-.363-4.578-.578-6.865-.251-2.649-.591-5.292-.806-7.943-.167-2.066-.234-4.141-.292-6.214-.115-4.159-.28-8.317-.253-12.476.017-2.755.279-5.514.536-8.261.161-1.724.479-3.438.806-5.141A8.673,8.673,0,0,1-70-37.381a3.092,3.092,0,0,1,2.533-1.872c.808-.116,1.576-.49,2.382-.625,1.261-.209,2.541-.315,3.813-.46a.433.433,0,0,1,.272.028c1.579,1.094,3.589,1.5,4.686,3.37a48.27,48.27,0,0,1,4.037,9.354A134.294,134.294,0,0,1-47.721-9.252c.632,3.508,1.342,7,1.894,10.522.4,2.532.616,5.094.872,7.646.218,2.192.4,4.387.555,6.584.19,2.665.452,5.334.479,8,.035,3.467-.121,6.936-.219,10.4a10.706,10.706,0,0,1-.264,1.543c.094.026.187.052.282.077.866-2.054,1.721-4.112,2.6-6.162,3.013-7.041,6-14.094,9.062-21.11a164.054,164.054,0,0,1,9.3-18.306A59.176,59.176,0,0,1-15.632-20.6a10.391,10.391,0,0,1,5.8-3.454,50.119,50.119,0,0,1,5.383-1.005,3.026,3.026,0,0,1,1.957.523,8.025,8.025,0,0,0,1.471.707,4.343,4.343,0,0,1,2.267,2.106,12.757,12.757,0,0,1,1.32,5.433,46.333,46.333,0,0,1-.006,6.942,69.356,69.356,0,0,1-1.21,8.143C-.521,7.751-3.679,16.3-7.111,24.753c-2.673,6.581-5.5,13.1-8.248,19.65a4.99,4.99,0,0,0-.452,1.952c.774-.585,1.563-1.15,2.318-1.758,2.465-1.981,4.9-3.995,7.379-5.964,2.51-2,5.011-4.016,7.588-5.929,5.89-4.371,11.787-8.736,17.753-13A120.46,120.46,0,0,1,37.472,8.717a18.5,18.5,0,0,1,7.5-2.087A4.918,4.918,0,0,1,48.238,7.9c1.274,1.031,2.507,2.113,3.739,3.194A4.872,4.872,0,0,1,53.5,14.257a5.173,5.173,0,0,0,.321.944Zm-89.73,64.4c.042.045.083.092.125.137.456-.286.917-.565,1.368-.858Q-21.705,73.668-9.484,64.7c3.762-2.763,7.431-5.65,11.115-8.519,2.42-1.885,4.789-3.838,7.181-5.759,2.326-1.869,4.68-3.7,6.969-5.617,2.224-1.858,4.4-3.772,6.56-5.709,3.129-2.806,6.25-5.621,9.314-8.5a53.865,53.865,0,0,0,3.791-4.057c1.928-2.231,3.8-4.512,5.674-6.786a5.725,5.725,0,0,0,.513-1.111c-.718.327-1.182.505-1.615.744A156.428,156.428,0,0,0,22.9,30.376c-5.539,4.069-10.991,8.256-16.4,12.495-4.183,3.28-8.262,6.695-12.345,10.1-3.284,2.739-6.522,5.536-9.745,8.346-2.676,2.333-5.293,4.732-7.95,7.087-1.171,1.039-2.391,2.022-3.562,3.062a24.081,24.081,0,0,0-3.533,3.309c-1.885,2.53-3.528,5.242-5.273,7.879M-46.08,71.425c.1.074.209.15.315.224,1.027-1.338,2.122-2.632,3.072-4.024A161.445,161.445,0,0,0-28.623,42.089c1.991-4.481,4.047-8.933,5.986-13.436,2.554-5.929,5.11-11.86,7.5-17.856a99.825,99.825,0,0,0,5.2-16.736c.2-.956.305-1.93.458-2.921-.251,0-.322-.019-.341,0-.443.523-.912,1.028-1.315,1.582A90.891,90.891,0,0,0-18.805,5.462c-4.246,8.463-7.873,17.2-11.4,25.98-2.272,5.661-4.513,11.334-6.779,17q-4.342,10.861-8.7,21.716c-.164.411-.269.847-.4,1.271M-104.795-5.938l-.2.132a3.547,3.547,0,0,0,.132.764c1.869,4.578,3.631,9.206,5.656,13.715a250.394,250.394,0,0,0,12.175,23.5c4.14,7.1,8.473,14.1,12.746,21.126.969,1.593,2.039,3.124,3.063,4.684a1.723,1.723,0,0,0-.076-1.211C-72.94,52.742-74.546,48.7-76.26,44.7-78.82,38.73-81.352,32.738-84.1,26.849c-2.176-4.663-4.515-9.263-7.039-13.744a109.461,109.461,0,0,0-12.146-17.51c-.465-.543-1-1.023-1.509-1.532m47.471,26.824.208-.009c0-1.561.068-3.126-.019-4.682-.094-1.692-.338-3.374-.507-5.064-.2-2.054-.349-4.117-.609-6.165-.305-2.4-.693-4.8-1.071-7.194-.2-1.254-.449-2.5-.677-3.748A8.828,8.828,0,0,0-60.2-3.2c.224,2.372.529,4.737.777,7.106.215,2.051.36,4.111.6,6.159.325,2.771.707,5.537,1.079,8.3.113.842.276,1.678.415,2.516" transform="translate(118.931 40.347)" fill="#bfd6dd"/>
</svg>

