<svg xmlns="http://www.w3.org/2000/svg" width="104.465" height="68.528" viewBox="0 0 104.465 68.528">
  <path id="Tracé_1561" data-name="Tracé 1561" d="M40.264,12.5a4.142,4.142,0,0,1-.732,2.664,2.986,2.986,0,0,1-.287-1.36A7.491,7.491,0,0,1,40,10.8a4.811,4.811,0,0,1,.26,1.7M38.048,1.163a1,1,0,0,1-.473.875C37.339.977,36.621.1,36.34-.938c.348-.331,1.709,1.022,1.709,2.1M25.155,25.81a3.035,3.035,0,0,1-.077.63c-.4,1.853-1.411.243-2.166-.345.857-1.068,2.244-1.612,2.244-.285M23.242,31.3c0-.648-.739-.456-.942-.98a2.575,2.575,0,0,1-.206-.957c0-1.477,1.742-1.737,2.267.13a4.534,4.534,0,0,1,.171,1.176,1.519,1.519,0,0,1-.6,1.394c-.528.3-.7-.113-.7-.53,0-.049,0-.1.007-.15a.679.679,0,0,0,0-.083m-5.906-1.51c0,1.061-2.263-.336-2.976-.737-.878-.493-2.052-1.292-2.052-2.353a1.635,1.635,0,0,1,.178-.722c.438-.9,1.862.232,2.325.544a6.473,6.473,0,0,0,1.487.737c.97.361.531,1.075.848,1.82a1.939,1.939,0,0,1,.19.711m-.215,2.687c0,.977-2.446.827-2.948.753A2.39,2.39,0,0,1,12.011,30.6c0-.141.007-.283.019-.431.134-1.4,2.663.419,3.354.774.556.289,1.522.676,1.711,1.346a.745.745,0,0,1,.026.188M12.176,25.4c0,1.357-1.417,2.049-2.506.26a1.389,1.389,0,0,1-.192-.748,4.466,4.466,0,0,1,.069-.674,4.653,4.653,0,0,0,.069-.678,1.536,1.536,0,0,0-.088-.539.637.637,0,0,1-.044-.2c0-.639,2.122.98,2.316,1.318a2.5,2.5,0,0,1,.377,1.264M4.945-12.483a.6.6,0,0,1,0,.079c-.067.908-.866,1.237-1.074,2.05-.34,1.323-.243-.2-.382-.561a5.574,5.574,0,0,1-.436-1.821,1.808,1.808,0,0,1,.107-.641c.512-1.348,1.788-.093,1.788.894M8.938,22.641A4.038,4.038,0,0,1,8.553,24.8c-2.385-1.492-3.2-4.048-4.106-6.545A28.685,28.685,0,0,1,2.93,12.8c0-.218.04-.359.136-.394.945-.334,2.54,2.946,2.7,3.381.266.7,1.55,1.915,1.55,2.71a.739.739,0,0,1-.011.127c-.125.625-1.214,1.066-1.214,1.688a.769.769,0,0,0,.253.521c.776.822,1.741-1.209,2.344-.106a5.4,5.4,0,0,1,.246,1.918M.221,33.272a1.437,1.437,0,0,1-.378.866.49.49,0,0,1-.1-.3,1.251,1.251,0,0,1,.069-.343,1.181,1.181,0,0,0,.07-.341.466.466,0,0,0-.019-.139c.262-.067.359.062.359.259m-2.181,1.179c0-.764-1.019-.977-1.037-1.814V32.6A4.2,4.2,0,0,1-2.67,31.19a4.23,4.23,0,0,0,.324-1.4c0-.06,0-.121-.007-.183.938.125,1.283,1.04,1.283,1.885a2.967,2.967,0,0,1-.046.524c-.121.7-.357,1.374-.5,2.07a2.07,2.07,0,0,0-.04.435c0,.167.012.338.025.51s.026.345.026.514a1.547,1.547,0,0,1-.208.862.825.825,0,0,0-.134.452,1.931,1.931,0,0,0,.113.554,1.932,1.932,0,0,1,.114.563.845.845,0,0,1-.032.236c-.146.56-.876.933-.876,1.542a.75.75,0,0,0,.012.137c-.194-.121-.268-.454-.268-.894a17.805,17.805,0,0,1,.864-4.2,1.047,1.047,0,0,0,.062-.347M-3.413,8.662a.612.612,0,0,1-.246.489,2.124,2.124,0,0,1-.1-.493.6.6,0,0,1,.248-.489,2.235,2.235,0,0,1,.1.493M.822,29.128a.659.659,0,0,0-.049-.271c-.238-.517-1.176-.391-1.535-.924a14.582,14.582,0,0,1-2.063-5.19C-3.263,20.135-4.236,17-4.236,14.089a8.872,8.872,0,0,1,.7-3.668c.957.044,1.214,3.189,1.408,3.881A26.918,26.918,0,0,0-.3,17.731c.472-1.292.292-.44,1.617-.627a.394.394,0,0,0,.032-.16c0-.593-1-1.737-1.068-2.439C.246,14.091.2,13.625.2,13.151a3.116,3.116,0,0,1,.908-2.534c.451.259.535.855.535,1.5,0,.2-.009.4-.016.591s-.016.391-.016.57a2.187,2.187,0,0,0,.1.744c.551,1.422.915,2.819,1.426,4.277A21.943,21.943,0,0,0,5.33,23.544C6.3,24.962,9.22,26.336,9.22,28.221c0,.037,0,.074,0,.111.873.146,1.689-.715,2.057.581a3.338,3.338,0,0,1,.114.9,4.4,4.4,0,0,1-.289,1.552c-.479,1.235-2.879-.883-3.442-1.325a19.2,19.2,0,0,1-4.243-5.623c-.443-.769-1.228-1.32-1.573-2.158-.225-.551-.107-1.035-.53-1.528A5.843,5.843,0,0,1,.165,19.343,9.417,9.417,0,0,0,1.932,23.7c.384.627,2.777,4.187,2.777,4.5a.023.023,0,0,1-.005.018c-.275.26-1.461.225-1.461.521,0,.113.172.273.63.516a17.936,17.936,0,0,1,3.652,2.219c1.725,1.47,3.339,2.752,5.695,2.731a16.916,16.916,0,0,0,5.941-.822c1.688-.641,2.716.049,4.431-.22.37-.06,1.007.662,1.2.565a5.823,5.823,0,0,0,1.945-1.779c-.014.1-1.679-.537-1.679-1.123,0-.165.132-.327.473-.466,1.214-.5,2.782.961,4.225.477-.808-1.719-4.011-.926-4.011-2.972a2.943,2.943,0,0,1,.116-.764c.148-.542.6-1.857,1.4-1.61a.916.916,0,0,1,.667,1.019c0,.158-.014.322-.028.487s-.026.333-.026.493a1.176,1.176,0,0,0,.225.787c.848-1,.565-2.432,1.239-3.513.326-.516.871-.859.871-1.477a1.142,1.142,0,0,0-.028-.248,5.636,5.636,0,0,1-.2-1.045,1.47,1.47,0,0,1,.3-.85,1.739,1.739,0,0,0,.292-.991,6.887,6.887,0,0,0-1.334-3.1c-.991-1.64-1.723-3.4-2.629-5.081C24.4,7.865,20.4,4.956,17.521,1.327c-1.408-1.777-5.164-5.044-5.164-7.795a2.686,2.686,0,0,1,.678-1.8c-1.112-.669-2.3.5-3.247.95.106.716.829-.005,1.172.361a1.249,1.249,0,0,1,.2.834c0,.076,0,.151,0,.225s0,.146,0,.213a2.153,2.153,0,0,0,.009.224,3.83,3.83,0,0,0,1.042,1.9c.3.373.421.6.421.75,0,.407-.871.241-1.16.942a1.146,1.146,0,0,0-.088.443c0,1.119,1.494,2.39,2.1,3.036a1.233,1.233,0,0,0,.123-.544A3.043,3.043,0,0,0,13.215-.19a3.033,3.033,0,0,1-.394-1.237A1.214,1.214,0,0,1,13.1-2.2c2.056,2.008,3.6,4.467,5.447,6.649,1.811,2.137,3.963,3.856,5.656,6.137,1.661,2.233,2.328,4.942,3.865,7.164a5.9,5.9,0,0,1,1.1,3.286,4.057,4.057,0,0,1-.9,2.6c-.861,1.068-1.035.507-1.035-.222,0-.248.019-.516.04-.744s.04-.421.04-.517v-.018c-.028-.644-1.19-.656-1.6-1-.688-.574-1.163-1.6-2.064-1.88-.475-.148-.641-.04-.641.171a2.6,2.6,0,0,0,.741,1.278,5.947,5.947,0,0,1,1.7,2.337,1.447,1.447,0,0,1,.1.5c0,1.4-3.3.26-4.317,1.14-1.322-1.846-2.946-3.463-4.352-5.243a3.588,3.588,0,0,1-.984-2.268c-.044-.98-.707-.813-1.339-1.438-1.441-1.436-2.295-3.9-3.263-5.66A43.247,43.247,0,0,1,9.3,6.156C8.377,4.005,7.127,1.475,7.034-.9c0-.032,0-.063,0-.092,0-1.066.8-.331,1.315-1A1.674,1.674,0,0,0,8.7-3.015c0-.989-.912-1.7-1.637-.246a.832.832,0,0,1-.236-.663c0-.053,0-.106,0-.158s0-.107,0-.16a.781.781,0,0,0-.317-.72,2.867,2.867,0,0,0-.847,2.355A20.352,20.352,0,0,0,6.333,1.48c.238,1.105,1,2.163,1.049,3.293v.009a8.415,8.415,0,0,1-.3,1.072,5.9,5.9,0,0,0-.3,1.448c0,.271.076.454.278.463.554.023.788-1.118,1.367-.44a16.858,16.858,0,0,1,2.214,3.516c1.07,2.237,2.314,4.166,3.511,6.337.524.954,1.443,1.8,1.723,2.876.375,1.411.2,1.726,1.6,2.386.973.459,3.937,3.282,3.937,4.7a.771.771,0,0,1-.072.341,2.209,2.209,0,0,0-.16.961c0,.257.018.53.033.806s.033.551.033.811c0,.95-.218,1.695-1.452,1.443a1.745,1.745,0,0,1-1.519-1.777,2.594,2.594,0,0,1,.69-1.716.051.051,0,0,0,.012-.035c0-.428-4.252-2.67-4.81-3.1-1.366-1.049-4.125-3.148-4.125-5.1,0-.044,0-.086.005-.13s0-.086,0-.128c0-1.186-1.218-.8-1.837-1.6a23.759,23.759,0,0,1-1.57-3c-.917-1.594-2.152-3.075-3.235-4.585a4.861,4.861,0,0,1-.671-2.795,22.589,22.589,0,0,1,.273-2.992A13.539,13.539,0,0,1,4.079,1.42,7.033,7.033,0,0,0,4.6-.461c0-.4-.2-.563-.841-.081C1.731.98,1.92,4.618,1.112,6.826.679,8.016.155,9.174-.21,10.388c-.436,1.44-.158,3.043-.7,4.435-.216-.827-.966-1.455-.978-2.346a13.622,13.622,0,0,0-.234-2.6,7.666,7.666,0,0,1-.16-1.593,11.69,11.69,0,0,1,.75-3.9c.6-1.661.82-3.6,1.5-5.179A15.335,15.335,0,0,1,4.4-6.267C5.255-6.961,6.126-7.647,7-8.316c.593-.452,1.638-.421,2.029-1.065.414-.681.868-.1,1.491-.211a25.443,25.443,0,0,0,3.108-1.246c.618-.2,4.306-2.05,4.755-1.807.232.127.915-.067,1.33.092.581-.187,1.07.16,1.756.046s1.609-.239,2.089.429a.953.953,0,0,1,.22.482c0,.29-.465.236-.848.116a7.212,7.212,0,0,0-1.426-.505c-.547-.044-1.184.422-1.184.873,0,.208.134.412.472.561a22.151,22.151,0,0,0,2.487.4,10.69,10.69,0,0,1,2.367,1.07,32.289,32.289,0,0,1,4.729,3.673c1.619,1.426,3.478,2.76,4.636,4.614.6.966,1.286,1.865,1.883,2.832.336.546.236,1.035.5,1.529l-.128,1a22.029,22.029,0,0,1-.436,2.36c-.574,1.848-.048,4.3-.933,5.936a5.077,5.077,0,0,1-1.961-4.078,3.209,3.209,0,0,1,.187-1.14.122.122,0,0,0,.007-.044c0-.229-.561-.625-.6-.908a1.066,1.066,0,0,1-.009-.15c0-.361.15-.748.151-1.1V5.426c0-1.568-1.674-.436-2.052.2a72.672,72.672,0,0,0-9.855-12.4c-1.436-1.415-3.442-2.036-4.9-3.446-.31-.3-1.714-1.3-1.769-.146a.368.368,0,0,0,0,.044c0,.957,1.707,1.744,2.365,2.112A12.524,12.524,0,0,1,19.93-6.545c.885.813,1.355,2.173,2.353,2.805.727.463.727.683.727,1.054v.028a2.306,2.306,0,0,0,.1.715C23.436-.859,24.5-.166,25.087.764c.528.824.864,1.753,1.387,2.578.238.375,1.9,2.372,1.9,1,0-.028,0-.058,0-.088-.046-.956-1.781-1.876-1.781-2.858a.862.862,0,0,1,.143-.47A36.885,36.885,0,0,1,31.959,8.68a7.992,7.992,0,0,1,.546,3.229c0,1.679-.264,3.453-.322,4.857.3.011,1.126-4.389,1.329-4.917a11.79,11.79,0,0,1,1.945,3.157c.289.79-.113,1.848.524,2.511,1.48-.354.774-3.742,1.2-4.982a13.156,13.156,0,0,0,.986-3.166c0-.025,0-.049,0-.076a1.79,1.79,0,0,0-.3-.869,1.761,1.761,0,0,1-.3-.843,1.02,1.02,0,0,1,.055-.32c.3-.852.861-1.311.956-2.277.076-.759.049-1.8.832-2.221.744.743.225,1.968.722,2.825a1.834,1.834,0,0,1,.3.915,2.119,2.119,0,0,1-.486,1.172c-1.089,1.6-1.35,3.6-1.823,5.582a6.05,6.05,0,0,0-.192,1.373,1.964,1.964,0,0,0,.51,1.457c.4.387,1.651.875,1.67,1.519,0,.032,0,.063,0,.1a6.558,6.558,0,0,1-.915,2.877,6.54,6.54,0,0,0-.917,2.87,3.734,3.734,0,0,0,.028.438c.338-1.3,1.455-2.608,1.968-3.907.616-1.565,2.462-2.283,2.92-3.933a1.5,1.5,0,0,1,.3.938,4.485,4.485,0,0,1-.1.8,4.562,4.562,0,0,0-.1.818c0,.042,0,.086.005.13,1.25-.491,1.1-2.872,1.169-3.933.005-.058.007-.12.007-.187,0-.947-.41-2.62-.753-.739-.229,1.26-1.443-.146-1.443-.942a.5.5,0,0,1,.076-.285,2.946,2.946,0,0,0,.308-1.549,30.527,30.527,0,0,0-.477-3.984c-.269-2.047-.558-4.3-1.79-6.024C39.122-.688,37.725-3.013,36-4.37s-3.016-3.191-4.834-4.444-3.775-2.325-5.54-3.669c1.3-.495,2.628.262,3.947.049-1.9-1.848-3.845-.743-5.762-1.619.236-.371,1.57-.208,2.027-.392a6.681,6.681,0,0,1,3.111-.1,20.323,20.323,0,0,1,6.006,1.582,29.91,29.91,0,0,1,11.7,9.753A25.378,25.378,0,0,1,48.692.721c.563,1.218.1,2.628.707,3.831a1.66,1.66,0,0,1,.172.769,4.707,4.707,0,0,1-.113.876,4.586,4.586,0,0,0-.114.882,1.807,1.807,0,0,0,.07.517,9.369,9.369,0,0,1,.3,2.471,7.578,7.578,0,0,1-.044.862c-.34,3.027-1.656,5.639-2.9,8.351a4.879,4.879,0,0,0-.635,1.876,2.658,2.658,0,0,0,.535,1.427.9.9,0,0,1,.12.491c0,1.056-1.079,2.884-1.338,3.571a14.582,14.582,0,0,1-4.166,6.293,8.685,8.685,0,0,1-2.452,1.454c-.836.313-1.584-.044-2.43.26a16.586,16.586,0,0,0-2.636,1.329c-1.163.658-1.572-.862-2.8-.22a10.941,10.941,0,0,1-3.309,1.151c-.97.141-2.034-.477-2.907.2.065-.876,1.417-.9,1.85-1.535-.759-.426-2.666.3-3.511.419-1.894.26-3.778-.69-5.653-.1a.634.634,0,0,0-.007.1c0,.715.964.736,1.4,1.042a11.619,11.619,0,0,1-4.882.605,20.139,20.139,0,0,1-5.778-1.811c-1.535-.632-4.6-1.749-5.533-3.182a1.017,1.017,0,0,1-.165-.583,3.081,3.081,0,0,1,.053-.487,3.061,3.061,0,0,0,.055-.489,1.143,1.143,0,0,0-.062-.378c-.317-.887-1.225-.067-1.645-.468a.494.494,0,0,1-.125-.375A3.154,3.154,0,0,1,.786,29.5a2.781,2.781,0,0,0,.035-.371M-4.25,40.495a1.184,1.184,0,0,1-.218.637.965.965,0,0,1-1.758-.505.715.715,0,0,1,.292-.561c.711-.584,1.684-.287,1.684.429m.933-12.631c0,.081,0,.143-.005.18a14.418,14.418,0,0,1-.667,3.976c-.7,1.922.165,5.94-2.418,6.552a1.7,1.7,0,0,1-.194-.831,5.888,5.888,0,0,1,.132-1.035,5.812,5.812,0,0,0,.132-1.07,2.217,2.217,0,0,0-.123-.759A2.827,2.827,0,0,1-6.6,33.93a22.28,22.28,0,0,1,.526-3.418,41.325,41.325,0,0,1,.6-4.19,13.28,13.28,0,0,0,.679-2.483.566.566,0,0,0-.026-.187c1.2-.635,1.5,3.226,1.5,4.211M-5.752,14.1a2.529,2.529,0,0,1-1.237,2.2,1.329,1.329,0,0,1-.271-.8c0-.862.822-1.714,1.16-2.575A2.049,2.049,0,0,1-5.752,14.1m-1.14,4.491A10.547,10.547,0,0,1-7.9,22.488c-.391-.213-.563-.891-.563-1.677,0-1.366.519-3.066,1.32-3.245a1.683,1.683,0,0,1,.253,1.03m1.1-9.525c0,1.565-1.191,3.611-1.589,4.829-.371,1.13-.671,2.309-2.117,2.247-.621-.03-1.616-.739-1.616-1.267,0-.222.174-.41.625-.5.412-.083,1.176-.009,1.176-.475a.762.762,0,0,0-.081-.308c-.248-.473-.414-.6-.414-.743,0-.123.12-.264.408-.651a.564.564,0,0,0,.127-.34c0-.255-.218-.472-.421-.669a.7.7,0,0,1-.245-.523c0-.537.611-1.109.778-1.667.331-1.14.588-2.372,2.045-1.83a1.852,1.852,0,0,1,1.323,1.9M-7.855,28.14c0,1.506-1.021.44-2.082.238-1.748-.333-2.554,2.478-4.407,2.068a1.176,1.176,0,0,1-.253-.839c0-1.475,1.258-4.058,2.029-4.4,1-.435,1.732-1.5,2.874-1.594,1.635-.137,1.492.018,1.9,1.272,1.9-.512.414-5.8,2.047-6.739a4.059,4.059,0,0,1,.69,1.878,1.6,1.6,0,0,1-.107.586,4.768,4.768,0,0,0-.5,1.48,1.5,1.5,0,0,0,.7,1.14c-1.957,1.008-1.491,3.013-1.742,4.486-.491-.125-.588-.461-.588-.864,0-.132.011-.269.021-.412s.019-.283.019-.424a1.188,1.188,0,0,0-.266-.847,1.269,1.269,0,0,0-.519,1.154c0,.486.125,1.007.158,1.408.014.153.019.289.019.408M-14.449,3.806c-.479.556-1.118.407-1.712.167a8.451,8.451,0,0,0-2.385.771.64.64,0,0,1-.026-.178c0-1.188,3.808-1.529,4.123-.76m1.855,45.275c0,.825-9.361,2.312-9.866.153,1.235-.674,2.244.178,3.5.074,2.135-.181,4.241.252,6.366-.243a.049.049,0,0,1,0,.016M-25.32,39.537a.985.985,0,0,0-.12-.484c-1.019.167-.773,2.057-1.719,2.235-.289-.1-.389-.4-.389-.746a4.3,4.3,0,0,1,.412-1.593c.495-1.026,1.482-.764,1.482-1.2a1.541,1.541,0,0,0-.373-.73,1.219,1.219,0,0,1-.266-.713c0-1.153,2.221-1.67,2.305-.9.979-1.482,3.212-1.42,4.769-1.79a5.821,5.821,0,0,1,2.267-.229c1.346.227.864,1.264,1.42,2.121.829.137.531-1.61,2.085-1.1.854.28,2.077,1.024,2.994.6-.011-.794-1.3-.605-1.788-.773a10.814,10.814,0,0,1-2.335-1.475.086.086,0,0,1-.016-.053c0-.556,3.646-3.331,4.759-2.592.484.326,2.524.234,2.525,1.056v0a1.178,1.178,0,0,1-.473.824,1.285,1.285,0,0,0-.475.947,1.343,1.343,0,0,0,.023.243,5.537,5.537,0,0,1,.07.9c0,1.593-.595,3.2-.644,4.88-.048,1.3-1.58,1.783-2.587,2.119-1.244.412-1.948.678-1.948-.408a5.34,5.34,0,0,1,.1-.919c.1-.551.241-1.116.3-1.675a.861.861,0,0,0,.005-.1c0-.709-.825-1.274-1.167-.364a11.643,11.643,0,0,0-.734,3.333,1.494,1.494,0,0,0,.216.9c-.991.224-2.661,1.41-3.5.25-.549-.766-1.3.917-1.989.271a2.274,2.274,0,0,1-.583-1.751c0-.364.033-.744.067-1.119s.067-.741.067-1.082a2.984,2.984,0,0,0-.076-.73,1.232,1.232,0,0,0-.707,1.262,6.6,6.6,0,0,0,.06.755,7,7,0,0,1,.058.744,1.1,1.1,0,0,1-.53,1.079c-3.034,1.668-2.195-1.793-2.689-3.74a1.765,1.765,0,0,0-.421,1.244c0,.216.021.438.04.658s.04.44.04.656a1.769,1.769,0,0,1-.408,1.234,1.053,1.053,0,0,1-.354-.787,2.544,2.544,0,0,1,.109-.634,2.577,2.577,0,0,0,.111-.632m2.012,9.681c-1.112.523-4.548.116-4.915-1.323,1.112-.771,4.194.313,4.915,1.323M-12.077,20.93c0-.718-2.276-.711-2.708-.637-3.185.516-5.684,3.4-8.8,3.815-1.327.174-2.3.973-3.613,1.364A14.728,14.728,0,0,0-32.931,29.1a1,1,0,0,1-.25-.711c0-1.359,1.756-3.546,2.335-4.143a19.6,19.6,0,0,1,6.168-4c1.83-.824,3.666-1.461,5.54-2.147.942-.345,4.782-1.362,5.51-.6.711-.683,1.612-.076,1.695.806.019.229.255,2.865.943,1.623a.711.711,0,0,0,.088-.352,2.015,2.015,0,0,0-.167-.674,2.053,2.053,0,0,1-.167-.667V18.2c.037-.971,1.726-1.066,2.261-.507a1.222,1.222,0,0,1,.282.868,6.944,6.944,0,0,1-.359,1.786,6.788,6.788,0,0,0-.357,1.621c0,.037,0,.074,0,.111s.005.076.005.109c0,.88-1.059.741-1.533,1.323a1.965,1.965,0,0,1-.954.355c-.528.3-.792.885-1.267,1.241a1.534,1.534,0,0,1-.454-1.093,5.476,5.476,0,0,1,1.4-2.751.564.564,0,0,0,.132-.329M-29.065,47.6c-.9.915-6.3-2.349-7.011-2.9,1.579-.236,6.14,1.558,7.011,2.9M-45.639,33.872a1.175,1.175,0,0,0-.192-.713,2.243,2.243,0,0,1-.435-1.325,8.1,8.1,0,0,1,.465-2.043c.607-2.17,1.308-.495,2.54-1.945.936-1.107,2.122-1.633,2.745-3A15.187,15.187,0,0,1-37.5,20.288c2.907-2.916,6.888-4.59,9.421-7.905-1.559.232-2.26,1.906-3.713,2.348a12.019,12.019,0,0,0-3.967,2.286c-3.191,2.58-5.558,5.973-8.125,9.129.48-1.056.09-1.8.978-2.768,1.16-1.274,2.017-2.761,3.224-4.006,1.047-1.079,2.122-2.124,3.173-3.2.839-.861,1.982-2.851,3.231-3.043,1.147-.169,1.065-.22,1.459-1.265.384-1.022,1.9-1.64,2.8-2.1A11.067,11.067,0,0,1-26.4,8.8c.78-.048,1.753-1.109,2.467-1.047,1.045.093,2.043-.542,3.013-.82s2.694.41,3.207-.19a2.753,2.753,0,0,1,2.494-.984c.7.033,1.461.493,1.461,1.154a1.082,1.082,0,0,1-.172.56c-.475.8-1.858.4-2.566.29a11.006,11.006,0,0,0-3.81.4,13.171,13.171,0,0,0-7.631,4.081c.847.181,2-1,2.923-1.146,1.269-.194,2.365-1.235,3.729-1.454-1.938,2.1-4.687,3.372-6.408,5.7,1.515-.268,2.562-1.6,3.7-2.513A13.28,13.28,0,0,1-19.98,10.7c1.943-.685,5.948-2.8,7.86-1.091.176-.336,1.362-1.823,1.362-2.466a.257.257,0,0,0-.143-.259c-.693-.324-1.357.595-2.063.5-.229-.03-.326-.151-.326-.313A1.7,1.7,0,0,1-11.681,5.8c.635.081,1.728.021,2.2.54a.648.648,0,0,1,.113.426A9.353,9.353,0,0,1-10.412,9.9a8.694,8.694,0,0,0-1.17,1.976,1.237,1.237,0,0,0-.056.38,3.106,3.106,0,0,0,.092.642,3.089,3.089,0,0,1,.092.646,1.326,1.326,0,0,1-.011.165c-.132,1.04-.656,2.358-1.825,1.732-.34-.178-2.554.567-3.011.607-3.185.282-6.142,1.61-9.051,2.872a16.477,16.477,0,0,0-4.152,2.39c-1.142.964-1.941,2.272-3.12,3.2-2,1.566-2.494.891-2.494-.431a15.8,15.8,0,0,1,.236-2.21,15.706,15.706,0,0,0,.234-2.017,1.022,1.022,0,0,0-.143-.644c-1.2.158-1.237,2.712-1.392,3.571a8.014,8.014,0,0,0-.2,1.362,2.174,2.174,0,0,0,.157.836c.338.836,1.028.954,1.028,1.434a1.334,1.334,0,0,1-.317.715c-.51.715-5.667,6.732-5.667,8.856a.645.645,0,0,0,.553.715c1.327.266,2.144-3.029,2.585-3.814.487-.868,1.045-1.691,1.6-2.522.561-.848,1.01-.558,1.887-.57.385-.005.561.146.561.3,0,.169-.211.338-.588.3-.767-.069-.975.48-.975,1.112,0,.088,0,.176.011.266.046.565.345,4.576.978,4.778a2.22,2.22,0,0,0,.224-1.024,7.272,7.272,0,0,0-.216-1.5,7.237,7.237,0,0,1-.218-1.478,1.924,1.924,0,0,1,.451-1.32,15.674,15.674,0,0,1,5.911-3.96c.85-.329,1.969-1.389,2.826-.744.8.6,2-.174,2.928-.127.412.019,2.353.033,2.353-.716a.7.7,0,0,0-.125-.363c-.333-.524-1.191.016-1.591-.461.491-.818,1.658-.627,2.393-1.028a11.037,11.037,0,0,1,2.767-1.242c1.455-.327,2.823-1.123,2.823-.016a3.863,3.863,0,0,1-.248,1.142c-.575,1.7-.623,3.031-2.538,3.727-.373.136-.7.363-.7.662a.677.677,0,0,0,.248.47c.632.625,1.39.109,1.98-.255a1.614,1.614,0,0,1,.415,1.045c0,1.214-1.557,2.27-2.592,2.517-1.836.438-3.745.414-5.558.98-1.607.5-3,.524-4.576,1.279a4.3,4.3,0,0,1-2.11.442c-.505-.012-1.427.95-1.624.815-.537-.363-2.494.519-2.5,1.334a.587.587,0,0,0,.241.452c.817.69,2.6-.25,3.4-.558.829-.317,1.63-.678,2.45-1,.568-.227.9-.032.9.255,0,.208-.176.461-.563.635a.819.819,0,0,0-.428.852,6.982,6.982,0,0,0,.072.8,7.236,7.236,0,0,1,.072.875,1.663,1.663,0,0,1-.722,1.522c-1.2.808-4.581-.866-5.475-1.612a1.788,1.788,0,0,0-.31.934c0,1.367,2.314,1.871,3.5,2.114,1.267.264,1.781.1,1.966,1.535a6.21,6.21,0,0,1,.056.748c0,.635-.171,1.255-.95,1.065a30.214,30.214,0,0,1-6.453-2.869,30.651,30.651,0,0,1-3.412-1.58c-1.086-.75-2.49-1.079-3.419-2.054.524-.6,1.176.378,1.7-.266-.533-1.225-2.274-1.135-3.12-2.04A6.734,6.734,0,0,1-45.544,35a1.314,1.314,0,0,1-.113-.586c0-.092,0-.181.009-.273s.009-.181.009-.271m-1.616-9.533a2.312,2.312,0,0,0-.225-1.146,2.581,2.581,0,0,1-.407-1.339,6.275,6.275,0,0,1,1.163-2.8.967.967,0,0,0,.146-.458c0-.283-.232-.419-.466-.556s-.466-.278-.466-.568a1.043,1.043,0,0,1,.16-.491c1.015-1.8,1.781-3.726,2.9-5.486,4.46-7.045,10.816-12.31,18.919-14.537,6.573-1.8,14.178-1.716,19.95,2.3.8.551,2.137.878,2.137,1.99a1.623,1.623,0,0,1-.025.266c-.238,1.382-.621,3.773-1.57,4.84-.463.517-2.1-.769-2.444-1.079a.678.678,0,0,1-.262-.523A2.215,2.215,0,0,1-7.2,3.648a2.207,2.207,0,0,0,.546-1.126.709.709,0,0,0-.021-.171c-1.246-.19-1.008,1.179-1.6,1.83-.88.964-2.052,0-3.038.063-1.325.079-1.841-.575-1.841-1.667a4.333,4.333,0,0,1,.035-.528.372.372,0,0,0,0-.062c0-.47-.72-.329-1.044-.526-.623-.377-.609-1.572-.785-2.188-.072-.255-2-2.835-2.247-1.473-.287,1.554-1.422.646-2.689.875-.528.1-.926.384-.926.683,0,.2.18.412.623.575a4.746,4.746,0,0,0,3.68-.8c.248.482,1.424,1.911,1.424,2.8a.661.661,0,0,1-.59.683c-1.119.269-2.606-.706-3.632-.116-1.188.679-.931,2.045-2.6,2.311-.612.1-.544.9-1.028,1.154a8.763,8.763,0,0,1-2.006.66A22.2,22.2,0,0,0-29.4,8.375,11.972,11.972,0,0,1-32.173,9.82c-.588.1-.79-.053-.79-.308a2.661,2.661,0,0,1,.8-1.345c.2-.2,1.109-1.081,1.109-1.626a.383.383,0,0,0-.285-.375c-1.065-.4-2.193,1.276-2.473,2.061a2.476,2.476,0,0,0-.125.818,6.465,6.465,0,0,0,.048.7c.023.227.048.447.048.658a1.366,1.366,0,0,1-.4,1.063c-1.272,1.223-2.258,2.594-3.4,3.925-1.042,1.214-2.392,2.08-3.523,3.2a43.874,43.874,0,0,0-2.719,3.548c-.834,1.017-.658,2.455-1.42,3.492-.658.9-1.022,2.466-1.855,3.15a1.8,1.8,0,0,1-.273-.959c0-.056,0-.114.009-.174a3,3,0,0,1-.039-.509,13.532,13.532,0,0,1,.107-1.376,13.785,13.785,0,0,0,.106-1.426m-1.07,14.79a.7.7,0,0,1-.09.352,1.4,1.4,0,0,1-2.443-.18,1.365,1.365,0,0,1-.067-.417c0-.9.94-1.6,1.693-1.953.025.621.906,1.491.906,2.2m-4.662-.445a3.965,3.965,0,0,0,.644,2.195,3.408,3.408,0,0,0,1.966,1.369c.987.232,1.5-1,2.441-1.066,1.635-.114,3.159-.741,4.68.224,2.024,1.279,3.374,3.37,5.51,4.636,1.95,1.154,4.03,2.08,6.054,3.087a41.662,41.662,0,0,0,6.179,2.013,31.4,31.4,0,0,0,5.225.78,16.766,16.766,0,0,0,2.863.146c.869-.037,2.207-.56,3.038-.3,1.054.326,3.055-.591,4.083-.88a50.88,50.88,0,0,0,6.95-2.851,25.92,25.92,0,0,0,9.426-7.7,4.728,4.728,0,0,0,.829-2.01c0-.345-.176-.568-.686-.477C5.168,38.033,4.5,38.964,3.586,39.4c-.216-.834-.954-1.512-1.818-1.007a2.707,2.707,0,0,0-.074.6,2.256,2.256,0,0,0,.053.472,1.809,1.809,0,0,1,.053.357c0,.271-.141.57-.755,1.2A18.763,18.763,0,0,1-6.811,45.9a31.274,31.274,0,0,1-8.56,1.577c-1.806.072-7.729.662-8.456-1.642-1.239,1.538-4.345-.1-4.345-1.711a1.542,1.542,0,0,1,.857-1.294.982.982,0,0,1,.333.794c0,.121-.012.245-.023.37s-.025.25-.025.373a1.116,1.116,0,0,0,.151.6c.577.942,1.022-.246,1.1-.73.412-2.517,1.406.644,1.672,1.022.533-.355.065-1.3.558-1.561,1.139-.6,2.517.35,3.351.942,1.153.817,4.189-2.758,5.116.165a1,1,0,0,0,.343-.7c.176-.658.706-.34,1.2-.523.755-.287,1.422-.845,2.212-1.137a4.506,4.506,0,0,1,2.008-.5c.517.09.132,1.98.47,2.406.642.8,1.165.2,1.413-.475.463-1.269.859-1.279,2.172-1.362a3.811,3.811,0,0,0,3.28-1.556c.759-.942,1.918.1,2.668-.649.371-.375.257-1.07.6-1.526a1.041,1.041,0,0,0,.151-.628c0-.136-.009-.275-.019-.408s-.019-.262-.019-.375c0-.04,0-.081,0-.118a6.808,6.808,0,0,1,.8-2.212c.218-.442,6.482,2.962,7.439,3.434a13.609,13.609,0,0,0,5.931.913c2.87-.313,5.535-.387,8.418-.433,1.146-.021,2.217-.63,3.367-.526,1.4.121,3.013-1.052,4.259-.771,1.614.366,2.026.18,3.594-.5a47.077,47.077,0,0,1,4.634-1.418c5.005-1.547,7.6-9.352,8.78-13.877.623-2.39,1.415-4.706,1.99-7.156a22.516,22.516,0,0,0,.854-4.43c0-.1.005-.192.005-.289,0-1.521-.336-3.078-.433-4.6-.187-3-.486-5.521-2.137-8.066A32.349,32.349,0,0,0,46.33-6.4c-1-1.144-2.372-1.821-3.4-2.918a19.738,19.738,0,0,0-7.421-5.41,21.77,21.77,0,0,0-3.926-1.424c-1.411-.178-2.928-.111-4.366-.243a27.738,27.738,0,0,0-8.662.936c-1.374.371-2.826.611-4.176,1.031-1.572.487-3.071,1.47-4.782,1.114-2.367-.491-4.236-2.564-6.818-2.223-1.244.16-1.572,1.123-1.572,2.316a15.561,15.561,0,0,0,.2,2.084A15.058,15.058,0,0,1,1.6-9.2a2.71,2.71,0,0,1-.067.653A20.822,20.822,0,0,1-.3-4.474C-.717-3.638-1.238-2-2.125-1.54c-1.614.81-4.453-1.888-5.883-2.492-5.387-2.29-12.963-2.645-18.44-.542-2.979,1.144-6.5,1.689-9.086,3.669a36.867,36.867,0,0,0-7.754,7.714,57.7,57.7,0,0,0-4.938,7.756,34.11,34.11,0,0,0-2.492,9.759,32.35,32.35,0,0,0-.846,4.822,3.1,3.1,0,0,0,.239,1.322c.352.744,1.494.236,1.594-.438a1.08,1.08,0,0,0,.011-.153,3.561,3.561,0,0,0-.074-.595,3.787,3.787,0,0,1-.072-.612.737.737,0,0,1,.459-.757,5.8,5.8,0,0,1,.211,1.7c0,.3-.012.607-.025.91s-.023.607-.023.906a6.939,6.939,0,0,0,.062,1,3.233,3.233,0,0,1,.067.639c0,1.765-1.672,2.476-2.967,3.47a2.641,2.641,0,0,0-.9,2.151" transform="translate(52.987 16.45)" fill="#d5beb1"/>
</svg>
