<svg xmlns="http://www.w3.org/2000/svg" xmlns:xlink="http://www.w3.org/1999/xlink" width="410.026" height="410.399" viewBox="0 0 410.026 410.399">
  <defs>
    <clipPath id="clip-path">
      <path id="Tracé_1110" data-name="Tracé 1110" d="M0,172.894H410.026v-410.4H0Z" transform="translate(0 237.505)" fill="#9d574a"/>
    </clipPath>
    <clipPath id="clip-path-2">
      <rect id="Rectangle_2211" data-name="Rectangle 2211" width="624.837" height="610.368" fill="#9d574a"/>
    </clipPath>
  </defs>
  <g id="Groupe_1528" data-name="Groupe 1528" transform="translate(0 237.505)">
    <g id="Groupe_1527" data-name="Groupe 1527" transform="translate(0 -237.505)" clip-path="url(#clip-path)">
      <g id="Groupe_1526" data-name="Groupe 1526" transform="translate(-100.62 -95.598)" opacity="0.4">
        <g id="Groupe_1525" data-name="Groupe 1525">
          <g id="Groupe_1524" data-name="Groupe 1524" clip-path="url(#clip-path-2)">
            <g id="Groupe_1494" data-name="Groupe 1494" transform="translate(210.806 138.278)">
              <path id="Tracé_1080" data-name="Tracé 1080" d="M8.212,3.884c3.791-2.345,12.4-4.035,15.04-7.5C19.229-9.583-.039,1.667-4.105,4.271c-1.944,1.234-11.394,8.3-4.966,9.856C-4.14,15.334,4.339,6.284,8.212,3.884" transform="translate(11.281 5.336)" fill="#9d574a"/>
            </g>
            <g id="Groupe_1495" data-name="Groupe 1495" transform="translate(133.165 122.854)">
              <path id="Tracé_1081" data-name="Tracé 1081" d="M1.491,93.189c-4.671.551-2.49,6.639,1.078,7.292,4.84.885,4.178,9.093,4.532,12.619.657,6.506,3.478,12.414,3.067,19.092-.361,5.782-1.083,9.962,4.023,12.882,13.478,8.821,5.058-2.312,2.43-11.389-1.139-3.941-8.3-24.124-3.117-26.764,2.784,1.8,4.242,6.407,8.26,6.207,2.454-3.681-1.419-10.221-2.544-13.761-1.519-4.733-1.6-11.375-1.3-16.322a158.924,158.924,0,0,1,4.93-31.86C30.929,19.776,47.709-9.722,71.042-32.07,80.45-41.084,86.887-51.1,98.813-57.778c9.766-5.464,20.1-16.516,28.325-24.159a129.736,129.736,0,0,1,34.115-21.993c5.108-2.174,11.284-3.9,16.879-3.5,1.949.137,6.082,2.169,8.724,2.417-1.868-1.308,1.982-9.754,3.231-6.689-2.386-5.815-12.472.7-15.647-4.945,4.318-3.724,10.484-1.277,15.5-1.766,7.019-.717,14.515-3.264,21.359-3.487,2-.04,10.387,4.233,8.673-1.255-1.436-4.531-8.807-4.646-12.531-4.729-25.078-.477-54.284-.444-75.006,15.025-2.984,2.2-10.231,1.564-11.957,3.859,2.963,2.813-3.852,6.63-5.569,7.645C104.372-95.1,93.8-90.046,83.685-82.847c-6.939,4.973-14.347,10.105-20.177,16.383-6.58,7.119-10.38,12.7-15.514,20.668-3.359,5.225-6.677,10.344-10.926,14.9-6.442,6.91-3.969,1.389-8.959-.544-.073,1.059-3.5,8.242-4.062,9.305-1.685,3.124,1.648,6.272-.337,9.955C17.62-.806,12.932,8.71,9.295,21.342,5.486,34.623,1.258,47.569-.6,61.32c-.788,5.675-3.741,28.071,2.093,31.869M14.847,19.773C13.794,12.989,23.295.3,27.106-5.117,33.23-13.731,38.54-23.112,45.129-31.9c8.194-10.983,15.6-22.788,26.042-31.85C82.235-73.28,95.214-80.16,107.23-88.306c10.575-7.162,23.246-13.689,34.582-19.654,6.295-3.312,18.194-10.261,25.1-4.954-1.5,3.869-7.287,2.371-10.11,4.311-4.816,3.29-10.566,5.175-14.859,9.172-4.152,3.888-9.568,5.618-14.147,8.851-2.436,1.763-10.935,7.693-12.319,10.186-3.909,7.1-14.3,9.4-19.44,15.709C86.8-53.332,74.9-43.618,64-33.846,45.73-17.532,37.851,8.228,25.747,29.273c-5.628,9.747-11.413,19.4-12.9,30.718-1.363,10.335,1.32,24.845-3.871,34.141-4.66-2.293-2.252-7.7-2.991-11.657C4,71.767,4.679,61.931,7.316,51.3c2-8.007,8.787-23.461,7.53-31.53" transform="translate(2.048 128.013)" fill="#9d574a"/>
            </g>
            <g id="Groupe_1496" data-name="Groupe 1496" transform="translate(124.3 284.636)">
              <path id="Tracé_1082" data-name="Tracé 1082" d="M3.025,1.586C2.712-.074,3.3-1.742,1.131-2.179-13.228,5.028,6.607,22.275,3.025,1.586" transform="translate(4.156 2.179)" fill="#9d574a"/>
            </g>
            <g id="Groupe_1497" data-name="Groupe 1497" transform="translate(119.009 332.265)">
              <path id="Tracé_1083" data-name="Tracé 1083" d="M.409,2.436C.1,8.977-1.8,16.9.737,23.2a5.353,5.353,0,0,0,6.184,3.458c2.912-3.043-1.23-5.688-1.845-8.453C3.784,12.858,1.848,6.756,2.583,1.415,3.639-6.07.672-3.966.409,2.436" transform="translate(0.562 3.347)" fill="#9d574a"/>
            </g>
            <g id="Groupe_1498" data-name="Groupe 1498" transform="translate(195.138 230.101)">
              <path id="Tracé_1084" data-name="Tracé 1084" d="M5.121.51C.672-2.4-6.245.2-6.955,5.567-8.174,15.6,4.986,5.208,5.121.51" transform="translate(7.035 0.7)" fill="#9d574a"/>
            </g>
            <g id="Groupe_1499" data-name="Groupe 1499" transform="translate(246.405 186.596)">
              <path id="Tracé_1085" data-name="Tracé 1085" d="M7.532.72C4.113-5.171-11.791,5.6-10.241,11.335-8.627,17.447,8.479,5.335,7.532.72" transform="translate(10.347 0.989)" fill="#9d574a"/>
            </g>
            <g id="Groupe_1500" data-name="Groupe 1500" transform="translate(124.136 366.981)">
              <path id="Tracé_1086" data-name="Tracé 1086" d="M2.1,5.779C3.658,4.431,11.149-4.6,7.757-6.426c-1.149.854-2.492,5.78-4.705,4.7C.443-3.295,2.513-6.62-.516-7.938-4.1-2.806-3.91,4.113,2.1,5.779" transform="translate(2.884 7.938)" fill="#9d574a"/>
            </g>
            <g id="Groupe_1501" data-name="Groupe 1501" transform="translate(163.184 147.169)">
              <path id="Tracé_1087" data-name="Tracé 1087" d="M66.455,8.732C58.9,13.126,51.058,15.3,43.629,20.04c-11.641,7.437-23.54,15.166-33.41,24.926-7.964,7.9-18.031,14.385-25.482,22.529-7.892,8.631-15.32,17.534-23.486,26.115s-16.635,17.8-22.965,27.858c-5.059,8.007-11.57,20.957-13.328,30.177-3.428,17.784-6.145,35.245-9.276,53A65.052,65.052,0,0,1-87.2,216.118c-1.042,2.946-5.842,2.893-3.4,7.026,5.721,9.689,11.17,3.789,12.023-4.334,2.414-23.037,4.175-47.248,12.293-69.12a127.6,127.6,0,0,1,16.258-30.34c3.458-4.781,12.863-20.181,20.119-20.1-5.12,12.529-15.474,22.982-22,34.886a197.658,197.658,0,0,0-14.461,33.973c-2.117,6.374-2.483,14.14.937,20.186.67,1.185,8.239,13.767,10.024,10.558-1.4-4.427-5.066-7.594-6.758-11.892-1.934-4.985-.128-10.871.8-15.873,2.34-12.725,7.43-22.643,13.789-33.832,15.889-27.846,33.464-50.244,59.549-69.215,24.048-17.458,46.145-43.33,74.14-54.5C105.284,5.9,126.347-.882,145.383,9.891c4.553-5.149-7.622-8.092-8.439-12.2,5.82-4.392,14.347.807,19.348-5.429-6.368-6.855-19.206-3.541-27.253-2.856-20.525,1.7-44.7,8.985-62.583,19.326M11.3,58.489c2.7-7.183,28.212-33.673,38-30.246-12.77,9.925-24.193,21.722-38,30.246" transform="translate(91.29 11.995)" fill="#9d574a"/>
            </g>
            <g id="Groupe_1502" data-name="Groupe 1502" transform="translate(272.024 178.332)">
              <path id="Tracé_1088" data-name="Tracé 1088" d="M0,1.2C.518,7.055,7.81,2.909,11.263.29,9.412-3.012,3.135-1.677,0,1.2" transform="translate(0 1.647)" fill="#9d574a"/>
            </g>
            <g id="Groupe_1503" data-name="Groupe 1503" transform="translate(300.739 149.137)">
              <path id="Tracé_1089" data-name="Tracé 1089" d="M.029,1.3c.769,4.325,7.79,3.921,8.076.214C8.358-1.729-.922-3.825.029,1.3" transform="translate(0.04 1.788)" fill="#9d574a"/>
            </g>
            <g id="Groupe_1504" data-name="Groupe 1504" transform="translate(317.445 153.59)">
              <path id="Tracé_1090" data-name="Tracé 1090" d="M2.727,2.293c3.4-4.729-7.472-8.191-6.4-2.445.5,2.7,4.382,5.284,6.4,2.445" transform="translate(3.746 3.15)" fill="#9d574a"/>
            </g>
            <g id="Groupe_1505" data-name="Groupe 1505" transform="translate(201.701 330.379)">
              <path id="Tracé_1091" data-name="Tracé 1091" d="M.966,4.284C2.913.652,4.249-2.892,1.541-5.885-2.119-4.34-2.236,1.583.966,4.284" transform="translate(1.326 5.885)" fill="#9d574a"/>
            </g>
            <g id="Groupe_1506" data-name="Groupe 1506" transform="translate(210.985 318.059)">
              <path id="Tracé_1092" data-name="Tracé 1092" d="M4.585.766C-.962-5.258-5.366,5.253-6.057,9.575c-.32,1.987-.8,6.679,2.153,7.162C.856,13.131,1.988,5.782,4.585.766" transform="translate(6.299 1.052)" fill="#9d574a"/>
            </g>
            <g id="Groupe_1507" data-name="Groupe 1507" transform="translate(254.527 265.383)">
              <path id="Tracé_1093" data-name="Tracé 1093" d="M2.018,4.59C1.309,1.013,1.551-3.723-1.546-6.305-3.355-3.9-2.748,9.012-2.309,12.271c.328,2.315,4.14,4.206,5.873,2.11C5.931,11.591,2.57,7.389,2.018,4.59" transform="translate(2.771 6.305)" fill="#9d574a"/>
            </g>
            <g id="Groupe_1508" data-name="Groupe 1508" transform="translate(236.22 295.006)">
              <path id="Tracé_1094" data-name="Tracé 1094" d="M1.8.035c-3.8-.866-5.51,5.307-3.29,7.6C1.223,10.492,9.16,1.621,1.8.035" transform="translate(2.475 0.048)" fill="#9d574a"/>
            </g>
            <g id="Groupe_1509" data-name="Groupe 1509" transform="translate(275.68 250.38)">
              <path id="Tracé_1095" data-name="Tracé 1095" d="M4.283,0C.858,2.735-2.484,5.73-5.883,8.8-1.84,18.9,10.79,2.041,4.283,0" transform="translate(5.883)" fill="#9d574a"/>
            </g>
            <g id="Groupe_1510" data-name="Groupe 1510" transform="translate(177.389 392.978)">
              <path id="Tracé_1096" data-name="Tracé 1096" d="M.009,2.424c.278,3.06,4.2,7.765,7.646,7.309,2.4-.308-.114-5.122,3.057-5.706C17.527,2.8,28.1,15.335,32.185,11.924,33.619-2.712-.968-8.694.009,2.424" transform="translate(0.012 3.33)" fill="#9d574a"/>
            </g>
            <g id="Groupe_1511" data-name="Groupe 1511" transform="translate(155.141 412.638)">
              <path id="Tracé_1097" data-name="Tracé 1097" d="M13.1,8.588C4.275,6.507-3.445-.935-12.446,5.146c-8.743,5.923-6.689,13.343,2.925,16.293C1.293,24.762,6.888,39.451,18.365,40.6c8.707.88,10.325-13.561,11.883-19.3,2.582-9.462-6.552-4.32-5.955-14,.313-5.016,19.35-13.746,2.64-13.438-4.268.071-3.138-4.135-7.562-5.156-4.46-1.026-8.9-.632-12.417,2.6C-3.652.978,21.071-2.385,13.1,8.588M7.648,25.712c-1.759-2.336-1.348-6.52-4.042-8.13-2.5-1.509-5.815-.368-8.527-.964-8.146-1.787-1.966-10.477,6.914-4.37C9.2,17.2,14.261,22.6,21.717,26.837c-3.651,6.547-9.027,5.592-14.069-1.125" transform="translate(17.993 11.797)" fill="#9d574a"/>
            </g>
            <g id="Groupe_1512" data-name="Groupe 1512" transform="translate(304.484 233.85)">
              <path id="Tracé_1098" data-name="Tracé 1098" d="M4.364,3.248c-.2-3.37-5.346-5.46-7.168-7.71C-13.071,6.6,4.755,12.913,4.364,3.248" transform="translate(5.995 4.462)" fill="#9d574a"/>
            </g>
            <g id="Groupe_1513" data-name="Groupe 1513" transform="translate(335.667 208.444)">
              <path id="Tracé_1099" data-name="Tracé 1099" d="M4.51.347C1.315-1.583-9.167-.208-5.383,5.406-.814,12.627,8.87,2.96,4.51.347" transform="translate(6.195 0.476)" fill="#9d574a"/>
            </g>
            <g id="Groupe_1514" data-name="Groupe 1514" transform="translate(223.43 160.524)">
              <path id="Tracé_1100" data-name="Tracé 1100" d="M85.426.052C80.353-1.614,76.2,14.2,74.274,17.281,67.963,27.473,57.808,34.932,49.032,42.82,27.785,61.952,6.33,81.515-10.291,104.9c-7.638,10.736-14.866,21.859-24.166,31.248-11.024,11.138-24.793,19.434-36.821,29.467-9.715,8.121-17.205,21-28.368,27.174-4.3,2.371-9.227,3.216-13.532,5.566-8.213,4.486-2.915,7.568,3.985,5.452,12.555-3.878,20.177-12.3,28.809-21.608,8.833-9.545,20.293-18.327,31.283-25.159C-25.319,142.335-12.47,115.31,5.755,94.981,23.472,75.227,44.268,57.942,63.623,40c1.842-1.7,33.505-36.04,21.8-39.952" transform="translate(117.35 0.071)" fill="#9d574a"/>
            </g>
            <g id="Groupe_1515" data-name="Groupe 1515" transform="translate(210.515 186.596)">
              <path id="Tracé_1101" data-name="Tracé 1101" d="M71.641,31.791c4.3-11.1,18.375-17.541,24.147-28.237,4.7-8.648,14.169-16.075,20.594-23.431,2.433-2.8,18.978-19.253,15.166-23.74-1.538-1.8-39.581,40.827-42.769,45.222C74.656,21.076,58.06,43.215,39.692,58.772,31.861,65.4,26.479,74.279,18.05,80.3,8.779,86.92-4.91,92.719-12.577,100.976c-5.35,5.74-16.376,10.96-23.246,14.544C-43.6,119.555-51.008,127.1-59.2,129.971c-7.893,2.735-14.905,10.195-22.187,14.795-2.355,1.471-25.328,14.015-13.824,19.849,2.245-8.443,13.255-5.792,17.205-12.115,4.97-7.94,11.334-11.083,19.16-16.172,9-5.889,19.307-10.205,27.92-16.578,6.279-4.669,15.211-7.308,20.621-12.222,2.668-2.407,4.394-4.235,7.94-5.395,3.943-1.274,4.662-5.087,8.165-6.319,7.553-2.621,11.367-11.332,18.156-13.354,1.671-.482,4.783-5.172,6.271-6.319,5.132-3.971,9.372-9.12,14-13.644,5.68-5.531,10.589-15.546,19.153-15.044C70.146,47.806,70,36,71.641,31.791" transform="translate(98.413 43.672)" fill="#9d574a"/>
            </g>
            <g id="Groupe_1516" data-name="Groupe 1516" transform="translate(386.148 221.119)">
              <path id="Tracé_1102" data-name="Tracé 1102" d="M.683.012C-2.852-.478.206,5.374,2.18,1.137L.683.012" transform="translate(0.939 0.017)" fill="#9d574a"/>
            </g>
            <g id="Groupe_1517" data-name="Groupe 1517" transform="translate(238.161 438.365)">
              <path id="Tracé_1103" data-name="Tracé 1103" d="M.215,0C.842,3.009-1.214,6.423.231,9.383.989,6.554,3.939-.071.215,0" transform="translate(0.296 0)" fill="#9d574a"/>
            </g>
            <g id="Groupe_1518" data-name="Groupe 1518" transform="translate(259.579 429.89)">
              <path id="Tracé_1104" data-name="Tracé 1104" d="M.222,1.425c.817-1.242,2.084-2.512.2-3.383a2.618,2.618,0,0,0-.2,3.383" transform="translate(0.304 1.958)" fill="#9d574a"/>
            </g>
            <g id="Groupe_1519" data-name="Groupe 1519" transform="translate(368.322 311.611)">
              <path id="Tracé_1105" data-name="Tracé 1105" d="M0,3.785C5.135,8.952,11.392.262,12.965-4.119,8.051-7.968,1.6-.635,0,3.785" transform="translate(0 5.2)" fill="#9d574a"/>
            </g>
            <g id="Groupe_1520" data-name="Groupe 1520" transform="translate(405.054 323.075)">
              <path id="Tracé_1106" data-name="Tracé 1106" d="M.272,6.322C4.7,3.7,7.764-4.581,6.9-8.685,3.812-8.156-2.382,3.881.272,6.322" transform="translate(0.373 8.685)" fill="#9d574a"/>
            </g>
            <g id="Groupe_1521" data-name="Groupe 1521" transform="translate(442.268 257.881)">
              <path id="Tracé_1107" data-name="Tracé 1107" d="M.008,29.211C-.419,36.325,6.448,30.3,7.649,27.3,13.172,13.433,17.1-1.9,20.158-16.514c1.178-5.6,8.054-19.03,2.4-23.613-2.58,2.239-4.864,11.2-6.044,14.276C11.489-12.407,9.742,1.894,5.209,15.432,3.737,19.832.3,24.511.008,29.211" transform="translate(0.011 40.127)" fill="#9d574a"/>
            </g>
            <g id="Groupe_1522" data-name="Groupe 1522" transform="translate(385.991 420.434)">
              <path id="Tracé_1108" data-name="Tracé 1108" d="M1.066,0C.461,2.571-3.821,9.153.322,8.833-1.041,6.129,2.814,2.661,1.066,0" transform="translate(1.464)" fill="#9d574a"/>
            </g>
            <g id="Groupe_1523" data-name="Groupe 1523" transform="translate(100.62 95.598)">
              <path id="Tracé_1109" data-name="Tracé 1109" d="M161.49,5.56c-5.1-.223-13.5,3.577-18.453,4.816-5.17,1.267-13.067,9.466-17.8,8.052-7.358-2.208-12.312-6.634-20.516-7.2-9.772-.688-20.416.568-30.206,1.077C58.97,13.142,49.622,2.253,35.05-.618,27.438-2.1,20.488-2.619,13.336-6.2,6.787-9.479-2.637-6.29-9.214-5.124-26.448-2.088-41.44,2.068-57.014,9.339a156.266,156.266,0,0,1-23.822,8.686c-9.844,2.654-17.027,8.367-26.339,12.084-38.321,15.3-58.315,54.585-79.239,87.079-19.925,30.958-39.988,75.947-34.507,113.641,2.54,17.352,7.923,33.987,11.413,50.956,2.089,10.1,7.477,29.533,15.51,36.507,6.547,5.682,7.788-2.775,4.869-7.467-3.5-5.635-3.762-11.826-6.52-17.822a165.846,165.846,0,0,1-14.026-45.677c-3.185-19.379-5.566-36.08-.51-55.433,5.049-19.32,11.786-40.493,21.309-58.049,7.149-13.1,17.468-26.521,25.588-39.61,10.114-16.213,25.239-35.143,41.234-45.886,14.328-9.613,32.254-19.177,48.718-24.411,3.435-1.089,6.463.755,9.677.009,1.942-.454,2.587-3.442,4.225-4.477,5.908-3.6,18.465-6.076,25.313-7.684,36.738-8.7,70.228,4.4,104.393,16.841,5.372,1.968,11.481,4.646,17.349,3.979,7.088-.805,2.951-3.95-1.1-5.16-2.514-.759-10.1-1.989-9.246-6.088,1.134-5.379,11.885-2.412,15.408-1.852,18.218,2.875,14.479,23.647,28.857,29.218,8.03,3.107,4.481-6.978,4.016-10.566-.966-7.833,9.036-11.192,13.592-5.384,4.6,5.856,8.923.828,4.152-3.655-3.307-3.109-8.889-6.718-2.277-10.065,11.036-5.567,16.429-1.1,14.831,10.48-1.334,9.7-4.956,18.8-7.313,28.276-3.409,13.6,8.251,34.9,13.1,47.17,6.819,17.188,7.475,35.8,13.409,53.1,3.23,9.417,2.08,17.96,3.1,27.67,1.113,10.675,1.778,21.014.161,31.686-4.151,27.551-15.648,54.591-28.6,79.1a167.661,167.661,0,0,1-27.029,37.784c-6.984,7.323-17.416,21.465-28.064,23.163-.327-2.684,3.385-5.6-.392-7.378-4.308,1.761-5.605,7.226-7.475,10.936-4.583,9.01-16.239,9.348-24.191,13.386-10,5.075-20.741,7.078-31.832,9.889-13.177,3.352-24.848,7.114-38.513,8.051-4.482.3-64.017,3.546-59.471-5.26,5.5-10.665,18.9,1.553,23.9-1.519,3.822-2.359,8.842-3.038,13.255-3.039,8.028.019,1.975,7.086,6.73,9.645,2.134,1.156,2.333-8.768,2.635-9.379,2.233-4.843,10.4-4.543,14.809-4.978,5.108-.536,4.724,6.831,12.274,5.827,7.916-1.08,15.486-5,22.393-8.785,5.364-2.957,8.391-10.207,14.266-11.631,7.938-1.94,16.239-7.53,23.516-11.239,16.338-8.337,32.567-20.972,45.625-33.882,13.236-13.069,20.457-29.719,30.511-45.044,9.122-13.877,10.378-30.227,18.15-44.493,6.941-12.744,8.451-32.261,8.163-46.531-.076-3.691,1.574-6.979.829-10.663-.558-2.841-2.122-5.538-1.9-8.489.356-4.866,4.08-12.16-1.1-15.783-5.856,10.5,1.631,25.159-4.164,36.869-1.887-24.922-.617-52.017-13.791-74.646-5.186-8.894-13.722-8.5-7.387,2.141,8.083,13.609,10.432,27.634,14.257,42.592,6.779,26.545,4.408,52.271-4.358,77.755a261.078,261.078,0,0,1-16.07,37.39c-6.024,11.443-11.064,26.569-22.963,33.363-.361-4.977-.46-12.116,2.621-16.321,1.213-1.666,15.617-11.379,10.494-14.563-6-3.729-3.948-2.694-2.919-9.651,1.213-8.265-6.952-2.257-8.239,2.34-1.657,6-2.281,12.282-7.359,16.626-8.676,7.416,3.679,5.574,2.405,11.372-2.029,9.193-.781,21.667-10.63,26.875-5.514,2.924.518-7.5-1.415-9.182-4.368.228-2.7,7.648-6.955,7.7-4.655-4.144,3.478-22.294,5.072-26.856,4.164-11.9,7.456-25.144,16.644-34.148,10.744-10.532,19.991-23.592,27.1-36.816,2.538-4.728,14.947-29.683,8.272-34.464-2.476,4.075-2.45,8.973-4.159,13.329-2.433,6.2-6.1,11.755-9.709,17.281-6.666,10.276-14.874,19.588-21.444,29.759-3.644,5.656-11.755,11.1-16.794,16.037-1.818,1.8-10.611,9.965-13.392,8.989-2.627-.919-.893-5.9-4.534-6.335-3.23,4.484-2.049,10.681-5.811,14.8-5.132,5.63-12.087,8.757-17.661,13.706-4.322,3.855-3.169-3.5-2.741-5.574,1.147-5.737,3.342-11.719-2.915-15.445-5.424,8.749.878,17.661-3.855,25.857-3.717,6.4-14.587,13.751-22.3,12.115-.007-12.773,7.556-25.538,10.364-37.8,3.466-14.924-11.349-.484-16.507,1.495-4.228,1.626-6.119,8.562.05,7.418,1.965-.358,8.007-6.241,9.544-3.35,3.53,6.732-3.992,25.522-6.069,31.378-3.164,8.965-13.1,7.33-20.266,6.108-1.154-.2-7.074-.769-7.176-2.739-.156-2.83,1.854-13.091-3.53-12.941-7.181.206,4.076,13.333-9.3,11.128-6.117-1-13.412-2.544-19.624-1.629-4.258.626-11.517,5.559-15.329,1.229,7.366-11.154,21.89-8.4,32.337-13.549,4.209-2.07,6.587-7.232,8.125-11.386,2.855-7.693,9.347-13.006,16.291-16.924,13.447-7.582,28.207-11.4,39.816-22.121,13.07-12.044,23.383-25.688,34.744-39.171,12.612-15.018,25.043-27.17,32.109-45.95,3.143-8.337,8.441-15.754,11.4-24.21.66-1.864,1.97-5.605-1.816-3.843-4.527,2.1,1.016-12.471,1.811-14.646,3.176-8.8,7.878-17.758,9.265-27.082,1.852-12.389-7.356-3.772-9.652,1.648-5.626,13.226-6.388,27.957-10.848,41.685-2.362,7.223-4.481,15-6.335,22.353-2.2,8.851-8.593,14.449-14.907,20.851-9.846,9.956-17.874,21.786-25.233,33.785-10.347,16.86-23.889,27.609-40.217,38.3-12.123,7.952-26.491,16.735-40.433,21-8.382,2.583-17.095,4.408-24.877,8.633-2.162,1.187-4.678,3.318-7.363,2.941-1.771-.238-4.234-4.081-5.9-1.7-3.869,5.564-6.162,19.967-16.485,18.767-6.152-.7,5.263-21.657-.985-24.926-5.557,5.526-1.158,15.8-7.781,20.485-8.1,5.742-21.615-1.681-28.717,6.16,2.931,5.657,18.062,2.875,23.125,2.112,2.075-.373,8.353-4.672,6.981.973-.508,2.155,1.923,5.936-.3,7.131-5.194,2.753-12.77.185-18.325.225-1.324.021-3.6,21.154-1.355,23.053,1.709-2.328.688-5.281,1.033-7.871.631-4.526,5.929-4.876,9.189-6.1,11.209-4.266,5.12,5.6,9.31,9.846,2.279-3.421.981-9.723,5.31-11.586,2.817-1.2,7.333-1.187,10.314-.762,4.752.664,2.825,3.413,5.64,5.977,2.36-1.9.176-5.586,3.791-6.5,3.23-.817,8.617-1.491,11.717.254,4.892,2.737,2.824,12.194,2.371,16.715-.676,6.694-1.543,12.6-9.153,13.091-2.385.161-7.784,1.137-9.931-.4-2.184-1.562-.18-5.267-2.568-7.18.047-.06-7.256,12.721-6.571,7.187.755-6.15-13.169.43-15.177,2.689-5.409,6.1.048,12.04-10.807,7.105-8.935-4.061-.657-11.544-6.171-15.529-1.906,1.652.418,6.091-2.409,6.76-1.628.375-5.7.5-6.053,2.887-.441,2.87,3.364,5.5,4.944,7.268,2.295,2.582,1.206,5.279,2.39,8.2,5.044,12.379,41.335,7.517,35.155,23.431-1.429,3.668-37.865-7.567-42.511-9.046-1.407-.415-21.161-6.8-18.389-.076.181.406,16.191,8.69,8.557,8.849-2.891.054-4.617-2.689-8.051-2.379-3.862.358-7.612-.938-11.123-2.347-8.03-3.185-13.52-8.248-18.945-14.743-5.042-6.017-10.762-11.757-14.107-19a37.13,37.13,0,0,1-3.354-10.134c-.591-4.621,4.042-6.157,1.852-10.985-2.243-4.885-12.389-9.153-12.854-.719-.359,6.506,3.333,16.5,5.6,22.536,5.206,13.85,25.477,34.936,40.166,38.089,5.438,1.156,14.537,4.09,19.885,3.309,2.817-.423,5.4.816,8.045,1.555,3.4.988,6.7-1.173,10.471-.116,17.077,4.811,37.352,6.38,55.141,7.335,17.38.9,35.276-.94,52.594-2.06,7.805-.517,14.159-5.073,21.959-5.635,4.05-.273,3.154-1.339,5.977-2.808,1.866-.98,7.959.005,10.494-.665,30.139-8,68.982-24.881,87.355-51.227,9.466-13.559,22.75-26.3,29.6-41.571,8.757-19.578,18.192-40.287,23.53-61.1C193.846,195,187.089,143.23,168.74,103.927c-8.794-19-15.488-43.087-8.066-63.356,1.816-4.961-.893-8.733.294-13.4.727-2.813,1.991-5.533,2.986-8.26,1.412-3.957,4.738-13.11-2.464-13.348M117.463,26.586c-.527-2.777-3.432-4.161-2.794-5.631,2.21-5.073,12.256,3.119,2.794,5.631M-44.829,287.962c3.4-1.84,22.816-13.424,26.9-9.2-2.129,2.521-2.642,3.774.759,5.275-.287.173-11.361,12.835-11.5,7.828-.016-.968,2.962-2.772,1.344-3.712-2.538-.62-2.618,2.989-4.132,3.941-4.237.078-5.345.669-8.783,3.219-4.235,3.141-10.782,9.153-16.623,7.107.788-7.959,5.578-10.957,12.035-14.46M-76.983,312c-3.363-9.086,7.37-7.054,12.536-9.982,1.085-.612,5.552-2.191,6.264-.074,1.552,4.562-6.24,4.249-8.094,5.161-3.034,1.545-8.17,2.82-10.706,4.9M10.64,360.606c.553-9.072,10.083-2.457,13.839-.591-1.833,2.566-14.161,6.243-13.839.591m57.51-61.826c1.83,2.761-1.707,5.96.579,8.635,1.84-2.97,3.25-15.184,7.74-15.286,5.789-.121,8.909-9.31,14.073-10.623.937.7.861,14.233.171,15.412-3.354,5.97-8.123,17.145-7.5,24.112.546,6.288,3.109,8.564-3.055,12.794-2.823,1.939-9.683,8.106-13.533,6.114C71.853,333.675,77,327.272,82.8,321.523c-4.392-3.3-17.439,17.23-19.379,10.15-3.451,3.5-16.245,29.567-25.591,23.092,7.695-4.683,3.862-10.492,3.769-16.81-.137-9.276,2.279-18.256,7.764-25.085,4.524-5.815,11.992-8.477,18.786-14.091M33.164,350.065c-1.462-1.586,2.45-3.936,3.166-5.822,2.184,1.662-1.393,5.593-3.166,5.822m-8.45-26.319c4.135-2.125,8.344-4.349,12.846-5.612,8.282-2.345,3.046,8.106,2.853,12.88-.159,4.057-8.643,11.659-12.277,13.38-4.429,2.1-11.6,14.083-16.618,4.709-3.748,4.933-.384,12.46-5.7,16.524-4.081,3.121-12.222,3.561-17.185,4.166-7.349.842-9.424,3.812-8.054-5.7,1.37-9.747,3.86-9.867,11.1-14.848,6.732-4.624,19.785-.067,23.682-5.823,2.609-3.838,4.909-2.637,8.661-3.525,4.8-1.139,10.563-6.236,12.923-10.5-2.573-3.124-12.478,3.254-14.914,4.469-10.592,5.315-2.946-7.251,2.687-10.122M-4.08,343.259c-1.229-.964,13.888-11.311,17.3-10.5-2.466,7.907-11.249,7.28-17.3,10.5m-4.306-25.548c8.747,6.336,15.857,1.237,24.266,5.272C7.865,331-3.389,334.076-12.538,340.435c-2.69-4.268.88-19.408,4.152-22.724M-39.04,333.463c.741-5.612,1.764-17.1,8.84-18.052,9.789-1.389,18.667,1.087,15.078,12.562-3.38,10.732-3.2,15.788-14.413,19.075-12.581,3.7-10.763-4.068-9.506-13.585m-16.378,21.795c.693-2.9,8.23-2.07,9.416-.009,3.508,6.188-7.517,3.9-9.416.009m12.984,6.205c.9-9.88,6.357-5.55,14.5-8.077,9.794-3.007,7.541,7.266,6.464,13.115-1.581,8.806-9.9,8.647-17.039,8.491-9.81-.09-4.61-6.49-3.926-13.53M-82.3,359.752a4.767,4.767,0,0,1,4.925.3c3.613.959,4.436-3.461,7.487-3.783,2.924-.3.8,7.2.354,8.365-3.527-3-10.572-.349-12.766-4.887m-.752,8.844c1.2-4.249,11.468-2.43,14.816-2.1,4.432.441,4.531-1.847,3.907-5.459-.814-4.633,8.54-1.078,10.456-.458,5.414,1.705,8.951,8.873,5.21,13.85-4.436,4.964-18.014,1.476-18.22-5.472-3.433-.316-1.31,3.819-3.027,5.222-3.3,2.63-11.788-2.575-13.141-5.581m-12.426-2.271c2.35-3.076,7.942-1.061,9.022,2.075-2.782.9-5.716.487-9.022-2.075" transform="translate(221.838 7.638)" fill="#9d574a"/>
            </g>
          </g>
        </g>
      </g>
    </g>
  </g>
</svg>
