<svg id="Groupe_1784" data-name="Groupe 1784" xmlns="http://www.w3.org/2000/svg" xmlns:xlink="http://www.w3.org/1999/xlink" width="300.016" height="247.729" viewBox="0 0 300.016 247.729">
  <defs>
    <clipPath id="clip-path">
      <rect id="Rectangle_2214" data-name="Rectangle 2214" width="300.016" height="247.729" fill="none"/>
    </clipPath>
  </defs>
  <g id="Groupe_1783" data-name="Groupe 1783" clip-path="url(#clip-path)">
    <path id="Tracé_1363" data-name="Tracé 1363" d="M250.413,113.936q-5.6,10.477-17.52,21.855t-18.6,10.295a13.747,13.747,0,0,1-10.385-5.147,24.381,24.381,0,0,1-4.967-12.011,149.574,149.574,0,0,1-1.445-15.985,158.231,158.231,0,0,1,.18-16.978,107.407,107.407,0,0,0,0-15.262q0-2.709.181-8.76t.271-11.108q.089-5.055.271-12.011t.451-12.553q.271-5.6.451-11.65t.542-10.476q.36-4.423.722-8.037a28.934,28.934,0,0,1,.813-5.058c.3-.962.632-1.264.994-.9a13.191,13.191,0,0,1,7.5,6.411,20.554,20.554,0,0,1,2.438,9.754q0,5.148.09,10.566t.09,8.85q.36,6.324.18,14.72t-.542,18.423q-.364,10.025-.9,20.049t-.9,19.506q-.364,9.483-.451,16.8a114.459,114.459,0,0,0,.361,12.011q.449,4.7,1.355,5.238,6.32-1.808,20.049-15.353,1.261-1.26,5.6-6.5,10.295-12.281,12.462-11.56,1.443.364.723,4.877" transform="translate(-112.35 0)" fill="#aa5246"/>
    <path id="Tracé_1364" data-name="Tracé 1364" d="M297.131,181.086q-10.477.906-14.269-14.088-3.974-15.532.542-33.414,3.971-15.891,11.379-17.159a8.077,8.077,0,0,1,5.418,1.445q12.822,3.251,13,24.2.178,10.477.361,11.017.542,1.266,1.806.361,9.753-5.96,13.185-3.612,2.345,1.625-1.265,4.876-4.876,4.335-14.81,4.7a32.484,32.484,0,0,0-.9,3.522q-.724,3.162-1.084,4.335t-1.355,4.064a16.674,16.674,0,0,1-1.987,4.244q-.995,1.355-2.438,2.98a7.627,7.627,0,0,1-3.432,2.258,8.719,8.719,0,0,1-4.154.271m-2.89-8.489q1.443-2.709,2.89-5.78,1.8-4.334,2.439-6.412a5.184,5.184,0,0,0,.18-3.251,2.792,2.792,0,0,0-1.445-1.625,19.641,19.641,0,0,1-3.071-1.987,17.925,17.925,0,0,1-3.7-3.7,62.88,62.88,0,0,0,.542,11.65q.9,8.4,2.167,11.108m7.766-22.216q1.985-2.887.361-16.8-1.266-11.921-3.613-11.018-.906.364-1.806,2.529-2.167,6.143.9,18.243,2.168,7.585,4.155,7.044" transform="translate(-159.975 -66.247)" fill="#aa5246"/>
    <path id="Tracé_1365" data-name="Tracé 1365" d="M388.625,203a16.055,16.055,0,0,1-11.921-6.863,25.69,25.69,0,0,1-4.425-14.178,82.435,82.435,0,0,1,1.264-16.978,71.061,71.061,0,0,1,4.606-15.894q3.069-7.133,6.141-10.025a4.51,4.51,0,0,1,4.605-1.174,21.992,21.992,0,0,1,5.96,2.258,19.515,19.515,0,0,1,5.238,4.154,7.507,7.507,0,0,1,2.258,4.877q1.985,9.753-1.987,11.018-2.167.724-5.6-2.89a24.123,24.123,0,0,1-.723-4.064q-.364-2.98-.722-5.419T392.6,145.2q-6.143,8.492-8.85,23.39t-.18,26.28q1.261,7.044,13.365-9.573,1.985-2.71,5.96-8.489,10.295-14.448,12.1-14.449,5.236,1.083,6.141,3.432.36.724-.181,1.083-.724,1.266-2.348,3.793-3.251,5.6-5.238,8.76t-5.69,8.4a63.41,63.41,0,0,1-6.5,8.037,39.43,39.43,0,0,1-6.232,5.057A10.467,10.467,0,0,1,388.625,203" transform="translate(-211.916 -78.406)" fill="#aa5246"/>
    <path id="Tracé_1366" data-name="Tracé 1366" d="M475.589,193.5a12.769,12.769,0,0,1-8.4-4.515,18.08,18.08,0,0,1-3.973-8.94,87.361,87.361,0,0,1-.994-10.927,75.384,75.384,0,0,1,.361-10.656,7.547,7.547,0,0,1,.181-1.806,20.568,20.568,0,0,1,1.084-6.321,7.248,7.248,0,0,1,2.258-3.342,4.917,4.917,0,0,1,3.432-.813,14.813,14.813,0,0,1,3.973.9,32.885,32.885,0,0,1,4.425,2.167q-5.059,2.532-5.96,19.507-.906,15.536,2.348,19.145,2.167,2.168,5.057-3.432A12.858,12.858,0,0,0,481.1,182.3q.813-1.261,1.9-3.251t1.986-3.522q.9-1.532,2.258-4.335t2.168-4.425q.813-1.625,2.529-5.238t2.438-5.058q0-1.8,4.7-.541,2.887.906,2.71,1.986-2.168,6.5-4.7,12.282a105.819,105.819,0,0,1-5.96,11.559,32.364,32.364,0,0,1-7.4,8.94,11.283,11.283,0,0,1-8.128,2.8m-4.335-63.758q4.513-1.262,6.5.994a6.646,6.646,0,0,1,1.264,5.96,14.8,14.8,0,0,1-3.071,6.592q-4.7.364-6.682-1.9A5.924,5.924,0,0,1,468,135.885a13.845,13.845,0,0,1,3.251-6.141" transform="translate(-263.118 -73.606)" fill="#aa5246"/>
    <path id="Tracé_1367" data-name="Tracé 1367" d="M4.558,328.291a4.358,4.358,0,0,1-1.57-.059,5,5,0,0,1-1.568-.58,3.167,3.167,0,0,1-1.1-1.047,2.307,2.307,0,0,1-.289-1.568,3.458,3.458,0,0,1,1.917-2.847,10.417,10.417,0,0,1,3.312-1.1,19.094,19.094,0,0,1,2.5-.291q1.223-.057,2.5-.175,5.343-.347,10.809-.406t10.864-.058q5.4,0,10.806-.116a102.8,102.8,0,0,0,10.867-.814,5.7,5.7,0,0,1,3.078.7,2.49,2.49,0,0,1,1.454,2.557,3.472,3.472,0,0,1-1.918,2.848,10.446,10.446,0,0,1-3.312,1.1,18.732,18.732,0,0,1-2.441.291q-1.164.059-2.441.174-3.721.349-7.321.408t-7.321.058q-.7,9.063-1.22,17.9t-.755,17.9q-.118,4.07-.174,8.135t-.058,8.134v11.331q0,5.638.232,11.445.114,2.79.174,5.578t.292,5.7q.233,2.673.347,5.4t.118,5.4a2.428,2.428,0,0,1-1.047,1.976,7.793,7.793,0,0,1-3.254,1.511,7.455,7.455,0,0,1-3.486.348q-.466-.114-1.162-.348t-.7-.814q0-3.019-.174-5.927t-.408-5.81q-.347-5.692-.347-11.389-.118-2.9-.176-5.752t-.058-5.636v-11.33q0-5.637.115-11.331.233-10.69.758-21.208t1.452-21.208l-9.646.232q-4.767.118-9.644.7" transform="translate(0 -181.728)" fill="#842d1b"/>
    <path id="Tracé_1368" data-name="Tracé 1368" d="M188.881,321.879a4.752,4.752,0,0,1,3.08.639,2.506,2.506,0,0,1,1.336,2.731,3.218,3.218,0,0,1-.581,1.452,5.646,5.646,0,0,1-1.044,1.1,4.27,4.27,0,0,1-1.744.929c-.621.156-1.239.311-1.86.466a77.683,77.683,0,0,1-7.9.755q-3.95.173-7.844.175h-7.844q-3.95,0-7.9.231-.694,8.833-1.16,17.606t-.7,17.605q-.118,1.744-.118,3.428v3.312q4.186-.348,8.309-.349h8.31q4.183,0,8.307-.174a68.1,68.1,0,0,0,8.31-.872,4.585,4.585,0,0,1,3.078.7,2.512,2.512,0,0,1,1.339,2.672,3.231,3.231,0,0,1-.581,1.454,10.271,10.271,0,0,1-1.047,1.219,5.063,5.063,0,0,1-1.744.814q-.931.235-1.858.464-4.071.583-8.136.756t-8.134.174H162.62q-4.071,0-8.136.348v.93q-.115,5.7-.058,11.33t.292,11.447q0,2.79.116,5.636t.347,5.636q.115,2.326.234,4.475t.232,4.473a3.858,3.858,0,0,1,.581.058,4.051,4.051,0,0,0,.7.059h3.6q2.324-.114,4.651-.233t4.648-.349q4.763-.349,9.47-.581a55.625,55.625,0,0,1,9.47.348,8.922,8.922,0,0,1,1.513.348,3.287,3.287,0,0,1,1.276.814,1.863,1.863,0,0,1,0,2.324,5.037,5.037,0,0,1-2.73,2.266,6.93,6.93,0,0,1-3.544.522,29.761,29.761,0,0,0-4.416-.349h-3.486l-4.59.233q-2.265.116-4.59.348-4.882.349-9.762.522a63.038,63.038,0,0,1-9.76-.407q-.7-.115-1.4-.291a2.728,2.728,0,0,1-1.278-.755,1.772,1.772,0,0,1-.116-2.324v-.255c0-2.8-.158-5.608-.38-8.4q-.437-5.486-.548-10.921-.118-5.635-.116-11.331-.118-5.692-.058-11.33t.174-11.33q.462-21.266,2.091-42.532a2.146,2.146,0,0,1-.813-2.208,3.189,3.189,0,0,1,.581-1.452,5.755,5.755,0,0,1,1.045-1.1,5.38,5.38,0,0,1,1.8-.929q.872-.233,1.918-.466a6.431,6.431,0,0,1,1.278-.231,8.81,8.81,0,0,1,1.626-.117q4.3-.462,8.6-.522t8.6-.059q4.3,0,8.6-.116a64.445,64.445,0,0,0,8.6-.813" transform="translate(-82.413 -183.218)" fill="#842d1b"/>
    <path id="Tracé_1369" data-name="Tracé 1369" d="M271.446,408.672q-.115-2.9-.116-5.753t-.116-5.752v-11.33q0-5.635.116-11.331.462-22.891,2.441-45.9a1.006,1.006,0,0,1,.347-.7,2.953,2.953,0,0,1,1.278-2.615,6.219,6.219,0,0,1,2.673-1.336,69.468,69.468,0,0,1,9.007-1.51,44.974,44.974,0,0,1,9.123,0,40.664,40.664,0,0,1,8.483,1.859,31.68,31.68,0,0,1,7.784,3.835,33.01,33.01,0,0,1,6.8,6.333,28.356,28.356,0,0,1,4.59,8.077,26.526,26.526,0,0,1,.7,16.617,36.762,36.762,0,0,1-1.394,4.067,31.593,31.593,0,0,1-1.976,3.951q-1.282,1.978-2.557,3.777a26.86,26.86,0,0,1-2.907,3.428l-2.091,1.86q-1.046.931-2.091,1.858a.345.345,0,0,1,.116.233.9.9,0,0,0,.116.348q.233.932.523,1.8t.523,1.8q1.626,5.577,3.02,11.156t2.907,11.156q.7,2.326,1.336,4.764t1.336,4.764c.155.622.308,1.182.466,1.686s.308,1.027.463,1.568a40.149,40.149,0,0,0,1.454,4.939,19.562,19.562,0,0,1,1.1,4.939,2.394,2.394,0,0,1-1.452,2.441,10.839,10.839,0,0,1-2.731,1.046,8.113,8.113,0,0,1-3.6.349c-.31-.079-.678-.195-1.1-.349a1.066,1.066,0,0,1-.755-.814,18.773,18.773,0,0,0-1.1-4.88,42.419,42.419,0,0,1-1.452-4.649c-.157-.618-.292-1.18-.407-1.685s-.252-1.064-.408-1.685q-1.625-5.343-3.02-10.69t-2.788-10.692q-.7-2.671-1.394-5.228t-1.512-5.23a11.025,11.025,0,0,0-.463-1.744q-.816.349-1.57.7t-1.684.7q-3.025,1.046-6.045,1.8a46.411,46.411,0,0,1-6.158,1.1c-1.086.155-2.149.272-3.2.348s-2.11.155-3.2.232q0,3.952.06,7.844t.174,7.844q.115,2.788.174,5.636t.292,5.636q.229,2.675.348,5.461t.115,5.462a2.425,2.425,0,0,1-1.044,1.976,6.113,6.113,0,0,1-1.512.93,13.631,13.631,0,0,1-1.626.581,7.182,7.182,0,0,1-3.6.232,3.508,3.508,0,0,1-1.1-.291c-.5-.192-.755-.483-.755-.87q0-4.416-.35-8.948-.118-1.278-.231-2.672t-.116-2.79c-.079-.93-.118-1.877-.118-2.846s-.04-1.917-.116-2.847m9.412-27.425a56.593,56.593,0,0,0,8.833-.7q1.626-.349,3.138-.7a28.245,28.245,0,0,0,3.136-.93q1.511-.58,3.022-1.278a21.414,21.414,0,0,0,2.9-1.627,33.494,33.494,0,0,0,4.767-3.6,32.016,32.016,0,0,0,2.554-2.615,25.494,25.494,0,0,0,2.21-2.963,32.059,32.059,0,0,0,3.37-6.973,21.334,21.334,0,0,0,.174-12.259,22.706,22.706,0,0,0-1.452-4.009,45.521,45.521,0,0,0-2.557-4.068,23.269,23.269,0,0,0-3.138-3.6,24.1,24.1,0,0,0-6.007-4.111,14.832,14.832,0,0,0-2.079-.816q-1.562-.5-3.185-1a43.862,43.862,0,0,0-6.39-.7q-1.744,0-3.488.175t-3.486.407q-1.394,18.711-2.091,37.419-.118,3.487-.116,6.973t-.118,6.972" transform="translate(-154.402 -183.437)" fill="#842d1b"/>
    <path id="Tracé_1370" data-name="Tracé 1370" d="M412.013,408.672q-.115-2.9-.116-5.753t-.116-5.752v-11.33q0-5.635.116-11.331.462-22.891,2.441-45.9a1.006,1.006,0,0,1,.347-.7,2.953,2.953,0,0,1,1.278-2.615,6.219,6.219,0,0,1,2.673-1.336,69.469,69.469,0,0,1,9.007-1.51,44.974,44.974,0,0,1,9.123,0,40.665,40.665,0,0,1,8.483,1.859,31.68,31.68,0,0,1,7.784,3.835,33.011,33.011,0,0,1,6.8,6.333,28.357,28.357,0,0,1,4.59,8.077,26.526,26.526,0,0,1,.7,16.617,36.755,36.755,0,0,1-1.394,4.067,31.593,31.593,0,0,1-1.976,3.951q-1.282,1.978-2.557,3.777a26.863,26.863,0,0,1-2.907,3.428l-2.091,1.86q-1.046.931-2.091,1.858a.345.345,0,0,1,.116.233.9.9,0,0,0,.116.348q.233.932.523,1.8t.523,1.8q1.626,5.577,3.02,11.156t2.907,11.156q.7,2.326,1.336,4.764t1.336,4.764c.155.622.308,1.182.466,1.686s.308,1.027.463,1.568a40.144,40.144,0,0,0,1.454,4.939,19.563,19.563,0,0,1,1.1,4.939,2.394,2.394,0,0,1-1.452,2.441,10.838,10.838,0,0,1-2.731,1.046,8.113,8.113,0,0,1-3.6.349c-.31-.079-.678-.195-1.1-.349a1.066,1.066,0,0,1-.755-.814,18.774,18.774,0,0,0-1.1-4.88,42.426,42.426,0,0,1-1.452-4.649c-.157-.618-.292-1.18-.407-1.685s-.252-1.064-.408-1.685q-1.625-5.343-3.02-10.69t-2.788-10.692q-.7-2.671-1.394-5.228t-1.512-5.23a11.023,11.023,0,0,0-.463-1.744q-.816.349-1.57.7t-1.684.7q-3.025,1.046-6.045,1.8a46.411,46.411,0,0,1-6.158,1.1c-1.086.155-2.149.272-3.2.348s-2.11.155-3.2.232q0,3.952.06,7.844t.174,7.844q.115,2.788.174,5.636t.292,5.636q.229,2.675.348,5.461t.115,5.462a2.425,2.425,0,0,1-1.044,1.976,6.113,6.113,0,0,1-1.512.93,13.633,13.633,0,0,1-1.626.581,7.182,7.182,0,0,1-3.6.232,3.508,3.508,0,0,1-1.1-.291c-.5-.192-.755-.483-.755-.87q0-4.416-.35-8.948-.118-1.278-.231-2.672t-.116-2.79c-.079-.93-.118-1.877-.118-2.846s-.04-1.917-.116-2.847m9.412-27.425a56.593,56.593,0,0,0,8.833-.7q1.626-.349,3.138-.7a28.249,28.249,0,0,0,3.136-.93q1.511-.58,3.022-1.278a21.413,21.413,0,0,0,2.9-1.627,33.493,33.493,0,0,0,4.767-3.6,32.026,32.026,0,0,0,2.554-2.615,25.49,25.49,0,0,0,2.209-2.963,32.059,32.059,0,0,0,3.37-6.973,21.334,21.334,0,0,0,.174-12.259,22.706,22.706,0,0,0-1.452-4.009,45.521,45.521,0,0,0-2.557-4.068,23.268,23.268,0,0,0-3.138-3.6,24.1,24.1,0,0,0-6.007-4.111A14.832,14.832,0,0,0,440.3,331q-1.562-.5-3.185-1a43.861,43.861,0,0,0-6.39-.7q-1.744,0-3.488.175t-3.486.407q-1.394,18.711-2.091,37.419-.118,3.487-.116,6.973t-.118,6.972" transform="translate(-234.427 -183.437)" fill="#842d1b"/>
    <path id="Tracé_1371" data-name="Tracé 1371" d="M613.83,425.867a2,2,0,0,1,.524,1.452,3.373,3.373,0,0,1-.466,1.452,4.849,4.849,0,0,1-1.1,1.278,4.953,4.953,0,0,1-1.278.814,7.112,7.112,0,0,1-4.934.564,1.189,1.189,0,0,1-.507-.245,10.35,10.35,0,0,1-3.042-4.154q-.7-1.742-1.278-3.6a23.912,23.912,0,0,1-.931-3.37,28.981,28.981,0,0,0-.929-3.487q-.813-2.671-1.51-5.345t-1.394-5.345a2.818,2.818,0,0,1-.292-.93,2.961,2.961,0,0,0-.289-.93,104.638,104.638,0,0,1-14.352.408,92.19,92.19,0,0,0-14.236.522q-.58,2.092-1.1,4.184t-1.1,4.067q-.465,1.978-.87,3.893t-.989,3.893q-.347,1.628-.755,3.137a15.376,15.376,0,0,1-1.1,2.905A3.606,3.606,0,0,1,560.144,429a7.918,7.918,0,0,1-3.72,1.278,7.51,7.51,0,0,1-1.626.058,3.959,3.959,0,0,1-1.512-.406,3.3,3.3,0,0,1-.871-.64.84.84,0,0,1-.174-.988,15.988,15.988,0,0,0,1.22-3.254q.407-1.626.755-3.254.58-1.975.987-3.951t.873-3.951q2.79-10.808,5.927-21.266t6.274-21.149q3.137-10.573,5.985-21.034t5.171-21.266c-.079-.233-.195-.658-.347-1.278a3.222,3.222,0,0,1,1.1-2.963,7.468,7.468,0,0,1,2.849-1.685,7.61,7.61,0,0,1,1.858-.233,5.252,5.252,0,0,1,1.86.348,5.879,5.879,0,0,1,1.221.7,2.332,2.332,0,0,1,.87,1.279,2.617,2.617,0,0,0,.058.523,2.654,2.654,0,0,1,.058.522,1.344,1.344,0,0,1,.234.93q.58,2.906,1.163,5.811t1.16,5.927q2.324,11.273,4.824,22.311t5.171,22.312q1.393,5.577,2.788,11.039t2.9,11.041q.7,2.556,1.452,5.054t1.455,5.055q.58,1.979,1.044,4.009a19.511,19.511,0,0,0,1.394,4.01,7.844,7.844,0,0,0,1.278,1.976m-43.925-28.355a93.453,93.453,0,0,1,12.316-.348,108.8,108.8,0,0,0,12.319-.233c-.079-.387-.155-.735-.232-1.046s-.157-.658-.234-1.045q-1.393-5.579-2.788-11.1t-2.672-11.1q-1.282-5.577-2.5-11.1t-2.5-11.1q-2.786,10.576-5.984,20.976T571.415,392.4q-.466,1.28-.813,2.557t-.7,2.557" transform="translate(-314.343 -183.897)" fill="#842d1b"/>
  </g>
</svg>
