<svg xmlns="http://www.w3.org/2000/svg" xmlns:xlink="http://www.w3.org/1999/xlink" width="97.541" height="130.734" viewBox="0 0 97.541 130.734">
  <defs>
    <clipPath id="clip-path">
      <path id="Tracé_2733" data-name="Tracé 2733" d="M0,57.378H97.541V-73.356H0Z" transform="translate(0 73.356)" fill="none"/>
    </clipPath>
  </defs>
  <g id="Groupe_3138" data-name="Groupe 3138" transform="translate(0 73.356)" opacity="0.386">
    <g id="Groupe_3154" data-name="Groupe 3154" transform="translate(0 -73.356)" clip-path="url(#clip-path)">
      <g id="Groupe_3147" data-name="Groupe 3147" transform="translate(0 0)">
        <path id="Tracé_2726" data-name="Tracé 2726" d="M1.989.052A5.642,5.642,0,0,0,3.93.1a2.534,2.534,0,0,1,2.859.7c2,2.3,4.37,4.366,5.555,7.245A36.8,36.8,0,0,1,14,13.805c.408,1.761.11,2.271-1.5,3.436-4.081.5-7.523-1.151-10.836-3.251-2.556-1.62-3.3-4.318-4.117-6.945-.365-1.18.5-2.08,1.112-2.994C-.756,3.173-.189,2.282.387,1.4q.8-.671,1.6-1.344" transform="translate(2.543 0.067)" fill="#842d1c"/>
      </g>
      <g id="Groupe_3148" data-name="Groupe 3148" transform="translate(33.226 18.928)">
        <path id="Tracé_2727" data-name="Tracé 2727" d="M5.195,1.81c-.016.2-.127.478-.036.579,1.4,1.561,1.627,3.621,2.388,5.454a5.06,5.06,0,0,1-.492,5.332c-5.307,1.44-12.718-3.14-13.7-9.948A46.885,46.885,0,0,1-3.435-1.179a3.945,3.945,0,0,1,5.484-.057c.168.139.476.107.72.155L5.195,1.81" transform="translate(6.641 2.314)" fill="#842d1c"/>
      </g>
      <g id="Groupe_3149" data-name="Groupe 3149" transform="translate(41.493 58.877)">
        <path id="Tracé_2728" data-name="Tracé 2728" d="M11.272,3.89c3.744,3.636,5.395,8.735,6.5,14.074.579,2.793-.216,6.1-4.4,6.658-4.32.572-8.692.966-12.823-1.2-2.194-1.148-4.618-1.909-6.678-3.245-4.814-3.124-6.954-8.036-8.18-13.4a5.3,5.3,0,0,1,.971-4.16A34.643,34.643,0,0,1-9.1-2.658,9.087,9.087,0,0,1-.788-4.747C3.277-3.961,6.512-1.6,9.237,1.47c.6.677,1.167,1.387,2.035,2.42" transform="translate(14.411 4.973)" fill="#842d1c"/>
      </g>
      <g id="Groupe_3150" data-name="Groupe 3150" transform="translate(2.103 70.025)">
        <path id="Tracé_2729" data-name="Tracé 2729" d="M10.932,3.292c3.028,3.6,4.311,7.92,5.113,12.345a6.2,6.2,0,0,1-5.774,7.282A23.89,23.89,0,0,1-.421,20.995c-4.281-1.645-8.13-3.855-10.789-7.7-1.752-2.532-3.007-5.284-2.727-8.492.007-.07.012-.139.021-.209.346-2.721,4.643-7.353,7.23-8.161,5.494-1.714,10,.191,14.136,3.623,1.217,1.011,2.324,2.155,3.481,3.238" transform="translate(13.976 4.209)" fill="#842d1c"/>
      </g>
      <g id="Groupe_3151" data-name="Groupe 3151" transform="translate(8.955 29.315)">
        <path id="Tracé_2730" data-name="Tracé 2730" d="M7.986,2.077c2.679,3.368,3.956,7.307,5.047,11.308a19.3,19.3,0,0,1,.807,4.874c.018,2.609-1.133,3.443-3.712,3.62C3.946,22.307-1.174,19.7-5.813,16.1A12.066,12.066,0,0,1-10.2,7.21,6.741,6.741,0,0,1-9.148,3.954,23.578,23.578,0,0,1-7.048.912C-4.384-2.7.727-3.745,3.925-1.414,5.363-.364,6.637.906,7.986,2.077" transform="translate(10.21 2.656)" fill="#842d1c"/>
      </g>
      <g id="Groupe_3152" data-name="Groupe 3152" transform="translate(46.447 101.586)">
        <path id="Tracé_2731" data-name="Tracé 2731" d="M5.288,1.734c2.919,2.807,4.046,6.494,4.871,10.3.529,2.436-.221,3.463-2.695,3.454a15.762,15.762,0,0,1-8.975-3.283A12.06,12.06,0,0,1-6.623,5.4a2.776,2.776,0,0,1,.078-1.959A17.174,17.174,0,0,1-3.172-.938c2.244-1.755,4.495-1.739,6.428.269.722.75,1.351,1.591,2.032,2.4" transform="translate(6.76 2.217)" fill="#842d1c"/>
      </g>
      <g id="Groupe_3153" data-name="Groupe 3153" transform="translate(80.424 112.943)">
        <path id="Tracé_2732" data-name="Tracé 2732" d="M7.513,7.123C6.4,8.977,4.773,8.829,3.323,8.437A29.948,29.948,0,0,1-3.332,6.068,13.216,13.216,0,0,1-9.566-2.39,1.317,1.317,0,0,1-9.6-2.6c-.143-1.515,2.96-5.594,4.386-6.138C-2.557-9.748-.889-8.572.81-6.664A25.675,25.675,0,0,1,7.081,4.664c.2.861.308,1.745.431,2.459" transform="translate(9.605 9.107)" fill="#842d1c"/>
      </g>
    </g>
  </g>
</svg>
