<svg xmlns="http://www.w3.org/2000/svg" width="274.575" height="159.68" viewBox="0 0 274.575 159.68">
  <g id="Groupe_1529" data-name="Groupe 1529" transform="translate(64.206 50.535)">
    <path id="Tracé_1111" data-name="Tracé 1111" d="M2.386,29.6c.156,0,.313,0,.469,0,0,11.58-.288,23.171.121,34.738a18.274,18.274,0,0,0,7.5,14.637c3.361,2.447,7.33,2.858,11.18,2.91q12.7.168,25.408-.454a13.565,13.565,0,0,0,10.986-6.329c3.068-4.579,4.119-9.725,4.148-15.053q.168-29.427.013-58.855c-.013-3.6.514-6.74,3.658-8.972,1.2-.849,1.564-2.5.34-3.229-1.955-1.173-1.546-2.793-1.625-4.449-.06-1.26-.288-2.514-.353-3.774a3.091,3.091,0,0,0-2.9-3.164,63.139,63.139,0,0,0-6.948-.93c-6.662-.317-13.33-.742-19.989-.644q-13.978.2-27.94,1.164C1.094-22.433.046-20.874.03-15.307c0,.874.047,1.752-.031,2.619a1.89,1.89,0,0,1-.51,1.167C-2.345-9.906-2.441-9.137-.582-7.53a8.609,8.609,0,0,1,3,7.111C2.328,9.587,2.386,19.6,2.386,29.6" transform="translate(1.932 23.976)" fill="#fff"/>
  </g>
  <g id="Groupe_1530" data-name="Groupe 1530" transform="translate(64.206 50.535)">
    <path id="Tracé_1112" data-name="Tracé 1112" d="M2.386,29.6c0-10.007-.058-20.016.036-30.023a8.609,8.609,0,0,0-3-7.111c-1.859-1.607-1.763-2.375.072-3.991A1.89,1.89,0,0,0,0-12.688c.078-.867.029-1.745.031-2.619.016-5.567,1.064-7.126,6.429-7.491q13.948-.949,27.94-1.164c6.659-.1,13.328.326,19.989.644a63.139,63.139,0,0,1,6.948.93,3.091,3.091,0,0,1,2.9,3.164c.065,1.26.293,2.514.353,3.774.078,1.656-.331,3.276,1.625,4.449,1.225.733.858,2.38-.34,3.229C62.729-5.539,62.2-2.4,62.215,1.2q.111,29.427-.013,58.855c-.029,5.327-1.079,10.474-4.148,15.053a13.565,13.565,0,0,1-10.986,6.329q-12.687.62-25.408.454c-3.85-.051-7.819-.463-11.18-2.91a18.274,18.274,0,0,1-7.5-14.637c-.409-11.567-.121-23.158-.121-34.738-.156,0-.313,0-.469,0M2.645-5.354A27.159,27.159,0,0,1,3.288-1.2c.072,18.577.036,37.154.152,55.731a77.123,77.123,0,0,0,.9,11.6c1.406,8.881,6.829,14.105,15.147,14.353q12.694.382,25.408-.007c8.132-.253,13.062-4.469,14.939-12.5A47.169,47.169,0,0,0,61.2,57.655c.114-15.875-.027-31.753-.016-47.628,0-5.176.185-10.351.284-15.368A254.358,254.358,0,0,1,2.645-5.354m63.2-4.472a14.527,14.527,0,0,1-2.554.787c-7.562.65-15.129,1.777-22.689,1.752C28.54-7.325,16.482-8.1,4.426-8.659A36.971,36.971,0,0,1-1.016-9.727C-.9-7.814.911-6.954,2.75-6.706a99.666,99.666,0,0,0,14,1.341c14.418-.1,28.834-.53,43.25-.876a6.5,6.5,0,0,0,5.841-3.584M60.336-21.712c-14.246-2.11-47.355-1.815-55.351.6,16.273,1.457,50.482,1.086,55.351-.6M22.373-10.733v-8.93l.979,1.955.912-1.1c.215.854.344,1.374.478,1.906.253-.581.5-1.149.961-2.206.445,1.187.708,1.891.965,2.583.13-.465.273-.972.512-1.83.431.679.691,1.086.921,1.446.188-.4.387-.82.585-1.242l.483.047L30.4-9.854l-.766.161c-.375-1.381-.751-2.762-1.146-4.224-.53,1.725,1.05,4.011-1.45,5.184h8.454V-18.856c.979.95,1.964,1.453,2.127,2.154a29.472,29.472,0,0,1,.527,5.187,2.852,2.852,0,0,1-.514,1.394,12.832,12.832,0,0,1-1.162,1.408h4.644c-1.457-1.361-2.907-2.174-2.686-4.056a47.6,47.6,0,0,0,.047-5.506l.646-.045c.264.5.53.994.769,1.444.092-.641.188-1.314.371-2.588.523,1.149.8,1.761,1.064,2.337.123-.476.246-.961.369-1.448l.561.02q.194,2.839.389,5.681L43-12.887V-19.5l1.169,1.915v-1.891c-7.517,0-14.968-.016-22.421.04-.458,0-.91.574-1.365.883l.346.393c.268-.248.539-.5,1.327-1.225-.753,3.868.6,7.26-1.294,10.385l5.191.349c-.268-1.227-.472-2.159-.606-2.775l-2.979.7m23.2,1.173-3.8.2.047.831L58.939-9.7a6.524,6.524,0,0,0-.15-1.676C56.3-11.877,57.272-14,57-15.421a22.622,22.622,0,0,1-.056-4.177c-.27,2.7.056,5.439-.679,8.045-.228-.018-.456-.036-.684-.056v-8.159H51.6c.172,1.348.322,2.512.545,4.241.136-1.613.226-2.657.313-3.7.2.007.4.011.592.016v8.93c-.539-.822-.778-1.189-.954-1.457-.257.279-.521.57-.93,1.017-.21-.731-.342-1.189-.5-1.723-.219,1.059-.411,1.989-.6,2.918l-.594-.013-.581-1.81-1.1.105v-7.707c.179-.009.358-.018.534-.029.17.628.342,1.254.543,2V-19.4H45.1c.136,1,.255,1.855.425,3.1.163-1.16.266-1.908.371-2.657,1.406,3.493,2.565,6.954-.324,9.4M5.342-10.216A11.4,11.4,0,0,0,7.1-9.745c3.987.261,7.978.492,11.967.731.127-.15.255-.3.384-.447-.34-.362-.67-.731-1.019-1.084-.286-.293-.851-.577-.845-.854.058-2.527.212-5.05.34-7.576.273,0,.543.009.816.016.118.742.239,1.484.4,2.474.159-1.113.282-1.962.411-2.858h-3.8v2.67c.212-.82.407-1.567.6-2.311.134.042.268.085.4.125v7.846l-.472.054c-.174-.456-.349-.912-.525-1.377-.139.954-.273,1.891-.407,2.829l-.565-.007c-.25-.7-.5-1.406-.547-1.533L12.4-11.68c-.058.11-.275.518-.492.93l-.438-.092v-8.543l-.749-.029v8.738l-.845-.054v-8.907l-6.954-.4c-.007.235-.016.469-.022.7.4,0,1.012-.163,1.164.034a4.587,4.587,0,0,1,.442,1.531l.514-1.7,2.5.72c.48,6.045.23,7.281-2.179,8.534m55.13-3.35c-.143,1.325-.255,2.373-.4,3.669l3.464-.691v-6.957l-.141,0q-.151,2.5-.3,5l-.536.047c-.188-.46-.378-.923-.556-1.365l-.563,1.743c-.42-.63-.65-.974-.972-1.453M4.216-12.322c-.257.123-.514.246-.771.371-.317-.724-.632-1.45-.867-1.982-.127.337-.337.9-.55,1.466l-.507-.114q-.151-1.693-.3-3.388c-.042,0-.085.007-.125.011v5.66l3.571.277c-.181-.93-.317-1.616-.451-2.3" transform="translate(1.932 23.976)" fill="#2b2e34"/>
  </g>
  <g id="Groupe_1531" data-name="Groupe 1531" transform="translate(68.782 69.158)">
    <path id="Tracé_1113" data-name="Tracé 1113" d="M0,0A254.377,254.377,0,0,0,58.826.013c-.1,5.017-.284,10.192-.286,15.368-.011,15.875.13,31.753.018,47.628a47.307,47.307,0,0,1-1.37,10.322c-1.877,8.029-6.807,12.246-14.939,12.5q-12.694.4-25.408.007C8.523,85.588,3.1,80.364,1.694,71.483a77.417,77.417,0,0,1-.9-11.6C.679,41.31.715,22.733.646,4.157A27.443,27.443,0,0,0,0,0M48.488,83.148c-.007-.366-.013-.731-.018-1.1-6.3.337-12.6.939-18.894.941-6.228,0-12.454-.6-18.682-.936l-.013,1.068a116.174,116.174,0,0,0,37.608.022" fill="#fff"/>
  </g>
  <g id="Groupe_1532" data-name="Groupe 1532" transform="translate(65.124 64.686)">
    <path id="Tracé_1114" data-name="Tracé 1114" d="M36.939,0A6.5,6.5,0,0,1,31.1,3.584c-14.416.346-28.832.773-43.25.876a99.7,99.7,0,0,1-14-1.341C-27.994,2.872-29.8,2.011-29.918.1a36.943,36.943,0,0,0,5.439,1.068C-12.423,1.725-.364,2.5,11.7,2.539c7.562.025,15.129-1.1,22.689-1.752A14.527,14.527,0,0,0,36.939,0" transform="translate(29.918)" fill="#fff"/>
  </g>
  <g id="Groupe_1533" data-name="Groupe 1533" transform="translate(71.123 51.387)">
    <path id="Tracé_1115" data-name="Tracé 1115" d="M30.582.781C25.71,2.468-8.5,2.839-24.769,1.382c8-2.416,41.1-2.711,55.351-.6" transform="translate(24.769 0.632)" fill="#fff"/>
  </g>
  <g id="Groupe_1534" data-name="Groupe 1534" transform="translate(86.525 54.85)">
    <path id="Tracé_1116" data-name="Tracé 1116" d="M1.1,4.934l2.979-.7c.134.617.337,1.549.6,2.775-1.9-.127-3.645-.246-5.191-.349C1.384,3.539.032.145.783-3.723L-.545-2.5c-.114-.132-.23-.264-.344-.393C-.435-3.2.018-3.77.474-3.773c7.453-.056,14.905-.04,22.421-.04v1.888c-.306-.5-.565-.927-1.169-1.915V2.78l-.364.013q-.194-2.843-.389-5.681l-.563-.02L20.043-1.46C19.78-2.036,19.5-2.651,18.977-3.8c-.181,1.274-.277,1.946-.371,2.588-.239-.449-.5-.945-.769-1.444l-.646.045A47.605,47.605,0,0,1,17.147,2.9c-.221,1.882,1.229,2.7,2.684,4.056H15.187a12.115,12.115,0,0,0,1.162-1.41,2.793,2.793,0,0,0,.514-1.392,29.219,29.219,0,0,0-.527-5.187c-.163-.7-1.149-1.207-2.125-2.154V6.932H5.755c2.5-1.173.921-3.459,1.45-5.182.4,1.461.773,2.843,1.149,4.224l.764-.161Q8.5,1.686,7.893-2.438l-.485-.047c-.2.42-.4.842-.585,1.242-.228-.36-.487-.766-.921-1.446l-.51,1.83c-.259-.693-.523-1.4-.965-2.583-.46,1.055-.711,1.625-.963,2.206C3.33-1.768,3.2-2.289,2.986-3.142c-.418.507-.661.8-.91,1.1C1.88-2.429,1.65-2.89,1.1-4ZM13.243-2.358l-.977.025c-.072,1.175-.143,2.351-.217,3.6-.261-1.184-.5-2.275-.744-3.365-.174.025-.351.049-.527.072v3.87l-.172-.007q-.375-1.88-.753-3.761l-1,.168q.5,4.183,1,8.367c.264-.018.525-.038.789-.058.109-.675.217-1.352.337-2.094l.653,1.9c.8-.51,1.978-.907,1.982-1.318.027-2.463-.219-4.93-.371-7.395" transform="translate(0.889 3.996)" fill="#fff"/>
  </g>
  <g id="Groupe_1535" data-name="Groupe 1535" transform="translate(107.905 54.744)">
    <path id="Tracé_1117" data-name="Tracé 1117" d="M2.1,5.64c2.892-2.447,1.73-5.906.324-9.4-.1.749-.208,1.5-.369,2.657-.172-1.242-.288-2.1-.427-3.1H5.4v2.413c-.2-.742-.371-1.368-.543-1.993l-.534.027v7.71c.351-.034.7-.069,1.1-.107L6,5.662c.2,0,.4.007.594.011l.6-2.916c.152.532.284.992.494,1.721l.93-1.017L9.58,4.918V-4.009c-.2-.007-.393-.011-.592-.016C8.9-2.984,8.811-1.94,8.675-.327c-.223-1.73-.371-2.892-.545-4.241h3.984V3.593l.686.054c.733-2.6.407-5.348.677-8.045a22.619,22.619,0,0,0,.056,4.177c.27,1.421-.706,3.544,1.79,4.04a6.69,6.69,0,0,1,.147,1.676L-1.654,6.668-1.7,5.837c1.064-.054,2.125-.109,3.8-.2m8.385-1.182h.751V-4.108l-.751.007Z" transform="translate(1.701 4.568)" fill="#fff"/>
  </g>
  <g id="Groupe_1536" data-name="Groupe 1536" transform="translate(69.037 54.477)">
    <path id="Tracé_1118" data-name="Tracé 1118" d="M1.35,5.425C3.761,4.172,4.011,2.936,3.531-3.109l-2.5-.72c-.136.445-.308,1.015-.516,1.7A4.485,4.485,0,0,0,.071-3.657c-.15-.2-.76-.034-1.164-.034.009-.235.016-.469.025-.7,2.3.132,4.592.264,6.954.4V4.911l.842.054V-3.773c.25.009.5.018.749.029V4.8l.438.092c.217-.411.436-.82.492-.93.485.168.983.337,1.844.635.045.127.295.829.545,1.533l.565.007c.134-.939.27-1.875.407-2.829.179.465.351.921.525,1.374l.474-.051V-3.216l-.4-.125c-.194.744-.387,1.491-.6,2.308V-3.7H15.56c-.127.9-.25,1.745-.411,2.858-.159-.99-.279-1.732-.4-2.476l-.816-.013c-.125,2.525-.282,5.048-.34,7.576-.007.277.559.561.847.854.346.353.679.722,1.017,1.084-.127.15-.255.3-.384.447C11.084,6.388,7.095,6.158,3.106,5.9A11.4,11.4,0,0,1,1.35,5.425M4.288,5l.579-.02V-3.368c-.192,0-.387.011-.579.018Z" transform="translate(1.093 4.394)" fill="#fff"/>
  </g>
  <g id="Groupe_1537" data-name="Groupe 1537" transform="translate(126.216 56.967)">
    <path id="Tracé_1119" data-name="Tracé 1119" d="M.219,2.2,1.191,3.65c.259-.8.413-1.285.561-1.741.181.44.369.9.559,1.365.179-.018.358-.034.536-.049q.151-2.5.3-5c.047,0,.094,0,.141,0V5.177l-3.464.691c.139-1.3.253-2.344.4-3.669" transform="translate(0.177 1.78)" fill="#fff"/>
  </g>
  <g id="Groupe_1538" data-name="Groupe 1538" transform="translate(67.234 58.542)">
    <path id="Tracé_1120" data-name="Tracé 1120" d="M1.724,2.015c.134.686.27,1.374.454,2.3C.908,4.218-.209,4.131-1.4,4.04v-5.66l.125-.011q.151,1.693.3,3.388l.507.114C-.252,1.3-.04.741.086.4.32.938.638,1.662.953,2.386l.771-.371" transform="translate(1.396 1.632)" fill="#fff"/>
  </g>
  <g id="Groupe_1539" data-name="Groupe 1539" transform="translate(79.663 151.21)">
    <path id="Tracé_1121" data-name="Tracé 1121" d="M20.779.6A116.111,116.111,0,0,1-16.829.583c0-.355.009-.711.013-1.068,6.228.337,12.454.939,18.682.936,6.3,0,12.6-.6,18.894-.941,0,.366.011.731.018,1.095" transform="translate(16.829 0.49)" fill="#2b2e34"/>
  </g>
  <g id="Groupe_1540" data-name="Groupe 1540" transform="translate(96.264 56.488)">
    <path id="Tracé_1122" data-name="Tracé 1122" d="M2.427,0c.154,2.465.4,4.932.371,7.395,0,.411-1.182.809-1.982,1.318C.588,8.049.387,7.459.164,6.816.045,7.558-.064,8.233-.174,8.91l-.787.058L-1.966.6-.96.434-.21,4.195l.174.007V.331C.139.306.316.282.49.259l.744,3.363.219-3.6L2.427,0" transform="translate(1.966)" fill="#2b2e34"/>
  </g>
  <g id="Groupe_1541" data-name="Groupe 1541" transform="translate(120.092 55.205)">
    <path id="Tracé_1123" data-name="Tracé 1123" d="M0,4.731V-3.825l.751-.007V4.731H0" transform="translate(0 3.832)" fill="#2b2e34"/>
  </g>
  <g id="Groupe_1542" data-name="Groupe 1542" transform="translate(74.418 55.501)">
    <path id="Tracé_1124" data-name="Tracé 1124" d="M0,4.621V-3.725c.192,0,.387-.011.581-.018V4.6L0,4.621" transform="translate(0 3.743)" fill="#2b2e34"/>
  </g>
  <g id="Groupe_1569" data-name="Groupe 1569" transform="translate(0.001 42.557)">
    <path id="Tracé_1151" data-name="Tracé 1151" d="M24.5.015c-10.268,0-20.537.036-30.8-.027C-8.685-.028-9.351,1.061-9.418,3.26c-.132,4.32-.534,8.633-.76,12.95-.152,2.9-.963,6.069-.078,8.635.956,2.773-.693,3.971-1.6,5.736-1.8,3.531-4.353,6.847-5.35,10.583a77.219,77.219,0,0,0-2.273,16.056c-.588,12.025-.711,24.081,1.537,35.987,3.059,16.215,11.33,23.176,27.263,23.674,7.14.221,14.313.393,21.433-.042C44.424,116,52.168,111.229,55.9,97.349a85.532,85.532,0,0,0,2.675-20.012c.219-9.153-.469-18.336-.956-27.5-.366-6.831-1.92-13.334-6.391-18.827a23.738,23.738,0,0,1-2.145-3.372,2.651,2.651,0,0,1-.221-1.37c.045-.959.268-1.917.259-2.872-.036-3.162-.087-6.326-.237-9.484-.19-3.969-.494-7.933-.724-11.9C48.065.379,47.113-.005,45.649,0,38.6.037,31.546.017,24.5.015" transform="translate(19.839 0.012)" fill="#fff"/>
  </g>
  <g id="Groupe_1570" data-name="Groupe 1570" transform="translate(0 42.557)">
    <path id="Tracé_1152" data-name="Tracé 1152" d="M24.5.016c7.05,0,14.1.022,21.156-.016,1.464-.007,2.416.38,2.51,2.016.23,3.967.536,7.931.724,11.9.152,3.158.2,6.322.237,9.484.011.956-.215,1.913-.259,2.874a2.678,2.678,0,0,0,.223,1.37,23.52,23.52,0,0,0,2.145,3.37c4.472,5.493,6.025,12,6.389,18.829.489,9.16,1.175,18.342.956,27.5A85.313,85.313,0,0,1,55.9,97.35C52.167,111.23,44.424,116,30.761,116.839c-7.12.438-14.293.266-21.433.042-15.933-.5-24.2-7.457-27.265-23.674-2.246-11.9-2.125-23.963-1.537-35.985A77.221,77.221,0,0,1-17.2,41.163c1-3.736,3.546-7.053,5.35-10.583.9-1.765,2.55-2.963,1.6-5.734-.885-2.568-.074-5.736.078-8.635.226-4.32.628-8.63.76-12.952.067-2.2.731-3.285,3.108-3.272C3.961.052,14.229.014,24.5.016M8.13,27.6c-4.809-.23-10.056-.514-15.305-.691A2.272,2.272,0,0,0-8.9,27.8c-2.118,3.58-5,7.008-5.976,10.9a120.333,120.333,0,0,0-3.477,22.083,126.73,126.73,0,0,0,1.98,32.481c2.4,11.927,8.677,19.654,19.56,21.178a109.407,109.407,0,0,0,33.594-.228c7.645-1.3,13.361-5.569,15.982-13.013A76.776,76.776,0,0,0,56.5,86.528,140.851,140.851,0,0,0,56.6,51.291c-.918-8.4-3.053-16.2-8.311-22.935a3.45,3.45,0,0,0-2.194-1.41c-4,.018-8.007.373-12.011.384-2.342,0-4.414-.02-4.849,2.974-.067.458-.65.818-.874,1.283-.487,1.015-1.276,2.069-1.267,3.1.029,3.743.333,7.482.545,11.223.132,2.322-1.055,3.62-3.272,3.676-3.462.085-6.93-.018-10.391-.141A2.446,2.446,0,0,1,11.462,46.6c.094-2.577.355-5.149.409-7.725.047-2.19.322-4.51-.291-6.534-.514-1.7-2.163-3.053-3.45-4.746M47.293,1.446H-8.2c-.217,2.105-.44,4.266-.7,6.749,6.1.442,11.864.869,17.634,1.267a1.767,1.767,0,0,0,1.242-.25C11.889,7.2,14.365,7.458,16.75,7.5c3.37.065,7.05-.532,10.016.637a17.767,17.767,0,0,0,7.906,1c4.414-.237,8.818-.646,13.22-.981-.232-2.612-.42-4.717-.6-6.713M17.248,29.282c-1.263,1.222-3.269,2.239-3.488,3.551-.717,4.286-.784,8.682-1.091,13.035-.105,1.491.476,2.427,2.105,2.425,3.1,0,6.21-.013,9.316-.018,1.9,0,2.438-1.061,2.291-2.8a108.446,108.446,0,0,1-.758-10.91c.047-3.1-1.468-4.351-4.183-5.046a8.286,8.286,0,0,1,2.61.291c.706.127,1.761.447,2.074.121.422-.442.282-1.421.391-2.228H12.624c-.177.764-.353,1.522-.641,2.769,2.065-.469,3.786-.858,5.265-1.193M10.133,19.44c-6.5-1.184-12.939-2.358-19.513-3.558a15.323,15.323,0,0,1-.011,1.81c-.32,2.8.733,3.969,3.712,3.9a112.663,112.663,0,0,1,12.027.51c2.438.21,3.665-.621,3.786-2.666m18.313.094c.878.865,1.718,2.411,2.574,2.42,5.593.056,11.191-.221,16.872-.393.259-2.259.465-4.056.655-5.705-6.717,1.231-13.129,2.4-20.1,3.678m-18.2-8.157c1.055.543,1.975,1.4,2.923,1.437,4.264.15,8.541.15,12.8,0,.856-.031,1.676-.972,2.514-1.493-.105-.442-.212-.883-.317-1.323-2.91-.565-5.806-1.231-8.735-1.667-3.249-.483-6.2.393-9.189,3.05M-9.124,12.383c-.018,2.3,1.392,2.55,2.979,2.626,3.106.15,6.208.389,9.314.472,3.075.083,6.154.018,9.426.018-.219-.425-.44-1.334-.742-1.361C4.9,13.5-2.057,12.953-9.124,12.383m57.458.713c-.147-.228-.3-.456-.445-.684-1.839.154-3.678.331-5.517.463-4.624.328-9.252.585-13.866,1-.751.067-1.439.8-2.156,1.22.13.246.259.494.387.74,6.478-.3,12.957-.536,19.426-.968.76-.049,1.45-1.155,2.172-1.772M47.8,9.321c-5.819.331-11.415.577-16.99,1.046-.76.065-1.428,1.242-2.136,1.906,6.161.154,11.833-.2,17.507-.525,1.658-.1,2.194-.858,1.62-2.427M9.847,12.772c.185-.154.369-.308.552-.463-.659-.67-1.274-1.868-1.987-1.929C2.761,9.907-2.911,9.65-8.63,9.324c-.664,1.464-.308,2.311,1.446,2.416,5.678.331,11.354.686,17.031,1.032m-19.54,11.7-.154.65a5.976,5.976,0,0,0,1.982.952c5.162.293,10.326.521,15.5.632.456.009.932-.972,1.4-1.5l-.565-.74Zm58.5.8c-.083-.244-.168-.485-.253-.729H30.6c-.746,2.206.34,2.3,1.656,2.239,4.608-.194,9.218-.315,13.822-.579a10.592,10.592,0,0,0,2.722-.932M26.75,23.936c-3.515-3.448-12.123-3.227-13.982,0ZM13.509,14.012c-.141.288-.282.577-.42.865a7.564,7.564,0,0,0,2.478,1.153c2.659.152,5.336,0,8,.076,1.526.045,2.3-.4,1.9-2.094Zm-1.2,11.971.637.708H26.415c.118-.2.237-.393.355-.592-.527-.407-1.044-1.144-1.587-1.167-3.71-.145-7.424-.2-11.135-.13-.585.011-1.158.769-1.734,1.18M-.252.588l.02.322H39.342c0-.107,0-.215,0-.322Zm14.141,18.66c.84,1.935.842,1.96,9.287,1.593a6.61,6.61,0,0,0,2.186-1.019l-.295-.574Zm12.557-1.173c-1.363-1.488-12.548-1.461-13.792,0ZM11.6,16.8c-4.731-.259-9.341-.514-13.949-.769C2.957,18,10.314,18.356,11.6,16.8m29.869-.769-13.889.762c.013.311.029.621.042.932,4.668.536,9.267-.38,13.846-1.694M8.613,23.454c.007-.177.016-.355.025-.534H-9.186c-.011.179-.022.358-.034.534Zm39.4.042-.067-.463H30.48l.034.463Z" transform="translate(19.839 0.013)" fill="#2b2e34"/>
  </g>
  <g id="Groupe_1571" data-name="Groupe 1571" transform="translate(1.222 69.478)">
    <path id="Tracé_1153" data-name="Tracé 1153" d="M14.778.382c1.287,1.694,2.936,3.048,3.45,4.746.612,2.025.337,4.344.291,6.534-.054,2.577-.315,5.149-.409,7.725a2.447,2.447,0,0,0,2.516,2.843c3.462.123,6.932.226,10.391.139,2.217-.054,3.4-1.352,3.272-3.674-.212-3.741-.516-7.482-.545-11.223-.009-1.032.782-2.087,1.269-3.1.221-.465.807-.825.872-1.283C36.321.094,38.392.118,40.734.114c4-.011,8.009-.366,12.014-.384a3.451,3.451,0,0,1,2.192,1.41c5.258,6.733,7.392,14.537,8.313,22.935a141.063,141.063,0,0,1-.107,35.237,77.152,77.152,0,0,1-3.734,14.677C56.788,81.432,51.072,85.7,43.427,87a109.336,109.336,0,0,1-33.594.23C-1.05,85.7-7.325,77.977-9.725,66.05a126.732,126.732,0,0,1-1.982-32.481A120.116,120.116,0,0,1-8.228,11.486c.974-3.893,3.855-7.321,5.973-10.9A2.273,2.273,0,0,1-.525-.309c5.249.177,10.494.46,15.3.691M49.02,80.444c-7.5.981-14.423,2.465-21.373,2.632-7.03.17-14.092-.961-21.14-1.517,8.431,5.216,36.58,4.134,42.513-1.115" transform="translate(11.969 0.309)" fill="#fff"/>
  </g>
  <g id="Groupe_1572" data-name="Groupe 1572" transform="translate(10.941 44.015)">
    <path id="Tracé_1154" data-name="Tracé 1154" d="M31.046,0c.179,2,.366,4.1.6,6.715-4.4.335-8.809.744-13.223.979a17.771,17.771,0,0,1-7.906-1C7.553,5.529,3.872,6.123.5,6.058c-2.384-.045-4.86-.3-6.771,1.71a1.775,1.775,0,0,1-1.242.248c-5.768-.4-11.535-.822-17.634-1.265.257-2.485.48-4.646.7-6.751Z" transform="translate(25.145)" fill="#fff"/>
  </g>
  <g id="Groupe_1573" data-name="Groupe 1573" transform="translate(31.821 70.278)">
    <path id="Tracé_1155" data-name="Tracé 1155" d="M2.91.869-2.357,2.063c.291-1.245.467-2,.644-2.767H12.175c-.107.8.034,1.786-.389,2.226-.315.326-1.368.007-2.076-.121A8.264,8.264,0,0,0,7.1,1.111c2.713.695,4.228,1.942,4.181,5.046a109.107,109.107,0,0,0,.758,10.91c.15,1.734-.393,2.791-2.291,2.8q-4.656.007-9.316.02c-1.629,0-2.208-.934-2.1-2.427C-1.365,13.1-1.3,8.706-.58,4.42-.361,3.108,1.648,2.092,2.91.869" transform="translate(2.357 0.704)" fill="#fff"/>
  </g>
  <g id="Groupe_1574" data-name="Groupe 1574" transform="translate(10.394 58.453)">
    <path id="Tracé_1156" data-name="Tracé 1156" d="M10.817,1.964C10.7,4.011,9.469,4.84,7.034,4.633A112.689,112.689,0,0,0-4.993,4.121c-2.979.065-4.034-1.1-3.712-3.9A15.809,15.809,0,0,0-8.7-1.591L10.817,1.964" transform="translate(8.761 1.591)" fill="#fff"/>
  </g>
  <g id="Groupe_1575" data-name="Groupe 1575" transform="translate(48.285 58.426)">
    <path id="Tracé_1157" data-name="Tracé 1157" d="M0,2.032,20.1-1.646c-.188,1.649-.4,3.446-.655,5.705-5.678.17-11.278.447-16.872.393C1.718,4.444.878,2.9,0,2.032" transform="translate(0 1.646)" fill="#fff"/>
  </g>
  <g id="Groupe_1576" data-name="Groupe 1576" transform="translate(30.082 50.77)">
    <path id="Tracé_1158" data-name="Tracé 1158" d="M0,1.755C2.99-.9,5.94-1.778,9.189-1.3c2.93.436,5.826,1.1,8.735,1.667.105.44.212.88.317,1.323-.838.521-1.66,1.461-2.514,1.493q-6.4.231-12.8,0C1.975,3.159,1.055,2.3,0,1.755" transform="translate(0 1.422)" fill="#fff"/>
  </g>
  <g id="Groupe_1577" data-name="Groupe 1577" transform="translate(10.717 54.953)">
    <path id="Tracé_1159" data-name="Tracé 1159" d="M0,0C7.066.57,14.027,1.113,20.977,1.754c.3.027.521.936.742,1.361-3.272,0-6.351.065-9.426-.018-3.106-.083-6.208-.322-9.314-.472C1.39,2.548-.018,2.3,0,0" transform="translate(0)" fill="#fff"/>
  </g>
  <g id="Groupe_1578" data-name="Groupe 1578" transform="translate(46.189 54.982)">
    <path id="Tracé_1160" data-name="Tracé 1160" d="M12.147.378C11.425.995,10.735,2.1,9.975,2.15c-6.469.431-12.948.67-19.426.968-.127-.248-.257-.494-.387-.742.717-.422,1.408-1.151,2.156-1.218C-3.067.742,1.561.483,6.185.157,8.024.025,9.863-.152,11.7-.306c.147.228.3.456.445.684" transform="translate(9.838 0.306)" fill="#fff"/>
  </g>
  <g id="Groupe_1579" data-name="Groupe 1579" transform="translate(48.512 51.891)">
    <path id="Tracé_1161" data-name="Tracé 1161" d="M10.569,0c.572,1.567.036,2.331-1.62,2.427C3.275,2.753-2.4,3.106-8.56,2.95c.711-.661,1.377-1.839,2.139-1.9C-.846.577,4.75.331,10.569,0" transform="translate(8.56)" fill="#fff"/>
  </g>
  <g id="Groupe_1580" data-name="Groupe 1580" transform="translate(10.896 51.894)">
    <path id="Tracé_1162" data-name="Tracé 1162" d="M10.382,1.9Q1.868,1.384-6.648.871C-8.4.769-8.76-.081-8.1-1.542c5.719.326,11.39.583,17.044,1.055.711.06,1.327,1.258,1.987,1.931-.185.152-.369.306-.552.46" transform="translate(8.409 1.542)" fill="#fff"/>
  </g>
  <g id="Groupe_1581" data-name="Groupe 1581" transform="translate(9.991 67.043)">
    <path id="Tracé_1163" data-name="Tracé 1163" d="M.085,0H18.242c.188.248.378.494.565.742-.467.521-.943,1.5-1.4,1.493C12.24,2.125,7.075,1.9,1.913,1.6,1.236,1.564.59.981-.069.653-.018.434.034.217.085,0" transform="translate(0.069)" fill="#fff"/>
  </g>
  <g id="Groupe_1582" data-name="Groupe 1582" transform="translate(50.198 67.114)">
    <path id="Tracé_1164" data-name="Tracé 1164" d="M10.191.4a10.649,10.649,0,0,1-2.722.932c-4.6.264-9.216.384-13.824.579-1.314.056-2.4-.034-1.656-2.239H9.938c.083.244.168.485.253.729" transform="translate(8.254 0.326)" fill="#fff"/>
  </g>
  <g id="Groupe_1583" data-name="Groupe 1583" transform="translate(32.606 64.002)">
    <path id="Tracé_1165" data-name="Tracé 1165" d="M7.727,1.383H-6.258c1.861-3.225,10.47-3.448,13.985,0" transform="translate(6.258 1.12)" fill="#fff"/>
  </g>
  <g id="Groupe_1584" data-name="Groupe 1584" transform="translate(32.927 56.58)">
    <path id="Tracé_1166" data-name="Tracé 1166" d="M.233,0H12.2c.4,1.7-.375,2.139-1.9,2.1-2.666-.078-5.343.074-8-.076A7.557,7.557,0,0,1-.189.865L.233,0" transform="translate(0.189)" fill="#fff"/>
  </g>
  <g id="Groupe_1585" data-name="Groupe 1585" transform="translate(32.152 67.344)">
    <path id="Tracé_1167" data-name="Tracé 1167" d="M0,.668C.579.257,1.151-.5,1.734-.512c3.712-.067,7.428-.016,11.138.13.543.022,1.057.76,1.584,1.167l-.355.592H.639C.427,1.139.212.9,0,.668" transform="translate(0 0.541)" fill="#fff"/>
  </g>
  <g id="Groupe_1586" data-name="Groupe 1586" transform="translate(19.589 43.158)">
    <path id="Tracé_1168" data-name="Tracé 1168" d="M0,0H39.592V.322H.018C.011.215.007.107,0,0" fill="#fff"/>
  </g>
  <g id="Groupe_1587" data-name="Groupe 1587" transform="translate(33.729 61.817)">
    <path id="Tracé_1169" data-name="Tracé 1169" d="M0,0H11.176c.1.192.2.384.295.574A6.492,6.492,0,0,1,9.287,1.593C.84,1.96.84,1.937,0,0" fill="#fff"/>
  </g>
  <g id="Groupe_1588" data-name="Groupe 1588" transform="translate(32.494 59.538)">
    <path id="Tracé_1170" data-name="Tracé 1170" d="M7.62.611H-6.172C-4.93-.85,6.255-.877,7.62.611" transform="translate(6.172 0.495)" fill="#fff"/>
  </g>
  <g id="Groupe_1589" data-name="Groupe 1589" transform="translate(17.493 58.596)">
    <path id="Tracé_1171" data-name="Tracé 1171" d="M7.707.426C6.417,1.986-.939,1.626-6.242-.345L7.707.426" transform="translate(6.242 0.345)" fill="#fff"/>
  </g>
  <g id="Groupe_1590" data-name="Groupe 1590" transform="translate(47.424 58.598)">
    <path id="Tracé_1172" data-name="Tracé 1172" d="M7.674,0C3.095,1.314-1.5,2.23-6.173,1.694c-.013-.311-.029-.621-.042-.932L7.674,0" transform="translate(6.215)" fill="#fff"/>
  </g>
  <g id="Groupe_1591" data-name="Groupe 1591" transform="translate(10.62 65.49)">
    <path id="Tracé_1173" data-name="Tracé 1173" d="M9.853.3H-7.98c.011-.179.022-.358.034-.534H9.877c-.009.177-.016.355-.025.534" transform="translate(7.98 0.239)" fill="#fff"/>
  </g>
  <g id="Groupe_1592" data-name="Groupe 1592" transform="translate(50.32 65.604)">
    <path id="Tracé_1174" data-name="Tracé 1174" d="M9.69.256h-17.5C-7.828.1-7.837-.053-7.848-.207H9.621c.022.154.047.308.069.463" transform="translate(7.848 0.207)" fill="#fff"/>
  </g>
  <g id="Groupe_1593" data-name="Groupe 1593" transform="translate(19.697 150.23)">
    <path id="Tracé_1175" data-name="Tracé 1175" d="M23.49,0C17.557,5.252-10.594,6.333-19.025,1.115c7.05.559,14.112,1.689,21.142,1.517C9.067,2.465,15.986.981,23.49,0" transform="translate(19.025)" fill="#2b2e34"/>
  </g>
  <g id="Groupe_1594" data-name="Groupe 1594" transform="translate(115.715 65.517)">
    <path id="Tracé_1176" data-name="Tracé 1176" d="M15.08,0l-.007.737C7.494.737-.093.541-7.664.811c-4.5.161-5.761,3.365-3.336,7.3a7.359,7.359,0,0,1,1.088,2.9,85.206,85.206,0,0,1,.858,10.369c-.163,15.261-.507,30.519-.769,45.778A87.2,87.2,0,0,0-9.8,76.793,26.83,26.83,0,0,0-7.941,85.3c2.5,5.493,7.993,6.277,13.1,6.606,8.63.559,17.308.7,25.958.541a42.667,42.667,0,0,0,11.167-2.092,7.762,7.762,0,0,0,5.745-7c.25-2.72.045-5.482.047-8.226.02-19.111,0-38.224.1-57.333.02-3.625-.521-7.314,2.139-10.657,1.658-2.083.387-5.348-1.567-5.734A24.848,24.848,0,0,0,44.779.878C34.88.559,24.98.286,15.08,0" transform="translate(12.214)" fill="#fff"/>
  </g>
  <g id="Groupe_1595" data-name="Groupe 1595" transform="translate(115.715 65.517)">
    <path id="Tracé_1177" data-name="Tracé 1177" d="M15.08,0c9.9.286,19.8.559,29.7.878a24.848,24.848,0,0,1,3.969.523c1.953.387,3.225,3.651,1.567,5.734-2.659,3.343-2.118,7.033-2.139,10.657-.107,19.109-.083,38.222-.1,57.333,0,2.744.2,5.506-.047,8.226a7.762,7.762,0,0,1-5.745,7,42.667,42.667,0,0,1-11.167,2.092c-8.65.156-17.328.018-25.958-.541-5.1-.328-10.6-1.113-13.1-6.606A26.83,26.83,0,0,1-9.8,76.793a87.2,87.2,0,0,1-.022-9.638c.261-15.258.606-30.517.769-45.778a85.207,85.207,0,0,0-.858-10.369A7.359,7.359,0,0,0-11,8.107C-13.425,4.177-12.167.972-7.664.811-.093.541,7.494.737,15.074.737L15.08,0M-8.084,17.654c0,.112.007.735,0,1.359Q-8.4,47.555-8.712,76.1C-8.806,85.03-5.287,89.875,2.644,90.295c11.033.583,22.106.724,33.154.556,6.349-.1,11.408-3.394,11.3-12.134-.248-19.831.17-39.668.313-59.5.011-1.339,0-2.675,0-4.013-.684,2.983-2.55,4.179-5.37,4.447-2.118.2-4.2.84-6.317.979-12.671.82-25.339.9-37.934-.992-2.007-.3-3.911-1.3-5.875-1.98M-10.766,2.548c-.682,5.225.581,6.715,5.491,6.9,3.654.136,7.3.59,10.954.6q17.665.034,35.33-.2a22.329,22.329,0,0,0,6.3-.961c2.226-.7,3.082-2.686,2.76-4.914-.342-2.355-2.32-1.408-3.66-1.41-14.284-.038-28.568-.016-42.852-.011-4.717,0-9.435,0-14.324,0m2.838,7.795c.259,1.22.5,2.333.731,3.448.782,3.819,1.468,4.633,5.491,4.78,11.844.431,23.694.784,35.545.954a51.136,51.136,0,0,0,9.254-1.135,3.3,3.3,0,0,0,2.282-1.549,60.287,60.287,0,0,0,1.674-6.492c-18.606,2.331-36.732,1.22-54.976-.007M39.646,1.783V1.365H3.61v.418Z" transform="translate(12.214)" fill="#2b2e34"/>
  </g>
  <g id="Groupe_1596" data-name="Groupe 1596" transform="translate(119.215 80.717)">
    <path id="Tracé_1178" data-name="Tracé 1178" d="M.348,1.356a34.3,34.3,0,0,0,5.875,1.98c12.595,1.888,25.263,1.812,37.934.992,2.118-.139,4.2-.778,6.315-.979,2.82-.268,4.688-1.464,5.372-4.447,0,1.339.007,2.675,0,4.013-.145,19.835-.561,39.672-.313,59.5.11,8.74-4.952,12.038-11.3,12.134C33.18,74.72,22.107,74.58,11.077,74,3.146,73.579-.374,68.731-.28,59.8Q.015,31.258.348,2.714c.007-.623,0-1.247,0-1.359M48.863,70.03A104.84,104.84,0,0,1,6.129,68.048c5,4.919,35.782,6.465,42.734,1.982" transform="translate(0.282 1.098)" fill="#fff"/>
  </g>
  <g id="Groupe_1597" data-name="Groupe 1597" transform="translate(116.99 67.889)">
    <path id="Tracé_1179" data-name="Tracé 1179" d="M.094.1C4.984.1,9.7.1,14.419.1,28.7.093,42.987.071,57.271.106c1.343,0,3.321-.945,3.66,1.412.322,2.228-.532,4.217-2.758,4.912a22.267,22.267,0,0,1-6.3.963q-17.662.221-35.328.2c-3.654-.007-7.3-.463-10.957-.6C.678,6.813-.587,5.322.094.1" transform="translate(0.076 0.079)" fill="#fff"/>
  </g>
  <g id="Groupe_1598" data-name="Groupe 1598" transform="translate(120 75.858)">
    <path id="Tracé_1180" data-name="Tracé 1180" d="M0,0C18.246,1.227,36.372,2.34,54.976.007A60.324,60.324,0,0,1,53.3,6.5,3.3,3.3,0,0,1,51.02,8.047a50.913,50.913,0,0,1-9.254,1.135c-11.851-.17-23.7-.521-35.543-.954C2.2,8.081,1.513,7.269.731,3.448.5,2.333.259,1.222,0,0" fill="#fff"/>
  </g>
  <g id="Groupe_1599" data-name="Groupe 1599" transform="translate(131.537 66.882)">
    <path id="Tracé_1181" data-name="Tracé 1181" d="M19.912.231H-16.125c0-.139,0-.279,0-.418H19.912V.231" transform="translate(16.127 0.187)" fill="#fff"/>
  </g>
  <g id="Groupe_1600" data-name="Groupe 1600" transform="translate(125.625 149.863)">
    <path id="Tracé_1182" data-name="Tracé 1182" d="M23.612,1.1C16.658,5.578-14.121,4.032-19.124-.887A104.853,104.853,0,0,0,23.612,1.1" transform="translate(19.124 0.887)" fill="#2b2e34"/>
  </g>
  <g id="Groupe_1708" data-name="Groupe 1708" transform="translate(229.226 19.05)">
    <path id="Tracé_1290" data-name="Tracé 1290" d="M3.215,12.725c.114-.1.23-.206.349-.3,10.13-5.292,8.291-14.273,8.664-22.727H22.409c.23,3.8.737,7.395.594,10.97a14.465,14.465,0,0,0,5.522,12.568c6.8,5.558,8.364,12.443,8.338,20.374-.089,25.958.4,51.918.865,77.874.056,3.111-1.2,5.028-4.212,6.056-10.2,3.488-20.278,3.115-29.914-1.488a5.42,5.42,0,0,1-2.679-3.942Q-1,70.49-2.573,28.864c-.235-5.933.758-11.607,5.788-16.139m.74,102.194.773-.034V94.53l-.773.009Zm2.827.418c.429.011.856.022,1.285.031q-.4-5.491-.791-10.983c-.163.02-.328.04-.494.058Z" transform="translate(2.604 10.306)" fill="#fff"/>
  </g>
  <g id="Groupe_1709" data-name="Groupe 1709" transform="translate(226.604)">
    <path id="Tracé_1291" data-name="Tracé 1291" d="M4.664,23.25c-5.03,4.532-6.022,10.206-5.788,16.139q1.636,41.622,3.5,83.242a5.42,5.42,0,0,0,2.679,3.942c9.636,4.6,19.712,4.977,29.914,1.488,3.01-1.028,4.268-2.945,4.212-6.056-.467-25.956-.954-51.916-.865-77.874.027-7.931-1.533-14.816-8.338-20.374A14.465,14.465,0,0,1,24.452,11.19c.143-3.575-.364-7.173-.594-10.97H13.676C13.3,8.673,15.142,17.655,5.012,22.946c.038-.255-.038-.623.13-.746C13.435,16.057,12.3,7.71,11.98-.4a5.158,5.158,0,0,0-1.736-3.229,6.042,6.042,0,0,1,.022-8.706c.536-.476,1.2-1.285,1.077-1.815-.983-4.277,1.973-4.751,5.652-4.679,2.34.045,4.684.007,6.764.007,1.658,4.23,3.175,7.922,4.521,11.663a3.12,3.12,0,0,1-.15,2.648C23.238,1.92,26.077,8.836,26.651,15.5c.2,2.277,2.2,4.86,4.226,6.516,6.814,5.573,9.6,12.078,9.757,20.313.467,24.15,1.71,48.289,2.682,72.431.219,5.41.583,10.816.867,16.226.185,3.475-1.844,4.809-5.694,4.717-10.213-.239-20.436-.192-30.64-.594C-.116,134.8-.778,134.021-1.021,127q-.962-27.708-1.808-55.414c-.351-11.106-.784-22.213-.945-33.324-.076-5.437,1.35-10.552,6.505-14.251a8.716,8.716,0,0,1,1.933-.764M26.532-4.8c-.125-2.165-.23-3.973-.335-5.821H9.442C9.98-8.292,7.728-5.191,12.087-4.88c4.633.331,9.319.076,14.445.076M2.465,127.749c.3,2.121-1.859,4.9,2.3,4.959,11.455.161,22.914.056,34.828.056-.156-1.276-.331-2.713-.525-4.3-11.935,5.048-19.238,4.907-36.6-.717M23.008-17.616c-10.02-1.088-10.925-.592-9.482,5.037,10.356,1.669,10.684,1.5,9.482-5.037" transform="translate(3.777 18.831)" fill="#2b2e34"/>
  </g>
  <g id="Groupe_1710" data-name="Groupe 1710" transform="translate(235.784 123.885)">
    <path id="Tracé_1292" data-name="Tracé 1292" d="M0,11.265V-9.115c.257,0,.516,0,.773-.009V11.232L0,11.265" transform="translate(0 9.124)" fill="#2b2e34"/>
  </g>
  <g id="Groupe_1711" data-name="Groupe 1711" transform="translate(238.612 133.742)">
    <path id="Tracé_1293" data-name="Tracé 1293" d="M0,6.051V-4.843L.494-4.9,1.285,6.082,0,6.051" transform="translate(0 4.901)" fill="#2b2e34"/>
  </g>
  <g id="Groupe_1712" data-name="Groupe 1712" transform="translate(239.709 8.204)">
    <path id="Tracé_1294" data-name="Tracé 1294" d="M9.506,3.216c-5.126,0-9.815.255-14.445-.074C-9.3,2.832-7.046-.272-7.587-2.6H9.169c.107,1.85.212,3.658.337,5.821" transform="translate(7.699 2.605)" fill="#fff"/>
  </g>
  <g id="Groupe_1713" data-name="Groupe 1713" transform="translate(232.55 146.58)">
    <path id="Tracé_1295" data-name="Tracé 1295" d="M.164,0c17.366,5.622,24.669,5.765,36.6.717.194,1.584.371,3.021.525,4.3-11.913,0-23.373.107-34.828-.056C-1.7,4.9.467,2.121.164,0" transform="translate(0.132)" fill="#fff"/>
  </g>
  <g id="Groupe_1714" data-name="Groupe 1714" transform="translate(243.366 0.75)">
    <path id="Tracé_1296" data-name="Tracé 1296" d="M5.539.258c1.2,6.539.872,6.7-9.484,5.037C-5.389-.335-4.482-.833,5.539.258" transform="translate(4.486 0.209)" fill="#fff"/>
  </g>
  <g id="Groupe_1715" data-name="Groupe 1715" transform="translate(176.445 47.695)">
    <path id="Tracé_1297" data-name="Tracé 1297" d="M.028,34.079c0-7.625-.132-13.167.034-18.7C.267,8.476,2.247,2.512,8.6-1.5a10.869,10.869,0,0,0,4.481-6.063c.992-4.358,1-8.952,1.251-13.46A2.311,2.311,0,0,0,12.872-22.7c-1.906-.371-1.817-1.567-1.725-3,.112-1.748,1.164-1.877,2.563-1.87,5.987.027,11.973-.08,17.958.022.956.018,2.67.816,2.7,1.321a10.205,10.205,0,0,1-1.073,3.772c-.273.731-1,1.4-1.01,2.105-.022,1.777.282,3.558.4,5.339C33.121-8.3,35.631-2.889,41.6.863a8.946,8.946,0,0,1,3.538,5.386c1.251,6.639,2.637,13.37,2.74,20.085.237,15.712-.181,31.435-.46,47.154-.1,5.323-.842,5.837-6.273,5.75-10.8-.174-21.6-.275-32.4-.55-5.062-.13-5.506-.711-5.879-5.783C1.862,59.275.872,45.646.028,34.079m25.98-2.8H2.162c0,1.039-.051,1.933.009,2.818Q3.441,53.2,4.738,72.312c.315,4.668.456,4.856,5.222,4.9,9.551.087,19.1.121,28.655.172,6.934.036,7.046,1.669,7.12-6.682.139-15.348.36-30.7.018-46.046-.136-6.092-1.611-12.161-2.612-18.222A8.659,8.659,0,0,0,38.947.489a14.836,14.836,0,0,1-7-11.75c-.087-.974-.4-1.937-.418-2.91-.029-1.529-.749-1.955-2.188-1.92-3.482.085-6.97.152-10.447.016-2.094-.08-3.059.478-3.14,2.751C15.532-6.954,13.022-1.935,7.384,1.618,4.2,3.625,3.022,7.263,2.3,11.053a14.772,14.772,0,0,0,1.609.165c6.429-.118,12.856-.228,19.283-.4,1.314-.036,2.762-.239,2.784,1.558.087,6.309.034,12.619.034,18.9M1.987,29.346c7.493.25,14.456.445,21.413.744,1.542.065,2.092-.467,2.072-1.955-.036-2.59.036-5.18.047-7.77.011-2.63,0-5.258,0-7.636H1.987Zm20.894-53.2v.239c2.941,0,5.888.094,8.823-.069.668-.038,1.289-.959,1.933-1.475-.688-.36-1.372-1.021-2.065-1.032q-8.551-.144-17.1-.04a7.017,7.017,0,0,0-2.329.974c.816.467,1.611,1.285,2.454,1.339,2.753.172,5.524.065,8.288.065M15.4-22.242c1.019,1.524,13.6,1.841,16.061,0Zm.8,4.364c.013.194.029.389.045.583h14.5c-.007-.194-.013-.389-.022-.583Zm-.045-1.761c-.009.165-.018.328-.029.494H30.719l-.013-.494Z" transform="translate(0.022 27.601)" fill="#2b2e34"/>
  </g>
  <g id="Groupe_1716" data-name="Groupe 1716" transform="translate(178.609 59.204)">
    <path id="Tracé_1298" data-name="Tracé 1298" d="M13.187,26.172c0-6.282.051-12.592-.034-18.9-.025-1.8-1.47-1.593-2.787-1.558-6.425.172-12.854.282-19.281.4a14.719,14.719,0,0,1-1.609-.165c.722-3.79,1.9-7.428,5.086-9.435C.2-7.04,2.711-12.059,2.936-18.428c.08-2.273,1.046-2.831,3.14-2.751,3.477.136,6.966.069,10.447-.016,1.437-.036,2.159.391,2.186,1.92.018.972.331,1.935.42,2.91a14.836,14.836,0,0,0,7,11.75A8.659,8.659,0,0,1,30.32,1.329c1,6.06,2.476,12.13,2.612,18.222.342,15.341.121,30.7-.018,46.046-.076,8.351-.185,6.717-7.122,6.682-9.551-.051-19.1-.085-28.655-.172-4.767-.042-4.907-.23-5.22-4.9q-1.28-19.11-2.57-38.218c-.058-.885-.007-1.779-.007-2.818Zm17.151,40.07c.4,2.974-1.359,2.773-3.093,2.72-8.3-.25-16.593-.447-24.89-.711-3.149-.1-6.91,1.137-8.188-3.618.693,2.4.384,5.209,4.083,5.272,9.636.163,19.267.583,28.9.842,3.665.1,4.1-.489,3.187-4.505" transform="translate(10.68 21.197)" fill="#fff"/>
  </g>
  <g id="Groupe_1717" data-name="Groupe 1717" transform="translate(178.454 88.025)">
    <path id="Tracé_1299" data-name="Tracé 1299" d="M0,9.181V-7.436H23.536c0,2.378.007,5.006,0,7.634-.011,2.592-.083,5.182-.049,7.772.02,1.486-.527,2.02-2.072,1.953C14.456,9.626,7.5,9.431,0,9.181" transform="translate(0 7.436)" fill="#fff"/>
  </g>
  <g id="Groupe_1718" data-name="Groupe 1718" transform="translate(188.606 49.017)">
    <path id="Tracé_1300" data-name="Tracé 1300" d="M5.935,1.338c-2.764,0-5.535.107-8.288-.065C-3.2,1.221-3.989.4-4.807-.066a6.963,6.963,0,0,1,2.329-.972q8.551-.107,17.1.038C15.319-.987,16-.327,16.691.035c-.644.514-1.265,1.437-1.933,1.473-2.934.165-5.882.072-8.823.072V1.338" transform="translate(4.807 1.083)" fill="#fff"/>
  </g>
  <g id="Groupe_1719" data-name="Groupe 1719" transform="translate(191.864 53.055)">
    <path id="Tracé_1301" data-name="Tracé 1301" d="M0,0H16.061C13.6,1.839,1.021,1.524,0,0" fill="#fff"/>
  </g>
  <g id="Groupe_1720" data-name="Groupe 1720" transform="translate(192.667 57.419)">
    <path id="Tracé_1302" data-name="Tracé 1302" d="M0,0H14.521l.02.581H.045C.029.387.016.194,0,0" fill="#fff"/>
  </g>
  <g id="Groupe_1721" data-name="Groupe 1721" transform="translate(192.595 55.658)">
    <path id="Tracé_1303" data-name="Tracé 1303" d="M.016,0h14.55c0,.165.007.328.011.494H-.013C0,.328.007.165.016,0" transform="translate(0.013)" fill="#fff"/>
  </g>
  <g id="Groupe_1722" data-name="Groupe 1722" transform="translate(183.458 145.033)">
    <path id="Tracé_1304" data-name="Tracé 1304" d="M19.983.889C20.9,4.9,20.462,5.495,16.8,5.394c-9.634-.259-19.265-.679-28.9-.842-3.7-.063-3.392-2.874-4.083-5.272C-14.909,4.035-11.148,2.8-8,2.9c8.3.264,16.593.463,24.89.713,1.732.051,3.488.253,3.091-2.722" transform="translate(16.185 0.72)" fill="#2b2e34"/>
  </g>
</svg>
