<svg xmlns="http://www.w3.org/2000/svg" width="279.839" height="138.671" viewBox="0 0 279.839 138.671">
  <g id="Groupe_1601" data-name="Groupe 1601" transform="translate(0 7.156)">
    <path id="Tracé_1183" data-name="Tracé 1183" d="M22.916.015C13.9.015,4.887.048-4.128-.012c-1.855-.013-2.456.646-2.5,2.5-.127,5.879-.425,11.754-.691,17.632-.042.95-.293,1.888-.387,2.838-.049.487-.163,1.24.092,1.439,1.464,1.149.682,2.277.179,3.5A147.352,147.352,0,0,0-18.267,76.207a135.367,135.367,0,0,0,1.515,31.726c2.371,13.1,8.633,20.973,23.075,22.7a158.411,158.411,0,0,0,32.546.049c10.9-.965,19.489-7.017,22.092-18.494A90.157,90.157,0,0,0,63.518,94.31a271.89,271.89,0,0,0-.972-27.777c-1.026-12.519-4.4-24.544-8.8-36.3C53,28.266,50.653,26.2,53.288,23.9c.085-.072.018-.331,0-.5-.472-6.972-1.019-13.94-1.37-20.917C51.831.638,51.294-.025,49.431-.012,40.592.055,31.754.019,22.916.015" transform="translate(18.56 0.012)" fill="#fff"/>
  </g>
  <g id="Groupe_1602" data-name="Groupe 1602" transform="translate(0 7.156)">
    <path id="Tracé_1184" data-name="Tracé 1184" d="M22.916.016c8.838,0,17.676.038,26.512-.029,1.866-.013,2.4.65,2.494,2.494.351,6.977.9,13.944,1.37,20.917.011.17.08.429,0,.5-2.637,2.3-.284,4.364.454,6.333,4.4,11.754,7.779,23.779,8.8,36.3a272.528,272.528,0,0,1,.97,27.777,90.035,90.035,0,0,1-2.554,17.884c-2.606,11.475-11.189,17.527-22.092,18.492a158.253,158.253,0,0,1-32.546-.049c-14.443-1.73-20.707-9.607-23.075-22.7a135.507,135.507,0,0,1-1.517-31.728A147.466,147.466,0,0,1-7.433,27.892c.505-1.218,1.287-2.344-.179-3.5-.255-.2-.139-.952-.089-1.439.094-.95.342-1.888.387-2.838.266-5.875.563-11.752.691-17.632.04-1.855.639-2.514,2.494-2.5C4.885.047,13.9.014,22.916.016M56.734,51.6c0-.581-.123-1.339.018-1.39,2.284-.856,1.475-2.485,1-3.96C55.782,40.1,53.73,33.966,51.791,27.8c-.523-1.667-1.475-2.163-3.153-2.045-3.736.268-7.484.458-11.229.523-2.244.038-4.5-.342-4.948,2.845-.078.547-1.026.932-1.441,1.488a3.356,3.356,0,0,0-.831,1.752,84.733,84.733,0,0,0,.4,8.823,3.38,3.38,0,0,0,1.841,2.282c2.742,1.037,3.761,3.294,2.27,5.926a20.8,20.8,0,0,1-2.107,2.6q.959.543,1.933,1.093c3.068-5.9,8.373-7.627,12.941-4.306a23.073,23.073,0,0,0-1.126,2.979c-.577,2.431-1.435,5.2,1.03,6.907C49.893,60.42,51.567,58,53.587,56.4c.165,1.079.306,2,.438,2.867-3.475,1.4-4.344,2.905-2.86,5.681a58.075,58.075,0,0,0,4.353,6.181l-2.13,1.712.264.472,2.1-.179c.125,1.529.232,2.838.371,4.5l-2.15-1.482c-2.463,3.155.4,3.98,2.465,5.439-.5,1.318-.985,2.617-1.634,4.333.058.042.876.34.939.751a14,14,0,0,1-.078,3.187c-.174,2.127-.306,4.264-.621,6.371-.121.813-.948,1.54-1,2.337-.156,2.268.031,4.561-.165,6.822-.056.639-.923,1.258-1.508,1.783-.8.72-1.689,1.339-2.541,2l2.431,3.093a6.869,6.869,0,0,0-.378,1.779c-.022,1.305.147,2.615.237,3.924q1.7-1.036,3.4-2.074l-.232-.366h3.531l.114-.682-3.254-1.439c.317-1,.6-1.888.983-3.093.921,1.164,1.6,2.022,2.322,2.932,1.354-2.134,1.365-2.673.181-3.79-2.527-2.387-2.342-5.037.132-6.78V95.221c1.231.934,1.893,1.437,2.556,1.937.087-1-.069-2.054-.639-2.373-2.659-1.486-1.6-2.7-.212-3.569L59.748,87.3l2.507,1.2c.15-.165.3-.333.447-.5-.478-.653-.912-1.348-1.45-1.951-.7-.791-1.4-5.236-.623-5.683,3.254-1.875.793-3.73.293-5.754a53.159,53.159,0,0,1-.9-7.406,21.47,21.47,0,0,0-.206-3.2c-.416-1.6-1.093-3.124-1.658-4.679.136-.069.27-.139.407-.21l2.168,1.752c-.208-3.66-5.493-5.8-1.1-10.1l-2.9.825m-41.811-.717a41.153,41.153,0,0,0-.744,6.3c.092,2.943,2.751,4.139,5.173,2.472a7.728,7.728,0,0,0,3.343-6.4c.025-.72-.751-1.468-1.16-2.2-.646.487-1.593.842-1.877,1.491-.521,1.2-.51,2.626-1,3.846a13.028,13.028,0,0,1-1.8,2.554c-.507-.907-1.533-1.891-1.415-2.708a23.55,23.55,0,0,1,1.705-5.256c.825-2.072,2.045-3.5,4.59-2.264.259.125.782-.293,1.182-.46a12.778,12.778,0,0,0-5.24-.983c-2.375.02-3.227-1.352-3.155-3.381.127-3.651.44-7.3.679-10.948a47.578,47.578,0,0,0-3.946-6.572,4.3,4.3,0,0,0-.8-.056c-4.726-.179-9.453-.3-14.172-.568a2.3,2.3,0,0,0-2.662,1.937c-1.841,5.73-3.7,11.457-5.652,17.149-.514,1.5-.626,2.53.854,3.643A4.321,4.321,0,0,1-9.9,51.5c.094,3.314-1.187,6.188-4.114,9.028l4.443-.46c-.749-4.235-.492-4.816,2.923-7.017a20.675,20.675,0,0,1-1.678-2.624c-.206-.445-.154-1.437.13-1.611A73.236,73.236,0,0,1-.626,44.589c.619-.286,1.763.561,2.666.889A10.088,10.088,0,0,1-.054,47.53c-1.4.735-3.008,1.068-4.422,1.781-.487.246-.655,1.124-.968,1.714.664.34,1.348,1,1.982.959A8.507,8.507,0,0,0,2.983,48.14c1.676-2.358.532-4.885-2.369-4.825-2.3.049-4.592.863-6.97,1.354C-3.5,43-.823,40.585,2.82,42.082c2.834,1.167,2.418,3.875,2.094,6.4,4.836-1.993,6.139-1.558,9.31,2.954.279-.219.556-.436.7-.55M50.942,1.37H-5.592c-.179,1.984-.362,3.987-.577,6.358,6.221.4,12.078.784,17.94,1.14a2.514,2.514,0,0,0,1.254-.27C18.6,5.665,24.55,6.622,30.195,7.679a30.715,30.715,0,0,0,7.354.956c4.583-.253,9.158-.646,13.949-1-.217-2.431-.389-4.369-.556-6.268M20.63,27.972c-1.752,1.095-3.969,1.14-4.172,3.835-.286,3.815-.711,7.62-.934,11.437-.054.883.358,2.53.733,2.583,2.579.369,5.576,1.292,7.745.38,5.777-2.422,5.649-2.755,5.321-9.106a22.433,22.433,0,0,1-.4-3.164c.324-3.267-.963-5.158-4.4-5.667a8.79,8.79,0,0,1,2.72.159,5.144,5.144,0,0,0,2.369.054c.3-.121.168-1.321.239-2.089H15.325c.154.825.085,1.984.465,2.156a4.805,4.805,0,0,0,2.371-.121c.829-.116,1.647-.3,2.469-.456M-6.463,15.163v5.3c5.531.19,10.934.284,16.324.606,2.219.134,3-.847,3.189-2.606C6.583,17.371.178,16.285-6.463,15.163m58.216,0L31.591,18.575c1.084.972,1.9,2.344,2.729,2.346,5.752.027,11.506-.228,17.433-.4ZM13.146,10.423c1.218.762,2.085,1.763,2.992,1.8,4.349.174,8.711.177,13.06.016.874-.031,1.71-1.037,2.76-1.721-6.438-3.893-12.268-3.8-18.812-.094m38.982,1.893c-.465-.273-.541-.358-.612-.353-6.729.328-13.46.63-20.181,1.059-.588.038-1.12.921-1.678,1.412.109.239.217.48.326.72,6.8-.4,13.6-.758,20.383-1.251.592-.045,1.117-.981,1.763-1.587m-58.428-.5c-.139.228-.275.456-.413.684.6.494,1.178,1.372,1.815,1.419,6.731.485,13.473.84,20.213,1.229l.349-.994a8.343,8.343,0,0,0-2.514-1.178c-3.193-.295-6.407-.378-9.611-.561-3.281-.188-6.559-.4-9.837-.6m4.91,54.2c.1-.194.194-.389.293-.583a16.683,16.683,0,0,1-1.225-1.155,48.294,48.294,0,0,1-4.2-5.028c-.4-.6.172-1.846.3-2.8A10.165,10.165,0,0,1-3.5,57.962c.892.941,1.292,2.351,2.188,3.287.539.563,1.618.608,2.454.887.074-.907.561-2.2.143-2.65A26.049,26.049,0,0,0-4,54.913c-.726-.447-2.608.018-3.287.72a3.625,3.625,0,0,0-.644,3.334A44.35,44.35,0,0,0-3.317,65.32c.369.454,1.269.474,1.926.695M-4.76,96.24c-3.879,1.316-5.855,8.845-3.115,11.082a4.237,4.237,0,0,0,3.412.429c2.411-.755,4.483-4.816,3.917-7.287-.139-.6-.742-1.091-1.133-1.631-.594.429-1.475.737-1.725,1.316-.518,1.209-.559,2.619-1.07,3.83a15.55,15.55,0,0,1-1.888,2.733,14.832,14.832,0,0,1-1.453-2.825,3.5,3.5,0,0,1,.485-2c.762-1.779,1.6-3.526,2.57-5.649m52.517-5.122c-1.055.914-1.951,1.314-2.17,1.951a18.67,18.67,0,0,0-1.426,5.882,4.524,4.524,0,0,0,2.092,3.551,4.27,4.27,0,0,0,3.915-1.2c1.146-1.636,1.571-3.81,2.127-5.806.145-.525-.337-1.222-.532-1.844-.653.3-1.7.458-1.879.939-.561,1.477-.637,3.14-1.207,4.61-.326.845-1.247,1.461-1.9,2.179-.449-.769-1.392-1.634-1.265-2.288.472-2.407,1.3-4.746,2.244-7.976M12.766,12.07l.514-.742c-.637-.536-1.238-1.486-1.92-1.546Q3.413,9.058-4.564,8.687c-.693-.031-1.426.827-2.141,1.274.141.311.279.619.418.93l19.053,1.18m38.872-1.2c.463-2.313-.735-2.335-2.11-2.235-5.046.369-10.1.657-15.138,1.122-.766.069-1.464.905-2.192,1.386l.456.93,18.984-1.2M29.717,22.908c-2.787-3.477-12.371-3.218-13.627,0Zm23.149.753c-.825-.346-1.05-.527-1.272-.521-5.593.152-11.187.311-16.778.527-.391.016-.766.472-1.149.724.425.3.856.86,1.274.849q7.854-.188,15.705-.552c.608-.029,1.2-.536,2.219-1.028M-6.9,22.978c1.678,2.32,13.033,3.091,18.579,1.958-.132-.391-.241-1.093-.387-1.1C5.231,23.509-.834,23.248-6.9,22.978M1.638,87.249a24.366,24.366,0,0,0-2.872-3.1c-.317-.241-1.473.125-1.806.554a2.036,2.036,0,0,0,.049,1.866c1.6,2.489,1.321,3.571-1.193,5.2-.585.38-.751,1.408-1.108,2.139.878,0,2.224.36,2.559-.069,1.537-1.964,2.793-4.152,4.371-6.6M35.051,63.244c-1.5.851-2.657,1.225-3.345,2.009-.362.416-.132,1.687.264,2.291.2.313,1.522.273,2.043-.063,2.387-1.54,3.654-1.24,5.549,1.287.407.545,1.368.675,2.072,1,.031-.849.413-2.194.034-2.465-2.1-1.5-4.387-2.729-6.615-4.056M13.457,104c-1.417-.8-2.7-2.136-3.607-1.92a31.133,31.133,0,0,0-7.176,2.939c-.48.255-.291,1.77-.409,2.7.809-.384,1.888-.561,2.373-1.193,1.629-2.121,3.111-2.434,5.455-.943a2.155,2.155,0,0,0,1.667.223c.48-.174.793-.8,1.7-1.81m6.5-42.747a16.479,16.479,0,0,0-3.294,2.156c-.313.346-.06,1.558.333,2.069a1.982,1.982,0,0,0,1.857.121c3.041-1.645,3.7-1.491,5.795,1.22.4.523,1.388.6,2.1.88-.009-.858.324-2.212-.083-2.492-2.134-1.468-4.456-2.666-6.711-3.955M-.038,72.357a67.045,67.045,0,0,0-6.288,3.486c-.53.36-.342,1.77-.483,2.7.8-.342,1.893-.463,2.355-1.066,1.685-2.19,3.115-2.494,5.417-1.122.574.344,1.558.007,2.353-.02-.045-.8.219-1.891-.2-2.346-.641-.695-1.756-.952-3.153-1.629m22.72-48.678a.017.017,0,0,1,0,.011c-1.949,0-3.9-.06-5.844.047-.46.025-.889.61-1.334.936.429.331.854.939,1.287.945q5.853.094,11.705-.036c.445-.009.878-.594,1.316-.914-.514-.328-1.012-.91-1.544-.945-1.855-.116-3.723-.045-5.584-.045M4.672.175c.007.152.011.3.018.456H41.3V.175Zm10.452,104.36a26.771,26.771,0,0,1,2.288,2.472c.717.99,1.209,2.145,1.891,3.167a3.834,3.834,0,0,0,1.345,1.251c1.323.675,2.078.022,2.152-1.3.156-2.82-4.619-6.418-7.676-5.587M35.314,73.7a17.68,17.68,0,0,1-.543,2.543c-1.1,3-.751,4.979,1.705,6.834.711.536,1.993.317,3.012.442-.463-.769-.753-1.781-1.423-2.266-2.1-1.515-2.4-2.86-.849-5.086.956-1.365.333-2.217-1.9-2.467m-21.23-4.409c1.676,2.355,2.93,4.324,4.42,6.1.483.572,1.587.621,2.4.912.107-.825.615-2,.253-2.409a43.542,43.542,0,0,0-5.073-4.762c-.366-.3-1.3.087-2,.163m2.639-56.046c.018,1.859.018,1.859,5.462,2,6.2.161,6.382.1,6.5-2Zm24.2,87.229c1.937-3.334.8-6.528-2.177-8.478-2.235-1.464-4.016-1.272-5.652.867,6.063-1.6,6.905,2.742,7.828,7.611M-13.158,49.733c-.664,3.032-1.3,5.913-2.018,9.207,4.364-2.912,5.359-7.254,2.018-9.207m52.28,56c6.42-1.788,7.147,2.686,8.183,6.887,1.721-2.492.959-5.343-1.549-7.426-2.333-1.935-4.344-1.94-6.635.539M-7.656,87.848c1.779-2.711.811-5.911-1.917-7.9-2.248-1.634-4.2-1.5-5.819.684,5.929-1.4,6.869,2.8,7.736,7.211M4.263,70c.889-2.085,1.258-4.324,2.563-5.614,1.209-1.193,3.421-1.377,5.077-1.964-1.567-1.631-3.213-1.68-5.526.058-2.664,2-3.558,4.878-2.114,7.52M23.815,80.165c.067-.244.134-.487.2-.733-1.2-.275-2.429-.872-3.589-.755-2.458.241-4.9,2.9-5.348,5.636a9.16,9.16,0,0,0,.4,2.751c.237-.054.474-.11.708-.165,1.611-6.749,3.03-7,7.623-6.733M-14.1,65.45c6.342-1.781,6.914,2.856,8.107,6.9,1.638-2.682.606-5.859-2.123-7.8-2.355-1.674-4.072-1.546-5.984.9M5.872,113.062c-2.148-2.253-4.729-2.016-7.017.387-2.2,2.311-2.583,5.041-.905,6.427,2.353-6.822,2.784-7.214,7.922-6.814M-10.2,100.821c1.984-3.124.592-6.789-2.556-8.492-2.072-1.12-3.43-.889-4.188.825,5.22-.527,6.038,3.251,6.744,7.667M16.825,18.244c.885,1.841,2.206,2.051,9.772,1.58a6.394,6.394,0,0,0,1.982-.876l-.282-.7H16.825ZM7.564,70.116c4.163.51,6.333-1.931,5.806-6.4-2.21,2.436-4.009,4.418-5.806,6.4M.219,94.642c-.369,4.811,2.6,7.777,5.85,6.338C4.2,98.957,2.44,97.048.219,94.642m12.628-9.627A6.3,6.3,0,0,0,9.64,76.232c-1.929-.856-2.666-.653-3.437,1.059,5.066-.416,5.728,3.446,6.644,7.723m.872,30.211c-.838,4.476,2.083,7.609,5.857,6.606-1.946-2.2-3.723-4.2-5.857-6.606m25.344-8.541c-1.039,4.087.992,6.373,5.571,6.521-2.127-2.489-3.85-4.505-5.571-6.521M-14.4,66.4c-.228.188-.456.375-.684.565-.219,3.687,2.246,6.255,6.132,5.631-1.967-2.235-3.707-4.217-5.448-6.2M-2.993,53.414c1.817,1.321,3.437,2.5,5.14,3.741.21-2.57.364-4.445.525-6.4l-5.665,2.657M9.9,117.029l-1.028-.1c-.067,2.418-4.081,3.777-1.665,6.709.822,1,2.561,1.249,3.884,1.841-2.514-2.476-2.7-3.506-1.126-6.239.313-.545-.027-1.466-.065-2.212m-8.883,3.316.664.612c3.908-.644,5.879-3.039,4.867-6.928-2.038,2.329-3.786,4.322-5.531,6.315M37.965,99.86c-1.786-1.946-3.571-3.891-5.754-6.268-.552,4.411,1.5,6.724,5.754,6.268M25.149,82.087l-.706-.608c-1.748,2-3.493,4-5.611,6.431,4.235.054,5.687-1.5,6.317-5.824M4.643,78.943C3.477,82.91,6.257,85.728,9.9,84.84c-1.866-2.094-3.56-4-5.256-5.9M-16.11,81.464c-.248,4.992,1.439,6.992,5.705,6.742l-5.705-6.742M.154,15.223A46.294,46.294,0,0,0,14.4,17.049c.022-.36.045-.72.067-1.077L.154,15.223m30.852.7c-.045.351-.092.7-.139,1.057a44.011,44.011,0,0,0,14.394-1.756l-14.255.7M15.5,17.078H29.755c-1.817-1.3-12.242-1.334-14.253,0m3.857,50.6c-.074.253-.147.505-.219.755,2.235,2.2,6.34,2.963,8.291,1.258-2.827-.706-5.45-1.359-8.072-2.013M11.28,22.321l.016-.472H-6.47c-.007.156-.016.315-.025.472Zm40.515,0c-.013-.3-.029-.6-.042-.894q-8.8.389-17.6.775l.013.118ZM14.063,95.328c.156.094.313.185.472.277,2.59-.916,5.18-1.832,7.873-2.787-1.832-1.732-3.734-.905-5.415-.076a14.5,14.5,0,0,0-2.93,2.586M1.336,109.84c2.324,1.7,6.93.679,9.2-2.217l-9.2,2.217M.726,78.621l-8.407,2.188A6.549,6.549,0,0,0,.726,78.621M45.469,49.988c-1.96-1.627-3.917-.889-5.676.038a12.921,12.921,0,0,0-2.63,2.539c.145.074.291.145.438.219l7.868-2.8m-6,9.462c2.76,1,5.243,1.906,7.828,2.845.011-2.116-1.792-2.682-3.339-3.274-1.491-.574-3.164-1.207-4.489.429M40.293,76.2l-.789.228c.675,2.4,1.352,4.809,2.1,7.471,1.58-2.362.9-5.665-1.312-7.7m1.4,40.774,8.3.617c.1-.194.2-.389.3-.581-1.14-.525-2.429-1.667-3.392-1.437-1.71.4-4.168-1.108-5.216,1.4m-28.946-27.1c-1.423-1.837-3.278-1.866-5.222-1.569-2.3.353-2.512.532-3.015,2.083l8.237-.514M13.477,108c.2,3.645,3.348,7.041,6.387,6.905L13.477,108M32.313,74.429c-1.289-2.02-3.345-1.692-5.24-1.537-1.423.114-2.927.387-3.108,2.116l8.349-.579M44.743,51.6l-6.367,4.031c3.211,1.075,6.275-.889,6.367-4.031M17.12,78.744l-4.943-6.916C11.048,73.913,14,78.661,17.12,78.744M26,52c3.325.972,6.414-1.008,6.438-3.924C30.34,49.354,28.32,50.587,26,52M24.995,76.25c1.763,2.885,5.5,3.336,7.435,1.064L24.995,76.25M-8.821,115.867c.822,2.789,1.578,5.348,2.413,8.179,1.278-3.739.136-7.573-2.413-8.179M12.994,92.691l-7.526-.95a4.726,4.726,0,0,0,7.526.95m2.335,5.75c3.4,1.023,6.7-1.2,6.145-3.864L15.33,98.441M46.468,65.066c-2.427-1.464-4.44-2.679-6.945-4.192,1.249,3.622,3.629,4.992,6.945,4.192M42.345,71.75c-2.829-.724-5.437-1.39-8.586-2.2,1.457,2.165,7.1,3.464,8.586,2.2M22.588,121.8c1.674-2.284.943-3.973.011-5.553-.351-.594-1.131-.932-1.716-1.386-.11.177-.221.355-.333.532.635,1.991,1.267,3.98,2.038,6.407M9.247,101.509c1.674-3.638.8-5.933-1.649-6.036.489,1.792.977,3.573,1.649,6.036m-25.428-4.776c-.559,3.955-.244,4.373,3.144,4.322-1.18-1.625-2.163-2.972-3.144-4.322m59.838,23.109c-.042.228-.087.456-.132.684a8.216,8.216,0,0,0,2.775.333,9.151,9.151,0,0,0,2.5-1.508l-.429-.775-4.711,1.267M31.408,100.061c.2,2,.358,3.546.568,5.611,2.237-2.912,2.118-3.868-.568-5.611M-2.921,122.942l2.684,4.887c.525-3.381-.1-4.353-2.684-4.887m43.409-5.082c-2.684,1.908-2.775,3.515-.467,5.037.147-1.609.286-3.1.467-5.037M22.633,105.475l.979.136q.942-1.944,1.888-3.888c-.992-.139-1.931.067-2.181.6a13.282,13.282,0,0,0-.686,3.153M7.213,55.765c-.219-.261-.44-.521-.659-.78a8.58,8.58,0,0,0-1.915,2.094,6.044,6.044,0,0,0,.074,2.494l.731-.069q.885-1.87,1.77-3.739m29.3,62.589c.105-3.3-.666-4.4-3.184-4.751,1,1.493,2,2.986,3.184,4.751m-6.981-11.882c-1.694,2.72-1.386,4.081.961,5.654-.3-1.748-.594-3.5-.961-5.654M29.656,59.9c-3.017.729-3.593,2.1-2.148,4.693L29.656,59.9" transform="translate(18.56 0.013)" fill="#aa5144"/>
  </g>
  <g id="Groupe_1603" data-name="Groupe 1603" transform="translate(48.748 32.909)">
    <path id="Tracé_1185" data-name="Tracé 1185" d="M14.667,14.289c.731-.208,1.327-.378,2.9-.822-4.391,4.3.894,6.44,1.1,10.1C17.7,22.785,17.1,22.3,16.5,21.817l-.407.208c.565,1.555,1.242,3.084,1.658,4.679a20.887,20.887,0,0,1,.206,3.2,53.572,53.572,0,0,0,.9,7.408c.5,2.022,2.961,3.877-.293,5.752-.775.449-.08,4.892.626,5.685.536.6.97,1.3,1.448,1.949-.147.168-.3.333-.447.5l-2.507-1.2c.476,1.493.813,2.561,1.242,3.913-1.392.865-2.447,2.083.212,3.569.57.32.726,1.377.639,2.375-.661-.5-1.323-1.006-2.556-1.94v7.464c-2.472,1.745-2.659,4.393-.13,6.78,1.182,1.117,1.171,1.656-.183,3.792-.72-.912-1.4-1.77-2.322-2.934-.382,1.2-.664,2.092-.983,3.093,1.135.5,2.194.972,3.254,1.439l-.114.682H13.21l.232.366q-1.7,1.039-3.4,2.074c-.089-1.31-.259-2.619-.237-3.924a6.8,6.8,0,0,1,.38-1.777l-2.434-3.1c.851-.661,1.741-1.283,2.541-2,.588-.525,1.453-1.144,1.508-1.781.2-2.264.011-4.557.165-6.823.056-.8.883-1.526,1-2.34.315-2.107.449-4.244.621-6.371a13.993,13.993,0,0,0,.08-3.187c-.063-.411-.883-.706-.939-.749l1.631-4.335C12.3,42.821,9.442,42,11.9,38.841l2.15,1.482c-.136-1.663-.246-2.972-.371-4.5l-2.1.177c-.087-.156-.174-.315-.264-.472l2.13-1.712A58.146,58.146,0,0,1,9.1,27.639c-1.484-2.775-.615-4.286,2.863-5.683-.134-.872-.275-1.788-.44-2.867-2.02,1.6-3.692,4.018-6.212,2.268-2.465-1.714-1.607-4.478-1.03-6.91A23.747,23.747,0,0,1,5.4,11.468C.839,8.148-4.467,9.871-7.537,15.775q-.975-.55-1.933-1.093a20.6,20.6,0,0,0,2.107-2.6c1.493-2.632.472-4.889-2.27-5.926a3.381,3.381,0,0,1-1.841-2.282,85.351,85.351,0,0,1-.4-8.823A3.344,3.344,0,0,1-11.045-6.7c.413-.556,1.363-.941,1.439-1.488.447-3.187,2.7-2.807,4.948-2.845,3.745-.065,7.493-.255,11.229-.521,1.678-.121,2.63.375,3.155,2.043,1.94,6.165,3.991,12.3,5.962,18.452.472,1.475,1.283,3.1-1,3.96-.141.054-.018.811-.018,1.39M9.652,9.978,8.276,9.692a65.466,65.466,0,0,0-3.144,7.623c-.244.851.945,2.114,1.479,3.187a16.123,16.123,0,0,0,1.875-2.863,18.9,18.9,0,0,0,.985-4.105,33.55,33.55,0,0,0,.181-3.555m2.416,20.248,1.086-.438A44.278,44.278,0,0,0,12.4,25.1c-.123-.474-.979-.755-1.5-1.126-.349.518-1.1,1.182-.977,1.531.579,1.622,1.4,3.158,2.139,4.724" transform="translate(11.879 11.573)" fill="#fff"/>
  </g>
  <g id="Groupe_1604" data-name="Groupe 1604" transform="translate(4.547 32.908)">
    <path id="Tracé_1186" data-name="Tracé 1186" d="M15.988,13.893c-.143.112-.42.331-.7.547-3.171-4.51-4.474-4.945-9.31-2.952.324-2.525.74-5.231-2.094-6.4-3.643-1.5-6.315.921-9.176,2.586,2.378-.489,4.666-1.3,6.97-1.352,2.9-.063,4.045,2.467,2.369,4.825A8.513,8.513,0,0,1-2.4,14.993c-.635.045-1.318-.621-1.982-.959.313-.59.48-1.468.968-1.714C-2,11.607-.388,11.274,1.011,10.539A10.044,10.044,0,0,0,3.1,8.485C2.2,8.159,1.058,7.31.439,7.6a73.674,73.674,0,0,0-7.571,4.228c-.284.174-.335,1.167-.13,1.611a21.1,21.1,0,0,0,1.676,2.626c-3.412,2.2-3.669,2.78-2.921,7.015l-4.443.46c2.927-2.84,4.208-5.714,4.114-9.028a4.321,4.321,0,0,0-1.274-3.024c-1.479-1.113-1.368-2.141-.854-3.643C-9.011,2.148-7.152-3.577-5.311-9.307a2.3,2.3,0,0,1,2.662-1.937c4.72.27,9.446.389,14.172.565a4.5,4.5,0,0,1,.8.058,47.578,47.578,0,0,1,3.946,6.572c-.239,3.649-.552,7.3-.679,10.948-.072,2.029.78,3.4,3.155,3.381a12.778,12.778,0,0,1,5.24.983c-.4.165-.923.585-1.182.46-2.545-1.231-3.765.19-4.59,2.264a23.513,23.513,0,0,0-1.705,5.256c-.118.818.907,1.8,1.415,2.708a13.028,13.028,0,0,0,1.8-2.554c.492-1.22.478-2.648,1-3.848.284-.646,1.231-1,1.877-1.488.409.735,1.184,1.484,1.16,2.2a7.728,7.728,0,0,1-3.343,6.4c-2.422,1.667-5.082.472-5.173-2.472a41.121,41.121,0,0,1,.744-6.3" transform="translate(12.949 11.253)" fill="#fff"/>
  </g>
  <g id="Groupe_1605" data-name="Groupe 1605" transform="translate(12.393 8.54)">
    <path id="Tracé_1187" data-name="Tracé 1187" d="M31.554,0c.17,1.9.34,3.835.556,6.268-4.791.351-9.366.742-13.947,1a30.719,30.719,0,0,1-7.357-.956C5.162,5.252-.789,4.3-6.36,7.225a2.48,2.48,0,0,1-1.256.27c-5.862-.353-11.719-.737-17.94-1.14.215-2.369.4-4.371.579-6.355Z" transform="translate(25.556)" fill="#fff"/>
  </g>
  <g id="Groupe_1606" data-name="Groupe 1606" transform="translate(33.885 33.561)">
    <path id="Tracé_1188" data-name="Tracé 1188" d="M2.932.873c-.822.154-1.64.34-2.469.456a4.805,4.805,0,0,1-2.371.121c-.38-.172-.313-1.332-.467-2.156h14.53c-.069.769.063,1.969-.237,2.089a5.124,5.124,0,0,1-2.371-.056,8.858,8.858,0,0,0-2.72-.156c3.435.51,4.722,2.4,4.4,5.667a22.442,22.442,0,0,0,.4,3.164c.328,6.351.454,6.684-5.323,9.106-2.168.912-5.164-.011-7.745-.38-.373-.054-.784-1.7-.733-2.583.226-3.817.65-7.623.936-11.437.2-2.7,2.42-2.74,4.172-3.835" transform="translate(2.375 0.707)" fill="#fff"/>
  </g>
  <g id="Groupe_1607" data-name="Groupe 1607" transform="translate(12.098 22.331)">
    <path id="Tracé_1189" data-name="Tracé 1189" d="M0,0,19.513,3.3c-.188,1.756-.97,2.737-3.189,2.606C10.934,5.584,5.531,5.491,0,5.3Z" fill="#fff"/>
  </g>
  <g id="Groupe_1608" data-name="Groupe 1608" transform="translate(50.151 22.327)">
    <path id="Tracé_1190" data-name="Tracé 1190" d="M11.141,0V5.363c-5.926.172-11.681.429-17.433.4-.827,0-1.647-1.374-2.731-2.349L11.141,0" transform="translate(9.023)" fill="#fff"/>
  </g>
  <g id="Groupe_1609" data-name="Groupe 1609" transform="translate(31.708 14.79)">
    <path id="Tracé_1191" data-name="Tracé 1191" d="M0,1.548c6.543-3.705,12.371-3.8,18.812.1-1.05.684-1.888,1.687-2.76,1.721-4.351.159-8.713.156-13.06-.016C2.085,3.311,1.216,2.312,0,1.548" transform="translate(0 1.253)" fill="#fff"/>
  </g>
  <g id="Groupe_1610" data-name="Groupe 1610" transform="translate(48.216 19.132)">
    <path id="Tracé_1192" data-name="Tracé 1192" d="M12.416.2C11.77.8,11.245,1.737,10.655,1.782,3.866,2.276-2.932,2.638-9.73,3.033c-.107-.241-.217-.48-.326-.72C-9.5,1.822-8.965.939-8.378.9-1.656.472,5.077.171,11.806-.158c.069,0,.145.08.61.353" transform="translate(10.056 0.158)" fill="#fff"/>
  </g>
  <g id="Groupe_1611" data-name="Groupe 1611" transform="translate(11.848 18.987)">
    <path id="Tracé_1193" data-name="Tracé 1193" d="M.228,0c3.278.2,6.557.411,9.837.6,3.2.183,6.416.268,9.611.563a8.343,8.343,0,0,1,2.514,1.178q-.174.5-.351.994C15.1,2.941,8.36,2.588,1.627,2.1.993,2.056.418,1.175-.185.684-.046.456.09.228.228,0" transform="translate(0.185)" fill="#fff"/>
  </g>
  <g id="Groupe_1612" data-name="Groupe 1612" transform="translate(10.442 61.906)">
    <path id="Tracé_1194" data-name="Tracé 1194" d="M3.718,6.231c-.657-.219-1.558-.239-1.926-.693A44.2,44.2,0,0,1-2.825-.817a3.621,3.621,0,0,1,.644-3.332C-1.5-4.853.377-5.318,1.1-4.871A26.131,26.131,0,0,1,6.4-.3c.418.451-.072,1.745-.143,2.65C5.416,2.075,4.337,2.03,3.8,1.465,2.9.528,2.5-.88,1.611-1.823A10.1,10.1,0,0,0-1.111-3.331c-.127.95-.7,2.192-.3,2.8a48.55,48.55,0,0,0,4.2,5.026c.369.42.816.773,1.225,1.155-.1.194-.194.389-.291.583" transform="translate(3.011 5.047)" fill="#fff"/>
  </g>
  <g id="Groupe_1613" data-name="Groupe 1613" transform="translate(9.412 103.409)">
    <path id="Tracé_1195" data-name="Tracé 1195" d="M2.424,0C1.452,2.123.617,3.87-.146,5.647a3.5,3.5,0,0,0-.485,2A14.778,14.778,0,0,0,.824,10.47,15.557,15.557,0,0,0,2.71,7.739c.514-1.211.552-2.624,1.07-3.83.25-.579,1.131-.887,1.727-1.318.389.541.994,1.032,1.131,1.631.568,2.472-1.5,6.532-3.917,7.29a4.24,4.24,0,0,1-3.412-.429C-3.428,8.845-1.455,1.316,2.424,0" transform="translate(1.964)" fill="#fff"/>
  </g>
  <g id="Groupe_1614" data-name="Groupe 1614" transform="translate(62.723 98.286)">
    <path id="Tracé_1196" data-name="Tracé 1196" d="M1.987,0C1.041,3.229.215,5.569-.257,7.976c-.127.657.813,1.52,1.265,2.288.653-.717,1.573-1.332,1.9-2.177.57-1.473.646-3.135,1.2-4.612.183-.48,1.229-.635,1.882-.936.194.619.677,1.318.532,1.841-.556,2-.981,4.172-2.127,5.806a4.259,4.259,0,0,1-3.915,1.2A4.511,4.511,0,0,1-1.609,7.833,18.685,18.685,0,0,1-.183,1.951C.036,1.316.932.914,1.987,0" transform="translate(1.609)" fill="#fff"/>
  </g>
  <g id="Groupe_1615" data-name="Groupe 1615" transform="translate(11.858 15.856)">
    <path id="Tracé_1197" data-name="Tracé 1197" d="M10.757,1.87-8.3.69l-.416-.932C-8-.687-7.264-1.545-6.571-1.514Q1.4-1.145,9.353-.421c.679.063,1.28,1.01,1.917,1.549-.17.248-.342.494-.514.742" transform="translate(8.712 1.514)" fill="#fff"/>
  </g>
  <g id="Groupe_1616" data-name="Groupe 1616" transform="translate(50.76 15.778)">
    <path id="Tracé_1198" data-name="Tracé 1198" d="M10.741,1.251l-18.984,1.2q-.228-.463-.456-.93C-7.97,1.043-7.273.21-6.5.138-1.468-.326,3.585-.615,8.631-.983c1.377-.1,2.572-.078,2.11,2.235" transform="translate(8.699 1.013)" fill="#fff"/>
  </g>
  <g id="Groupe_1617" data-name="Groupe 1617" transform="translate(34.651 27.565)">
    <path id="Tracé_1199" data-name="Tracé 1199" d="M7.528,1.388H-6.1c1.254-3.218,10.838-3.477,13.625,0" transform="translate(6.097 1.124)" fill="#fff"/>
  </g>
  <g id="Groupe_1618" data-name="Groupe 1618" transform="translate(52.229 30.308)">
    <path id="Tracé_1200" data-name="Tracé 1200" d="M10.606.289C9.582.778,9,1.288,8.387,1.317q-7.847.369-15.7.552c-.418.009-.849-.554-1.274-.849C-8.208.767-7.835.309-7.444.3-1.85.079,3.743-.08,9.337-.234c.221-.007.447.177,1.269.523" transform="translate(8.59 0.234)" fill="#fff"/>
  </g>
  <g id="Groupe_1619" data-name="Groupe 1619" transform="translate(11.661 30.145)">
    <path id="Tracé_1201" data-name="Tracé 1201" d="M0,0C6.065.27,12.13.534,18.193.858c.147.009.257.708.387,1.1C13.033,3.093,1.68,2.32,0,0" fill="#fff"/>
  </g>
  <g id="Groupe_1620" data-name="Groupe 1620" transform="translate(13.268 91.246)">
    <path id="Tracé_1202" data-name="Tracé 1202" d="M3.829,1.752C2.253,4.2,1,6.385-.542,8.349c-.333.429-1.678.067-2.559.069.36-.731.523-1.759,1.108-2.139C.524,4.649.8,3.567-.8,1.078A2.029,2.029,0,0,1-.848-.788c.335-.429,1.491-.8,1.806-.554a24.213,24.213,0,0,1,2.872,3.1" transform="translate(3.101 1.419)" fill="#fff"/>
  </g>
  <g id="Groupe_1621" data-name="Groupe 1621" transform="translate(50.086 70.414)">
    <path id="Tracé_1203" data-name="Tracé 1203" d="M1.949,0C4.177,1.325,6.463,2.561,8.561,4.056c.382.27,0,1.613-.031,2.463-.706-.32-1.665-.451-2.074-.994C4.563,3,3.294,2.7.907,4.237c-.521.335-1.837.375-2.043.063-.393-.6-.626-1.877-.261-2.293C-.71,1.225.445.851,1.949,0" transform="translate(1.578)" fill="#fff"/>
  </g>
  <g id="Groupe_1622" data-name="Groupe 1622" transform="translate(20.827 109.223)">
    <path id="Tracé_1204" data-name="Tracé 1204" d="M6.183,1.073c-.9,1.006-1.216,1.636-1.7,1.81A2.153,2.153,0,0,1,2.82,2.659C.476,1.171-1.006,1.482-2.635,3.6-3.12,4.237-4.2,4.413-5.008,4.8c.118-.934-.072-2.449.409-2.7A30.9,30.9,0,0,1,2.577-.845c.91-.219,2.19,1.117,3.607,1.917" transform="translate(5.008 0.869)" fill="#fff"/>
  </g>
  <g id="Groupe_1623" data-name="Groupe 1623" transform="translate(35.082 68.419)">
    <path id="Tracé_1205" data-name="Tracé 1205" d="M1.9,0C4.152,1.289,6.474,2.485,8.608,3.955c.407.279.076,1.634.083,2.492-.715-.282-1.7-.358-2.1-.88C4.492,2.854,3.835,2.7.8,4.344a1.981,1.981,0,0,1-1.859-.118c-.393-.514-.646-1.725-.331-2.072A16.393,16.393,0,0,1,1.9,0" transform="translate(1.537)" fill="#fff"/>
  </g>
  <g id="Groupe_1624" data-name="Groupe 1624" transform="translate(11.751 79.527)">
    <path id="Tracé_1206" data-name="Tracé 1206" d="M3.741,0c1.4.677,2.512.934,3.153,1.629.42.454.159,1.542.2,2.346C6.3,4,5.317,4.34,4.742,4,2.443,2.621,1.01,2.927-.675,5.117c-.463.6-1.553.724-2.355,1.066.141-.927-.047-2.337.483-2.7A66.591,66.591,0,0,1,3.741,0" transform="translate(3.03)" fill="#fff"/>
  </g>
  <g id="Groupe_1625" data-name="Groupe 1625" transform="translate(34.063 30.827)">
    <path id="Tracé_1207" data-name="Tracé 1207" d="M3.967.012c1.861,0,3.73-.072,5.584.045C10.083.09,10.582.671,11.1,1c-.438.32-.872.905-1.316.914q-5.849.127-11.705.036c-.434-.007-.858-.615-1.287-.945C-2.768.68-2.339.095-1.879.068.063-.037,2.016.023,3.965.023a.017.017,0,0,0,0-.011" transform="translate(3.213 0.01)" fill="#fff"/>
  </g>
  <g id="Groupe_1626" data-name="Groupe 1626" transform="translate(23.232 7.344)">
    <path id="Tracé_1208" data-name="Tracé 1208" d="M0,0H36.629V.456H.018C.011.3.007.152,0,0" fill="#fff"/>
  </g>
  <g id="Groupe_1627" data-name="Groupe 1627" transform="translate(33.685 111.582)">
    <path id="Tracé_1209" data-name="Tracé 1209" d="M0,.067C3.057-.764,7.833,2.834,7.676,5.654c-.074,1.325-.829,1.978-2.152,1.3A3.834,3.834,0,0,1,4.179,5.705C3.5,4.684,3.006,3.529,2.288,2.539A26.772,26.772,0,0,0,0,.067" transform="translate(0 0.054)" fill="#fff"/>
  </g>
  <g id="Groupe_1628" data-name="Groupe 1628" transform="translate(52.739 80.865)">
    <path id="Tracé_1210" data-name="Tracé 1210" d="M.628,0c2.235.25,2.858,1.1,1.9,2.467C.974,4.693,1.278,6.038,3.379,7.553c.67.485.961,1.5,1.423,2.266-1.019-.125-2.3.094-3.012-.442C-.666,7.522-1.013,5.542.085,2.543A17.68,17.68,0,0,0,.628,0" transform="translate(0.508)" fill="#fff"/>
  </g>
  <g id="Groupe_1629" data-name="Groupe 1629" transform="translate(32.646 76.181)">
    <path id="Tracé_1211" data-name="Tracé 1211" d="M0,.151C.708.078,1.636-.311,2-.009A43.522,43.522,0,0,1,7.077,4.75c.362.407-.145,1.584-.253,2.409C6,6.871,4.9,6.82,4.42,6.248,2.93,4.478,1.676,2.507,0,.151" transform="translate(0 0.123)" fill="#fff"/>
  </g>
  <g id="Groupe_1630" data-name="Groupe 1630" transform="translate(35.284 20.41)">
    <path id="Tracé_1212" data-name="Tracé 1212" d="M0,0H11.96c-.116,2.105-.295,2.163-6.5,2C.018,1.859.018,1.859,0,0" fill="#fff"/>
  </g>
  <g id="Groupe_1631" data-name="Groupe 1631" transform="translate(51.66 98.212)">
    <path id="Tracé_1213" data-name="Tracé 1213" d="M4.325,5.209C3.4.339,2.56-4-3.5-2.4c1.636-2.141,3.417-2.333,5.652-.869C5.13-1.319,6.263,1.872,4.325,5.209" transform="translate(3.503 4.219)" fill="#fff"/>
  </g>
  <g id="Groupe_1632" data-name="Groupe 1632" transform="translate(3.385 56.903)">
    <path id="Tracé_1214" data-name="Tracé 1214" d="M1.115,0C4.456,1.953,3.461,6.3-.9,9.207-.181,5.913.451,3.032,1.115,0" transform="translate(0.903)" fill="#fff"/>
  </g>
  <g id="Groupe_1633" data-name="Groupe 1633" transform="translate(57.683 110.975)">
    <path id="Tracé_1215" data-name="Tracé 1215" d="M0,1.067C2.291-1.412,4.3-1.407,6.635.528,9.144,2.611,9.9,5.462,8.183,7.954,7.147,3.755,6.42-.721,0,1.067" transform="translate(0 0.864)" fill="#fff"/>
  </g>
  <g id="Groupe_1634" data-name="Groupe 1634" transform="translate(3.168 86.015)">
    <path id="Tracé_1216" data-name="Tracé 1216" d="M4.274,4.974C3.407.56,2.467-3.636-3.462-2.237-1.846-4.425.109-4.555,2.357-2.921c2.729,1.984,3.7,5.184,1.917,7.9" transform="translate(3.462 4.029)" fill="#fff"/>
  </g>
  <g id="Groupe_1635" data-name="Groupe 1635" transform="translate(22.138 68.362)">
    <path id="Tracé_1217" data-name="Tracé 1217" d="M.379,4.869C-1.064,2.228-.17-.648,2.493-2.651,4.808-4.389,6.453-4.34,8.02-2.709c-1.656.588-3.866.769-5.077,1.964C1.637.545,1.269,2.782.379,4.869" transform="translate(0.307 3.944)" fill="#fff"/>
  </g>
  <g id="Groupe_1636" data-name="Groupe 1636" transform="translate(33.61 85.83)">
    <path id="Tracé_1218" data-name="Tracé 1218" d="M4.843.831C.251.563-1.168.814-2.779,7.565c-.237.056-.472.112-.708.165a9.16,9.16,0,0,1-.4-2.751C-3.447,2.242-1-.416,1.455-.659,2.615-.773,3.847-.176,5.044.1l-.2.733" transform="translate(3.923 0.673)" fill="#fff"/>
  </g>
  <g id="Groupe_1637" data-name="Groupe 1637" transform="translate(4.457 70.6)">
    <path id="Tracé_1219" data-name="Tracé 1219" d="M0,1.115C1.913-1.33,3.629-1.457,5.984.214c2.729,1.94,3.761,5.115,2.123,7.8C6.916,3.971,6.342-.666,0,1.115" transform="translate(0 0.903)" fill="#fff"/>
  </g>
  <g id="Groupe_1638" data-name="Groupe 1638" transform="translate(15.47 118.672)">
    <path id="Tracé_1220" data-name="Tracé 1220" d="M4.952.861C-.185.461-.616.853-2.97,7.675c-1.678-1.386-1.294-4.116.905-6.427C.222-1.154,2.8-1.389,4.952.861" transform="translate(4.011 0.698)" fill="#fff"/>
  </g>
  <g id="Groupe_1639" data-name="Groupe 1639" transform="translate(1.614 98.81)">
    <path id="Tracé_1221" data-name="Tracé 1221" d="M3.726,5.072C3.02.654,2.2-3.125-3.018-2.595-2.258-4.309-.9-4.541,1.17-3.422,4.318-1.717,5.711,1.946,3.726,5.072" transform="translate(3.018 4.108)" fill="#fff"/>
  </g>
  <g id="Groupe_1640" data-name="Groupe 1640" transform="translate(35.386 25.413)">
    <path id="Tracé_1222" data-name="Tracé 1222" d="M0,0H11.475c.092.235.188.469.279.7a6.394,6.394,0,0,1-1.982.876C2.206,2.051.885,1.841,0,0" fill="#fff"/>
  </g>
  <g id="Groupe_1641" data-name="Groupe 1641" transform="translate(26.126 70.884)">
    <path id="Tracé_1223" data-name="Tracé 1223" d="M0,3.536c1.8-1.982,3.6-3.962,5.806-6.4C6.331,1.605,4.163,4.046,0,3.536" transform="translate(0 2.864)" fill="#fff"/>
  </g>
  <g id="Groupe_1642" data-name="Groupe 1642" transform="translate(18.748 101.81)">
    <path id="Tracé_1224" data-name="Tracé 1224" d="M.017,0C2.238,2.407,4,4.315,5.868,6.338,2.614,7.777-.352,4.814.017,0" transform="translate(0.014)" fill="#fff"/>
  </g>
  <g id="Groupe_1643" data-name="Groupe 1643" transform="translate(24.764 82.909)">
    <path id="Tracé_1225" data-name="Tracé 1225" d="M3.671,5.124C2.755.847,2.093-3.014-2.973-2.6-2.2-4.311-1.465-4.514.464-3.658A6.3,6.3,0,0,1,3.671,5.124" transform="translate(2.973 4.15)" fill="#fff"/>
  </g>
  <g id="Groupe_1644" data-name="Groupe 1644" transform="translate(32.136 122.393)">
    <path id="Tracé_1226" data-name="Tracé 1226" d="M.08,0C2.214,2.407,3.989,4.411,5.937,6.608,2.161,7.609-.76,4.476.08,0" transform="translate(0.065)" fill="#fff"/>
  </g>
  <g id="Groupe_1645" data-name="Groupe 1645" transform="translate(57.356 113.854)">
    <path id="Tracé_1227" data-name="Tracé 1227" d="M.147,0C1.87,2.016,3.591,4.029,5.718,6.521,1.139,6.373-.892,4.087.147,0" transform="translate(0.119)" fill="#fff"/>
  </g>
  <g id="Groupe_1646" data-name="Groupe 1646" transform="translate(3.465 73.564)">
    <path id="Tracé_1228" data-name="Tracé 1228" d="M.385,0,5.833,6.2C1.947,6.82-.518,4.253-.3.565-.071.375.157.188.385,0" transform="translate(0.312)" fill="#fff"/>
  </g>
  <g id="Groupe_1647" data-name="Groupe 1647" transform="translate(15.568 57.925)">
    <path id="Tracé_1229" data-name="Tracé 1229" d="M0,1.468,5.665-1.189C5.5.764,5.35,2.641,5.14,5.211L0,1.468" transform="translate(0 1.189)" fill="#fff"/>
  </g>
  <g id="Groupe_1648" data-name="Groupe 1648" transform="translate(24.991 124.101)">
    <path id="Tracé_1230" data-name="Tracé 1230" d="M1.916.053c.038.749.378,1.669.063,2.215C.405,5,.593,6.031,3.1,8.507,1.784,7.912.045,7.664-.779,6.663-3.195,3.731.821,2.373.888-.043l1.028.1" transform="translate(1.552 0.043)" fill="#fff"/>
  </g>
  <g id="Groupe_1649" data-name="Groupe 1649" transform="translate(19.575 121.2)">
    <path id="Tracé_1231" data-name="Tracé 1231" d="M0,3.489,5.531-2.826C6.543,1.06,4.572,3.458.664,4.1Z" transform="translate(0 2.826)" fill="#fff"/>
  </g>
  <g id="Groupe_1650" data-name="Groupe 1650" transform="translate(50.684 100.76)">
    <path id="Tracé_1232" data-name="Tracé 1232" d="M3.228,3.463C-1.031,3.919-3.078,1.606-2.526-2.8-.343-.427,1.443,1.517,3.228,3.463" transform="translate(2.615 2.805)" fill="#fff"/>
  </g>
  <g id="Groupe_1651" data-name="Groupe 1651" transform="translate(37.392 88.647)">
    <path id="Tracé_1233" data-name="Tracé 1233" d="M3.49.337C2.86,4.659,1.408,6.212-2.827,6.158-.709,3.732,1.037,1.729,2.784-.273l.706.61" transform="translate(2.827 0.273)" fill="#fff"/>
  </g>
  <g id="Groupe_1652" data-name="Groupe 1652" transform="translate(22.935 86.113)">
    <path id="Tracé_1234" data-name="Tracé 1234" d="M.149,0,5.4,5.9C1.761,6.782-1.019,3.967.149,0" transform="translate(0.121)" fill="#fff"/>
  </g>
  <g id="Groupe_1653" data-name="Groupe 1653" transform="translate(2.426 88.632)">
    <path id="Tracé_1235" data-name="Tracé 1235" d="M.013,0,5.718,6.742C1.454,6.992-.235,4.995.013,0" transform="translate(0.011)" fill="#fff"/>
  </g>
  <g id="Groupe_1654" data-name="Groupe 1654" transform="translate(18.714 22.392)">
    <path id="Tracé_1236" data-name="Tracé 1236" d="M0,0,14.315.749c-.022.358-.045.717-.065,1.077A46.308,46.308,0,0,1,0,0" fill="#fff"/>
  </g>
  <g id="Groupe_1655" data-name="Groupe 1655" transform="translate(49.429 22.396)">
    <path id="Tracé_1237" data-name="Tracé 1237" d="M.077.386Q7.2.038,14.332-.313A43.892,43.892,0,0,1-.062,1.443C-.015,1.09.03.74.077.386" transform="translate(0.062 0.313)" fill="#fff"/>
  </g>
  <g id="Groupe_1656" data-name="Groupe 1656" transform="translate(34.062 23.261)">
    <path id="Tracé_1238" data-name="Tracé 1238" d="M0,.545c2.011-1.336,12.436-1.3,14.253,0Z" transform="translate(0 0.442)" fill="#fff"/>
  </g>
  <g id="Groupe_1657" data-name="Groupe 1657" transform="translate(37.699 74.847)">
    <path id="Tracé_1239" data-name="Tracé 1239" d="M.122,0C2.744.655,5.365,1.31,8.192,2.013,6.243,3.719,2.138,2.956-.1.755-.025.505.048.253.122,0" transform="translate(0.099)" fill="#fff"/>
  </g>
  <g id="Groupe_1658" data-name="Groupe 1658" transform="translate(12.066 29.018)">
    <path id="Tracé_1240" data-name="Tracé 1240" d="M9.821.261H-7.954c.009-.156.016-.315.025-.472H9.836Z" transform="translate(7.954 0.211)" fill="#fff"/>
  </g>
  <g id="Groupe_1659" data-name="Groupe 1659" transform="translate(52.719 28.59)">
    <path id="Tracé_1241" data-name="Tracé 1241" d="M9.745.494H-7.882c0-.038-.009-.078-.011-.116L9.7-.4c.016.3.029.6.045.894" transform="translate(7.893 0.4)" fill="#fff"/>
  </g>
  <g id="Groupe_1660" data-name="Groupe 1660" transform="translate(32.623 98.969)">
    <path id="Tracé_1242" data-name="Tracé 1242" d="M0,1.949A14.557,14.557,0,0,1,2.93-.636c1.683-.829,3.582-1.656,5.415.076C5.652.394,3.062,1.31.472,2.226L0,1.949" transform="translate(0 1.579)" fill="#fff"/>
  </g>
  <g id="Groupe_1661" data-name="Groupe 1661" transform="translate(19.897 114.793)">
    <path id="Tracé_1243" data-name="Tracé 1243" d="M0,1.224C3.169.459,5.833-.182,9.2-.991,6.93,1.905,2.324,2.926,0,1.224" transform="translate(0 0.991)" fill="#fff"/>
  </g>
  <g id="Groupe_1662" data-name="Groupe 1662" transform="translate(10.88 85.791)">
    <path id="Tracé_1244" data-name="Tracé 1244" d="M4.645,0A6.545,6.545,0,0,1-3.762,2.186C-.692,1.388,1.977.695,4.645,0" transform="translate(3.762)" fill="#fff"/>
  </g>
  <g id="Groupe_1663" data-name="Groupe 1663" transform="translate(55.723 56.197)">
    <path id="Tracé_1245" data-name="Tracé 1245" d="M4.589.53l-7.868,2.8c-.145-.074-.293-.145-.438-.219A12.921,12.921,0,0,1-1.087.568C.674-.359,2.63-1.1,4.589.53" transform="translate(3.717 0.43)" fill="#fff"/>
  </g>
  <g id="Groupe_1664" data-name="Groupe 1664" transform="translate(58.027 65.574)">
    <path id="Tracé_1246" data-name="Tracé 1246" d="M0,.578c1.325-1.636,3-1,4.489-.431,1.546.594,3.35,1.16,3.339,3.276C5.243,2.484,2.76,1.581,0,.578" transform="translate(0 0.468)" fill="#fff"/>
  </g>
  <g id="Groupe_1665" data-name="Groupe 1665" transform="translate(58.065 83.368)">
    <path id="Tracé_1247" data-name="Tracé 1247" d="M.436,0C2.644,2.034,3.328,5.336,1.748,7.7,1,5.037.322,2.632-.353.228L.436,0" transform="translate(0.353)" fill="#fff"/>
  </g>
  <g id="Groupe_1666" data-name="Groupe 1666" transform="translate(60.251 122.652)">
    <path id="Tracé_1248" data-name="Tracé 1248" d="M0,.824c1.048-2.51,3.5-1,5.216-1.4C6.179-.808,7.466.334,8.608.857c-.1.194-.2.389-.306.581-2.733-.2-5.464-.4-8.3-.615" transform="translate(0 0.667)" fill="#fff"/>
  </g>
  <g id="Groupe_1667" data-name="Groupe 1667" transform="translate(23.067 95.335)">
    <path id="Tracé_1249" data-name="Tracé 1249" d="M4.551.944l-8.237.514c.5-1.551.715-1.73,3.015-2.083,1.944-.3,3.8-.268,5.222,1.569" transform="translate(3.686 0.765)" fill="#fff"/>
  </g>
  <g id="Groupe_1668" data-name="Groupe 1668" transform="translate(32.039 115.168)">
    <path id="Tracé_1250" data-name="Tracé 1250" d="M0,0,6.384,6.905C3.345,7.041.2,3.643,0,0" fill="#fff"/>
  </g>
  <g id="Groupe_1669" data-name="Groupe 1669" transform="translate(42.524 79.94)">
    <path id="Tracé_1251" data-name="Tracé 1251" d="M4.613.916c-3.028.21-5.634.389-8.349.579.183-1.73,1.687-2,3.108-2.118,1.9-.154,3.951-.48,5.24,1.54" transform="translate(3.736 0.742)" fill="#fff"/>
  </g>
  <g id="Groupe_1670" data-name="Groupe 1670" transform="translate(56.936 58.772)">
    <path id="Tracé_1252" data-name="Tracé 1252" d="M3.519,0C3.425,3.144.361,5.106-2.85,4.031L3.519,0" transform="translate(2.85)" fill="#fff"/>
  </g>
  <g id="Groupe_1671" data-name="Groupe 1671" transform="translate(30.491 78.999)">
    <path id="Tracé_1253" data-name="Tracé 1253" d="M2.867,3.82C-.259,3.74-3.206-1.011-2.076-3.094-.54-.946,1.077,1.315,2.867,3.82" transform="translate(2.322 3.094)" fill="#fff"/>
  </g>
  <g id="Groupe_1672" data-name="Groupe 1672" transform="translate(44.563 55.243)">
    <path id="Tracé_1254" data-name="Tracé 1254" d="M0,2.168,6.438-1.756C6.414,1.16,3.325,3.142,0,2.168" transform="translate(0 1.756)" fill="#fff"/>
  </g>
  <g id="Groupe_1673" data-name="Groupe 1673" transform="translate(43.555 83.419)">
    <path id="Tracé_1255" data-name="Tracé 1255" d="M0,0,7.437,1.064C5.5,3.336,1.763,2.885,0,0" fill="#fff"/>
  </g>
  <g id="Groupe_1674" data-name="Groupe 1674" transform="translate(9.739 123.037)">
    <path id="Tracé_1256" data-name="Tracé 1256" d="M0,0C2.55.606,3.692,4.44,2.413,8.177,1.578,5.345.822,2.789,0,0" fill="#fff"/>
  </g>
  <g id="Groupe_1675" data-name="Groupe 1675" transform="translate(24.028 98.911)">
    <path id="Tracé_1257" data-name="Tracé 1257" d="M4.158.524A4.727,4.727,0,0,1-3.368-.424c2.5.313,4.838.608,7.526.948" transform="translate(3.368 0.424)" fill="#fff"/>
  </g>
  <g id="Groupe_1676" data-name="Groupe 1676" transform="translate(33.891 101.745)">
    <path id="Tracé_1258" data-name="Tracé 1258" d="M0,2.135C2.212.743,4.181-.493,6.145-1.729,6.7.933,3.4,3.16,0,2.135" transform="translate(0 1.729)" fill="#fff"/>
  </g>
  <g id="Groupe_1677" data-name="Groupe 1677" transform="translate(58.081 68.043)">
    <path id="Tracé_1259" data-name="Tracé 1259" d="M3.839,2.316c-3.316.8-5.7-.57-6.948-4.192L3.839,2.316" transform="translate(3.109 1.876)" fill="#fff"/>
  </g>
  <g id="Groupe_1678" data-name="Groupe 1678" transform="translate(52.321 76.722)">
    <path id="Tracé_1260" data-name="Tracé 1260" d="M4.742,1.214c-1.486,1.267-7.126-.031-8.583-2.2C-.695-.176,1.913.49,4.742,1.214" transform="translate(3.841 0.983)" fill="#fff"/>
  </g>
  <g id="Groupe_1679" data-name="Groupe 1679" transform="translate(39.111 122.031)">
    <path id="Tracé_1261" data-name="Tracé 1261" d="M1.126,3.835C.353,1.408-.28-.583-.912-2.572l.333-.534C0-2.65.786-2.313,1.137-1.72c.932,1.58,1.66,3.269-.011,5.555" transform="translate(0.912 3.106)" fill="#fff"/>
  </g>
  <g id="Groupe_1680" data-name="Groupe 1680" transform="translate(26.159 102.642)">
    <path id="Tracé_1262" data-name="Tracé 1262" d="M.911,3.335C.239.872-.249-.909-.738-2.7,1.711-2.6,2.585-.3.911,3.335" transform="translate(0.738 2.701)" fill="#fff"/>
  </g>
  <g id="Groupe_1681" data-name="Groupe 1681" transform="translate(2.158 103.903)">
    <path id="Tracé_1263" data-name="Tracé 1263" d="M.123,0C1.1,1.348,2.085,2.7,3.267,4.32-.121,4.371-.438,3.953.123,0" transform="translate(0.099)" fill="#fff"/>
  </g>
  <g id="Groupe_1682" data-name="Groupe 1682" transform="translate(62.084 125.743)">
    <path id="Tracé_1264" data-name="Tracé 1264" d="M.074.7,4.785-.567c.143.259.286.518.427.778A9.186,9.186,0,0,1,2.718,1.717,8.228,8.228,0,0,1-.06,1.384L.074.7" transform="translate(0.06 0.567)" fill="#fff"/>
  </g>
  <g id="Groupe_1683" data-name="Groupe 1683" transform="translate(49.968 107.23)">
    <path id="Tracé_1265" data-name="Tracé 1265" d="M0,0C2.688,1.743,2.8,2.7.568,5.609.36,3.546.2,2,0,0" fill="#fff"/>
  </g>
  <g id="Groupe_1684" data-name="Groupe 1684" transform="translate(15.64 130.111)">
    <path id="Tracé_1266" data-name="Tracé 1266" d="M0,0C2.588.532,3.207,1.506,2.684,4.887L0,0" fill="#fff"/>
  </g>
  <g id="Groupe_1685" data-name="Groupe 1685" transform="translate(56.937 125.028)">
    <path id="Tracé_1267" data-name="Tracé 1267" d="M1.167,0C.988,1.937.849,3.43.7,5.037-1.609,3.515-1.517,1.911,1.167,0" transform="translate(0.945)" fill="#fff"/>
  </g>
  <g id="Groupe_1686" data-name="Groupe 1686" transform="translate(41.192 108.85)">
    <path id="Tracé_1268" data-name="Tracé 1268" d="M0,2.1A13.282,13.282,0,0,1,.686-1.057c.25-.532,1.191-.737,2.181-.6Q1.922.288.979,2.233L0,2.1" transform="translate(0 1.698)" fill="#fff"/>
  </g>
  <g id="Groupe_1687" data-name="Groupe 1687" transform="translate(23.074 62.153)">
    <path id="Tracé_1269" data-name="Tracé 1269" d="M1.491.431Q.606,2.3-.278,4.17l-.729.072a6.1,6.1,0,0,1-.076-2.5A8.62,8.62,0,0,1,.832-.349l.659.78" transform="translate(1.208 0.349)" fill="#fff"/>
  </g>
  <g id="Groupe_1688" data-name="Groupe 1688" transform="translate(51.891 120.773)">
    <path id="Tracé_1270" data-name="Tracé 1270" d="M1.757,2.625C.573.86-.426-.633-1.423-2.126c2.514.351,3.285,1.45,3.18,4.751" transform="translate(1.423 2.126)" fill="#fff"/>
  </g>
  <g id="Groupe_1689" data-name="Groupe 1689" transform="translate(47.018 113.641)">
    <path id="Tracé_1271" data-name="Tracé 1271" d="M.592,0c.366,2.156.664,3.906.963,5.656C-.794,4.081-1.1,2.72.592,0" transform="translate(0.479)" fill="#fff"/>
  </g>
  <g id="Groupe_1690" data-name="Groupe 1690" transform="translate(45.313 67.066)">
    <path id="Tracé_1272" data-name="Tracé 1272" d="M1.6,0C.8,1.768.172,3.135-.541,4.693-1.989,2.1-1.412.729,1.6,0" transform="translate(1.3)" fill="#fff"/>
  </g>
  <g id="Groupe_1691" data-name="Groupe 1691" transform="translate(98.319)">
    <path id="Tracé_1273" data-name="Tracé 1273" d="M.763,68.24C.763,55.469-.763-1.5-.607-14.273c.058-4.858.217-9.779,2.378-14.349a16.729,16.729,0,0,1,7.812-8.445c1.627-.784,2.36-1.656,1.41-3.555-.313-.628.19-1.794.556-2.61.84-1.879.9-3.082-1.609-3.66-.887-.2-1.473-1.754-2.17-2.708-.08-.112,0-.349.02-.525.483-4.639.483-4.666,5.155-4.717,14.646-.161,29.295-.342,43.941-.425,3.656-.022,7.312.322,10.97.427,1.4.042,2.172.46,2.116,2.029a21,21,0,0,0,.36,2.907c.17,1.589-.185,2.914-2.049,3.115-2.59.282-2.416,1.669-1.672,3.555a4.713,4.713,0,0,1,.344,2.945A2.206,2.206,0,0,0,68.2-37.221c7.6,3.743,10.228,10.561,10.23,18.235.007,26.436-.378,52.875-.646,79.311a71.081,71.081,0,0,1-.474,9.888c-1.1,7.24-6.157,11.808-13.976,12.179q-18.433.878-36.9,1.008a76.647,76.647,0,0,1-14.3-1.537C4.864,80.518.917,75.593.763,68.24.455,53.507.2,38.774-.073,24.038c-.2,0,1.032,44.2.836,44.2M15.195-22.439c1.8-.027,3.949-.677,5.3.087,1.553.874,2.4,3,3.462,4.463,1.041-.416,2.221-.887,3.415-1.365.1-5.949,4.711-5.508,9.627-1.855,2.907-1.678,3.866-1.54,7.553,1.019,1.844-.606,3.616-1.142,5.35-1.781A2.4,2.4,0,0,0,51.2-22.9c1.088-2.36,2.883-2.809,5.073-1.882,1.526.646,2.939,1.562,4.4,2.358,1.609-3.019,5.269-3.365,7.1-.4a10.012,10.012,0,0,1,1.6,4.691c.458,16.684.715,33.373,1.144,50.055.223,8.655.666,17.3,1.05,25.949a7.848,7.848,0,0,0,.626,1.953l.961-.127c.921-8.782.266-17.612.226-26.425-.042-8.671.194-17.346.027-26.014-.172-8.838-.688-17.67-1.07-26.926,2.179.731,3.734,1.254,5.415,1.819-.221-5.4-1.251-10.387-4.635-14.559-2.045-2.523-4.5-4.809-7.993-4.644-4.344.206-8.668,1.24-13,1.24-11.14,0-22.3-.013-33.409-.74-5.629-.369-10.552-.588-14.139,4.639C1.782-27.851.718-23.337.35-18.546c2.737.371,4.758-.038,6.682-2.232,2.664-3.035,5.258-3.03,8.163-1.66m-5.9-30.986c-1.423,5.254-.907,5.942,4.384,6.1,4.013.118,8.025.534,12.034.505,13.118-.1,26.233-.333,39.348-.543,4.358-.069,4.834-.695,4.038-4.932-.08-.422-.19-.838-.255-1.126Zm55.682,7.582H13.188c-.163.851-.371,1.94-.581,3.046H65.62c-.279-1.316-.494-2.32-.648-3.046m1.461,5.153c.007-.282.016-.563.022-.845h-54.7v.9a253.835,253.835,0,0,0,54.678-.051m-.505,1.8-.456-.677c-2.644.27-5.287.755-7.933.775q-17.129.141-34.262.031c-3.113-.018-6.219-.436-9.334-.565-.579-.025-1.178.44-1.77.677.114.282.226.563.337.845,3.542.244,7.086.467,10.626.733A242.727,242.727,0,0,0,64.3-37.733c.577-.054,1.091-.758,1.634-1.158M56.961-53.919c0-.11,0-.219,0-.328H22.243v.328ZM40.006,63.7l1.45-.013a18.946,18.946,0,0,0-.072-2.983c-.031-.2-.97-.25-1.493-.369l.114,3.365M66.919,13.591q-.771-.141-1.542-.279-.312,1.575-.621,3.153c.514.036,1.439.212,1.479.089a24.9,24.9,0,0,0,.684-2.963M50.876,72.053c.523.076,1.044.152,1.567.226l.53-3.265c-.53.018-1.468-.1-1.524.076a20.416,20.416,0,0,0-.572,2.963M38.782,41.073c-.706-.581-1.171-.965-1.638-1.348A7.179,7.179,0,0,0,35.9,41.849c-.078.382.744.948,1.162,1.43.5-.639.994-1.276,1.721-2.206m6.595,14.905,1.6-.027a21.519,21.519,0,0,0-.264-3c-.031-.159-.983-.127-1.511-.181q.087,1.6.177,3.207" transform="translate(0.618 55.269)" fill="#aa5144"/>
  </g>
  <g id="Groupe_1692" data-name="Groupe 1692" transform="translate(210.938 7.156)">
    <path id="Tracé_1274" data-name="Tracé 1274" d="M17.182,0c0,.036,0,.069,0,.105-1.967,0-3.933-.04-5.9.007C4.674.27-1.938.346-8.535.715c-1.689.1-4.139.7-4.8,1.879a5.243,5.243,0,0,0,1.057,6.172,3.316,3.316,0,0,1,.742,1.9c.384,4.61.974,9.225.974,13.839,0,12.95-.246,25.9-.391,38.85-.179,15.717-.416,31.435-.5,47.152-.047,8.2,2.746,12.376,9.354,14.248a28.548,28.548,0,0,0,7.314,1.285c11.321.136,22.651.266,33.967,0,8.557-.2,12.586-4.7,12.586-13.124q0-49.989-.016-99.975c0-1.841.215-3.352,1.7-4.758,1.381-1.305,2.17-3.4.858-5.059a5.9,5.9,0,0,0-3.949-1.884C39.309.717,28.245.389,17.182,0" transform="translate(13.916)" fill="#fff"/>
  </g>
  <g id="Groupe_1693" data-name="Groupe 1693" transform="translate(210.938 7.156)">
    <path id="Tracé_1275" data-name="Tracé 1275" d="M17.182,0C28.245.389,39.309.717,50.367,1.245a5.9,5.9,0,0,1,3.949,1.884c1.312,1.658.523,3.754-.858,5.059-1.488,1.406-1.7,2.916-1.7,4.758q.044,49.989.016,99.975c0,8.429-4.029,12.925-12.586,13.124-11.316.264-22.646.134-33.967,0A28.548,28.548,0,0,1-2.1,124.758c-6.608-1.873-9.4-6.052-9.354-14.248.087-15.717.324-31.435.5-47.152.145-12.95.4-25.9.391-38.85,0-4.615-.59-9.229-.974-13.839a3.316,3.316,0,0,0-.742-1.9,5.243,5.243,0,0,1-1.057-6.172c.657-1.178,3.106-1.783,4.8-1.879C-1.938.346,4.674.27,11.282.112c1.964-.047,3.931-.007,5.9-.007,0-.036,0-.069,0-.105m33.6,15.826c-1.064.885-2.391,2.758-4.121,3.267a33.641,33.641,0,0,1-9.477,1.3C24.52,20.36,11.856,20.211-.8,19.819c-3.435-.105-7.573.27-8.713-4.3,0,6.773.031,13.638-.007,20.5q-.154,28.1-.369,56.193c-.018,2.152-.266,4.241,2.217,5.446a2.741,2.741,0,0,1,.9,2.266c-.029.387-1.2.726-1.888,1.012a5.122,5.122,0,0,1-1.2.2c-.165,3.582-.556,6.974-.425,10.347.2,5.064,1.258,10.045,6.952,11.654,4.282,1.211,8.8,1.6,13.207,2.358.094-.268.185-.536.277-.8-.552-.764-1.021-2.107-1.665-2.2-3.307-.454-6.659-.583-9.846-.816.159-.329.559-1.153.99-2.043A164.469,164.469,0,0,0,36.7,120.888v-4.016l.7-.116q.54,1.924,1.082,3.841l4.013.232c.007.355.011.711.018,1.064-4.554.358-9.1.856-13.661,1.028-4.7.179-9.408.04-14.092.04v2.717c8.371-.275,16.613-.226,24.787-.961,3.62-.326,8.624-.105,8.639-6.208.409.445.715.773,1.506,1.631a52.415,52.415,0,0,0,.838-6.539c-.036-10.744.172-21.513-.539-32.217-.215-3.234.279-6.291.228-9.428-.04-2.324-.034-4.646-.007-6.968.185-16.684.382-33.368.568-49.163M-12.549,2.912c-1.048,3.053.255,6.049,3.26,6.255,6.4.438,12.814.889,19.227,1.073,7.4.212,14.814.313,22.215.134,5.958-.143,11.909-.726,17.853-1.22a4.389,4.389,0,0,0,3.9-4.646c-.244-2.914-2.5-1.7-3.908-1.705-10.892-.034-21.784.076-32.673.105-9.9.025-19.8,0-29.873,0m3.213,7.395c.337,1.573.691,2.943.918,4.333.4,2.456,2.06,3.446,4.284,3.658,4.262.407,8.534,1,12.8,1.006,10.883,0,21.788.089,32.644-.561,7.663-.458,7.457.293,9.048-7.886a3.481,3.481,0,0,0-.04-.632c-19.844,2.543-39.69,1.22-59.659.083M1.293,1.526c0,.1,0,.2,0,.3H42.632c0-.1,0-.2,0-.3Z" transform="translate(13.916)" fill="#2b2e34"/>
  </g>
  <g id="Groupe_1694" data-name="Groupe 1694" transform="translate(214.543 22.68)">
    <path id="Tracé_1276" data-name="Tracé 1276" d="M33.753.167c-.183,15.795-.38,32.479-.568,49.163-.027,2.322-.031,4.646.007,6.968.054,3.138-.44,6.195-.226,9.428.708,10.7.5,21.473.539,32.217a52.84,52.84,0,0,1-.838,6.539c-.793-.856-1.1-1.187-1.508-1.631-.016,6.1-5.019,5.882-8.639,6.208-8.172.735-16.416.686-24.787.961V107.3c4.684,0,9.395.139,14.092-.04,4.561-.172,9.109-.67,13.661-1.026,0-.355-.011-.711-.016-1.066l-4.016-.232q-.54-1.914-1.082-3.841c-.232.04-.467.078-.7.116v4.016a164.489,164.489,0,0,1-37.067-1.247c-.431.889-.829,1.714-.99,2.042,3.189.232,6.539.364,9.846.816.644.089,1.115,1.432,1.665,2.2l-.275.8c-4.411-.755-8.925-1.146-13.209-2.355-5.694-1.609-6.753-6.592-6.952-11.656-.132-3.372.259-6.764.427-10.347a5.162,5.162,0,0,0,1.2-.2C-25,85-23.831,84.66-23.8,84.271a2.741,2.741,0,0,0-.9-2.266c-2.483-1.2-2.235-3.294-2.217-5.446q.218-28.1.369-56.191c.038-6.865.007-13.732.007-20.5,1.14,4.565,5.281,4.19,8.713,4.3,12.655.391,25.319.539,37.981.572a33.641,33.641,0,0,0,9.477-1.3c1.73-.51,3.057-2.38,4.121-3.267M9.937,44.539l2.979-2.451c-1.137-.789-2.215-2.054-3.432-2.21-.876-.112-1.94,1.256-2.921,1.964,1.019.816,2.038,1.629,3.374,2.7m5.151,46.937,3.044-3.12c-1.057-.594-2.168-1.739-3.158-1.64-1.126.112-2.143,1.33-3.207,2.065.943.767,1.888,1.533,3.321,2.7M-18.772,37.7c1.2-1.242,1.8-1.866,2.407-2.489-1.37-1.093-2.7-2.244-4.165-3.191-.161-.105-1.627,1.323-1.562,1.424.894,1.339,1.953,2.568,3.321,4.257M4.29,53.118c-.063-.378-.127-.753-.192-1.131a8.075,8.075,0,0,0-2.335-1.006c-1.73-.15-3.844,1.692-3.609,3.187.094.6,1.321,1.618,1.622,1.488A41.048,41.048,0,0,0,4.29,53.118M-17.055,27.345l2.329,2.635c.708-.787,1.716-1.479,2-2.4.15-.487-.921-1.884-1.511-1.931-.731-.056-1.537.867-2.818,1.694m38.1-13.258,2.4,2.315c.648-.845,1.658-1.629,1.808-2.554.092-.565-1.115-1.853-1.783-1.884-.65-.031-1.356,1.124-2.429,2.123M-7.292,89.9-4.9,87.809c-.72-.78-1.318-1.826-2.21-2.228-.425-.192-2.067.979-2,1.287.19.912.961,1.7,1.824,3.028M5.084,36.932c.811-1.723,1.578-2.668,1.589-3.622.007-.6-1.117-1.213-1.732-1.823-.6.834-1.52,1.607-1.678,2.514-.109.626.84,1.435,1.821,2.932M-5.073,42.156C-6.49,41.35-7.281,40.539-7.8,40.684a9.622,9.622,0,0,0-2.579,1.694c.572.648,1.269,1.911,1.689,1.824,1.046-.217,1.964-1.048,3.618-2.045m24.416-12.95c1.077,1.055,1.743,1.707,2.409,2.358.61-.762,1.649-1.493,1.705-2.293.049-.713-.99-1.5-1.549-2.257-.713.61-1.423,1.218-2.565,2.192M5.975,28.538c-.031.331-.063.661-.092.992q1.907.959,3.812,1.92c.241-.188.48-.373.72-.561-.42-.784-.664-1.971-1.305-2.253-.889-.391-2.076-.1-3.135-.1" transform="translate(27.337 0.135)" fill="#fff"/>
  </g>
  <g id="Groupe_1695" data-name="Groupe 1695" transform="translate(211.946 9.712)">
    <path id="Tracé_1277" data-name="Tracé 1277" d="M.2.2c10.076,0,19.974.02,29.871,0C40.961.163,51.853.054,62.743.087c1.41,0,3.667-1.209,3.908,1.705a4.387,4.387,0,0,1-3.9,4.646c-5.944.494-11.893,1.077-17.851,1.22-7.4.179-14.814.076-22.215-.134C16.27,7.341,9.863,6.888,3.459,6.45.453,6.244-.852,3.249.2.2" transform="translate(0.161 0.159)" fill="#fff"/>
  </g>
  <g id="Groupe_1697" data-name="Groupe 1697" transform="translate(248.442 62.685)">
    <path id="Tracé_1279" data-name="Tracé 1279" d="M1.864,2.579C.528,1.511-.491.7-1.51-.118-.529-.827.535-2.194,1.411-2.082c1.218.156,2.3,1.421,3.432,2.21L1.864,2.579" transform="translate(1.51 2.089)" fill="#2b2e34"/>
  </g>
  <g id="Groupe_1698" data-name="Groupe 1698" transform="translate(253.646 109.525)">
    <path id="Tracé_1280" data-name="Tracé 1280" d="M1.835,2.633C.4,1.471-.541.7-1.486-.06-.422-.8.594-2.015,1.723-2.127c.988-.1,2.1,1.046,3.155,1.64-.894.918-1.79,1.835-3.044,3.12" transform="translate(1.486 2.133)" fill="#2b2e34"/>
  </g>
  <g id="Groupe_1699" data-name="Groupe 1699" transform="translate(219.785 54.832)">
    <path id="Tracé_1281" data-name="Tracé 1281" d="M1.836,3.143C.468,1.453-.591.224-1.485-1.117c-.065-.1,1.4-1.526,1.562-1.423,1.464.95,2.8,2.1,4.165,3.193-.6.623-1.2,1.247-2.407,2.489" transform="translate(1.487 2.545)" fill="#2b2e34"/>
  </g>
  <g id="Groupe_1700" data-name="Groupe 1700" transform="translate(240.016 73.786)">
    <path id="Tracé_1282" data-name="Tracé 1282" d="M3.4,1.186A41.284,41.284,0,0,1-1.116,3.725c-.3.13-1.526-.889-1.62-1.488C-2.973.742-.859-1.1.871-.952A8.149,8.149,0,0,1,3.208.053c.065.378.127.755.192,1.133" transform="translate(2.754 0.961)" fill="#2b2e34"/>
  </g>
  <g id="Groupe_1701" data-name="Groupe 1701" transform="translate(224.824 48.463)">
    <path id="Tracé_1283" data-name="Tracé 1283" d="M0,.937C1.28.11,2.087-.813,2.816-.757,3.408-.71,4.478.687,4.329,1.174c-.284.918-1.292,1.611-2,2.4L0,.937" transform="translate(0 0.759)" fill="#2b2e34"/>
  </g>
  <g id="Groupe_1702" data-name="Groupe 1702" transform="translate(262.921 34.778)">
    <path id="Tracé_1284" data-name="Tracé 1284" d="M0,1.173C1.073.174,1.779-.981,2.429-.95,3.1-.918,4.306.369,4.212.934c-.15.925-1.16,1.71-1.808,2.554L0,1.173" transform="translate(0 0.95)" fill="#2b2e34"/>
  </g>
  <g id="Groupe_1703" data-name="Groupe 1703" transform="translate(232.761 108.375)">
    <path id="Tracé_1285" data-name="Tracé 1285" d="M1.01,2.4C.147,1.068-.624.28-.816-.632c-.065-.311,1.578-1.479,2-1.287.889.4,1.491,1.446,2.21,2.228C2.762.863,2.127,1.419,1.01,2.4" transform="translate(0.818 1.94)" fill="#2b2e34"/>
  </g>
  <g id="Groupe_1704" data-name="Groupe 1704" transform="translate(245.133 54.302)">
    <path id="Tracé_1286" data-name="Tracé 1286" d="M1.012,3.008C.031,1.51-.919.7-.811.078-.653-.829.27-1.6.867-2.436,1.484-1.828,2.608-1.214,2.6-.615c-.011.954-.778,1.9-1.587,3.622" transform="translate(0.82 2.436)" fill="#2b2e34"/>
  </g>
  <g id="Groupe_1705" data-name="Groupe 1705" transform="translate(231.498 63.482)">
    <path id="Tracé_1287" data-name="Tracé 1287" d="M2.934.823C1.278,1.82.359,2.651-.687,2.868-1.1,2.955-1.8,1.692-2.376,1.044A9.658,9.658,0,0,1,.2-.65C.726-.795,1.515.016,2.934.823" transform="translate(2.376 0.667)" fill="#2b2e34"/>
  </g>
  <g id="Groupe_1706" data-name="Groupe 1706" transform="translate(261.223 49.83)">
    <path id="Tracé_1288" data-name="Tracé 1288" d="M0,1.211C1.142.237,1.855-.373,2.565-.981c.559.755,1.6,1.544,1.549,2.257-.054.8-1.095,1.531-1.705,2.293L0,1.211" transform="translate(0 0.981)" fill="#2b2e34"/>
  </g>
  <g id="Groupe_1707" data-name="Groupe 1707" transform="translate(247.764 51.248)">
    <path id="Tracé_1289" data-name="Tracé 1289" d="M.051.058c1.059,0,2.246-.293,3.133.1.641.282.887,1.468,1.307,2.253l-.72.561Q1.864,2.008-.041,1.05C-.012.72.019.389.051.058" transform="translate(0.041 0.047)" fill="#2b2e34"/>
  </g>
</svg>
